<svg id="svg" version="1.1" width="400" height="400" xmlns="http://www.w3.org/2000/svg" xmlns:xlink="http://www.w3.org/1999/xlink" style="display: block;"><g id="svgg"><path id="path0" d="M281.393 149.700 C 281.260 150.415,280.306 156.191,279.275 162.536 L 277.400 174.073 271.892 175.878 C 268.841 176.878,263.956 178.908,260.939 180.431 L 255.494 183.179 254.247 182.310 C 253.561 181.832,249.310 178.815,244.800 175.605 C 240.290 172.395,236.048 169.381,235.372 168.908 L 234.145 168.048 225.687 176.524 L 217.229 185.000 222.663 192.600 C 225.651 196.780,229.057 201.562,230.230 203.226 L 232.364 206.253 229.617 211.737 C 228.107 214.754,226.061 219.692,225.072 222.711 L 223.273 228.200 211.736 230.075 C 205.391 231.106,199.615 232.060,198.900 232.193 L 197.600 232.436 197.600 244.411 L 197.600 256.385 198.500 256.596 C 198.995 256.712,204.440 257.614,210.600 258.602 C 216.760 259.589,222.160 260.481,222.600 260.583 C 223.234 260.731,223.730 261.830,224.992 265.885 C 225.945 268.948,227.742 273.316,229.470 276.773 C 231.058 279.948,232.240 282.738,232.097 282.973 C 231.954 283.208,228.696 287.805,224.858 293.188 C 221.019 298.572,217.812 303.252,217.731 303.588 C 217.642 303.958,220.872 307.588,225.902 312.770 L 234.220 321.340 236.771 319.484 C 238.174 318.463,239.479 317.725,239.671 317.844 C 239.863 317.962,239.970 317.890,239.910 317.682 C 239.802 317.312,248.020 310.945,249.200 310.485 C 249.530 310.356,251.076 309.294,252.636 308.125 C 256.025 305.585,255.278 305.628,258.849 307.771 C 262.618 310.032,265.327 311.164,271.900 313.224 C 275.885 314.472,277.199 315.048,277.196 315.542 C 277.194 315.904,278.135 321.645,279.286 328.300 L 281.381 340.400 293.690 340.400 C 300.461 340.400,306.000 340.267,306.000 340.105 C 306.000 339.133,310.108 316.039,310.412 315.300 C 310.616 314.805,311.033 314.400,311.338 314.400 C 312.223 314.400,322.769 310.831,324.566 309.924 C 325.465 309.470,327.424 308.376,328.920 307.492 L 331.639 305.885 333.320 307.142 C 334.244 307.833,336.260 309.245,337.800 310.279 C 342.338 313.329,345.808 316.051,345.690 316.470 C 345.630 316.684,345.746 316.757,345.949 316.632 C 346.151 316.506,347.371 317.179,348.659 318.127 C 349.946 319.075,351.476 320.162,352.057 320.543 L 353.114 321.236 361.775 312.575 L 370.436 303.914 369.743 302.857 C 369.362 302.276,368.275 300.746,367.327 299.459 C 366.379 298.171,365.706 296.951,365.832 296.749 C 365.957 296.546,365.884 296.430,365.670 296.490 C 365.251 296.608,362.529 293.138,359.479 288.600 C 358.445 287.060,357.033 285.044,356.342 284.120 L 355.085 282.439 356.692 279.720 C 357.576 278.224,358.667 276.270,359.117 275.378 C 360.058 273.515,363.600 263.092,363.600 262.187 C 363.600 261.855,364.005 261.416,364.500 261.212 C 365.239 260.908,388.333 256.800,389.305 256.800 C 389.467 256.800,389.600 251.256,389.600 244.479 L 389.600 232.158 377.500 230.077 C 370.845 228.933,365.113 227.998,364.763 227.998 C 364.296 228.000,363.674 226.580,362.440 222.700 C 360.140 215.468,359.479 213.871,357.183 210.011 C 354.782 205.974,354.770 206.644,357.300 203.334 C 358.455 201.822,359.652 200.139,359.960 199.593 C 360.402 198.807,368.297 188.000,370.127 185.674 C 370.443 185.273,368.463 183.068,361.798 176.398 L 353.055 167.649 351.828 168.500 C 351.152 168.968,347.967 171.297,344.748 173.675 C 341.529 176.054,338.774 178.000,338.624 178.000 C 338.475 178.000,336.934 179.080,335.200 180.400 C 331.594 183.145,331.691 183.120,329.662 181.839 C 327.224 180.300,320.876 177.200,320.162 177.200 C 319.550 177.200,312.392 175.115,310.578 174.408 C 309.931 174.157,309.660 173.502,309.309 171.344 C 309.063 169.835,308.214 164.550,307.422 159.600 C 306.631 154.650,305.882 150.105,305.760 149.500 L 305.536 148.400 293.586 148.400 L 281.636 148.400 281.393 149.700 M304.269 197.562 C 346.880 208.129,355.371 263.899,317.741 286.049 C 286.985 304.152,247.470 282.613,245.735 246.800 C 244.204 215.174,274.049 190.068,304.269 197.562 " stroke="none" fill="#000000" fill-rule="evenodd"></path><path id="path1" d="M221.200 107.402 C 197.154 110.687,178.212 121.281,165.777 138.400 C 163.880 141.011,160.400 146.990,160.400 147.637 C 160.400 147.926,159.997 148.005,159.300 147.853 C 135.586 142.668,113.845 149.400,98.707 166.614 C 96.779 168.806,95.201 170.729,95.201 170.888 C 95.200 171.046,94.417 172.396,93.461 173.888 C 92.505 175.379,91.619 176.960,91.494 177.400 C 91.369 177.840,90.631 179.640,89.854 181.400 C 87.095 187.651,85.936 197.294,86.800 206.800 C 86.992 208.911,86.960 209.005,86.000 209.115 C 45.359 213.783,28.125 260.620,56.629 288.939 C 61.950 294.225,70.568 299.243,77.600 301.149 C 85.456 303.277,82.638 303.201,152.752 303.189 L 217.800 303.178 223.800 294.719 C 227.100 290.067,230.380 285.435,231.090 284.426 L 232.380 282.591 229.481 276.796 C 227.742 273.318,225.947 268.954,224.992 265.885 C 223.730 261.830,223.234 260.731,222.600 260.583 C 222.160 260.481,216.760 259.589,210.600 258.602 C 204.440 257.614,198.995 256.712,198.500 256.596 L 197.600 256.385 197.600 244.411 L 197.600 232.436 198.900 232.193 C 199.615 232.060,205.391 231.106,211.736 230.075 L 223.273 228.200 225.072 222.711 C 226.061 219.692,228.107 214.754,229.617 211.737 L 232.364 206.253 230.230 203.226 C 229.057 201.562,225.651 196.780,222.663 192.600 L 217.229 185.000 225.687 176.524 L 234.145 168.048 235.372 168.908 C 236.048 169.381,240.290 172.395,244.800 175.605 C 249.310 178.815,253.561 181.832,254.247 182.310 L 255.494 183.179 260.939 180.431 C 263.956 178.908,268.841 176.878,271.892 175.878 L 277.400 174.073 279.275 162.536 C 280.306 156.191,281.260 150.415,281.393 149.700 L 281.636 148.400 292.218 148.400 C 298.038 148.400,302.800 148.296,302.800 148.168 C 302.800 146.894,297.440 138.481,294.054 134.442 C 286.739 125.714,272.840 115.687,264.662 113.239 C 263.968 113.031,261.643 112.219,259.496 111.435 C 248.974 107.591,232.506 105.857,221.200 107.402 M307.669 160.800 C 307.658 161.350,307.888 163.060,308.180 164.600 C 308.472 166.140,308.719 166.950,308.731 166.400 C 308.742 165.850,308.512 164.140,308.220 162.600 C 307.928 161.060,307.681 160.250,307.669 160.800 M313.600 201.000 C 314.590 201.530,315.580 201.964,315.800 201.964 C 316.020 201.964,315.390 201.530,314.400 201.000 C 313.410 200.470,312.420 200.036,312.200 200.036 C 311.980 200.036,312.610 200.470,313.600 201.000 M271.900 201.426 C 270.855 201.970,270.000 202.505,270.000 202.614 C 270.000 202.793,273.960 200.923,274.367 200.552 C 274.862 200.101,273.561 200.562,271.900 201.426 M250.580 222.840 C 250.011 223.962,249.613 224.947,249.695 225.029 C 249.777 225.111,250.327 224.193,250.918 222.989 C 251.508 221.785,251.906 220.800,251.802 220.800 C 251.698 220.800,251.148 221.718,250.580 222.840 M249.200 262.943 C 249.200 263.378,251.987 268.800,252.210 268.800 C 252.320 268.800,251.757 267.495,250.958 265.900 C 249.460 262.907,249.200 262.470,249.200 262.943 M327.381 278.500 L 325.800 280.200 327.500 278.619 C 328.435 277.749,329.200 276.984,329.200 276.919 C 329.200 276.616,328.852 276.919,327.381 278.500 " stroke="none" fill="#529fdb" fill-rule="evenodd"></path><path id="path2" d="M224.000 93.646 C 195.208 96.932,168.654 113.871,157.604 136.000 C 156.889 137.430,156.265 138.647,156.215 138.704 C 156.166 138.761,154.342 138.411,152.163 137.926 C 146.114 136.581,131.304 136.591,125.000 137.945 C 98.022 143.738,78.660 163.059,74.779 188.057 C 74.301 191.134,74.462 203.081,75.011 205.258 C 75.262 206.257,75.179 206.332,73.539 206.582 C 59.758 208.681,49.404 213.708,40.600 222.572 C 13.312 250.048,24.646 295.285,62.000 307.989 C 70.261 310.799,62.653 310.559,147.799 310.693 L 224.197 310.814 220.686 307.286 C 218.755 305.346,217.300 303.633,217.454 303.479 C 217.608 303.326,188.477 303.200,152.719 303.200 C 82.652 303.200,85.453 303.277,77.600 301.149 C 70.568 299.243,61.950 294.225,56.629 288.939 C 28.125 260.620,45.359 213.783,86.000 209.115 C 86.960 209.005,86.992 208.911,86.800 206.800 C 85.936 197.294,87.095 187.651,89.854 181.400 C 90.631 179.640,91.369 177.840,91.494 177.400 C 91.619 176.960,92.505 175.379,93.461 173.888 C 94.417 172.396,95.200 171.046,95.201 170.888 C 95.201 170.729,96.779 168.806,98.707 166.614 C 113.845 149.400,135.586 142.668,159.300 147.853 C 159.997 148.005,160.400 147.926,160.400 147.637 C 160.400 145.574,167.966 134.939,173.053 129.853 C 194.174 108.732,230.758 100.937,259.496 111.435 C 261.643 112.219,263.968 113.031,264.662 113.239 C 277.354 117.038,294.666 132.247,301.608 145.697 C 302.927 148.251,303.074 148.393,304.412 148.397 L 305.824 148.400 307.751 160.100 C 308.812 166.535,309.802 172.319,309.953 172.954 C 310.207 174.023,310.569 174.217,314.880 175.595 L 319.534 177.082 320.015 173.691 C 326.587 127.398,278.623 87.412,224.000 93.646 M288.040 196.820 C 248.325 201.788,231.699 250.140,259.981 278.418 C 289.245 307.678,339.327 287.994,341.446 246.400 C 342.918 217.485,316.786 193.224,288.040 196.820 " stroke="none" fill="#fdfefe" fill-rule="evenodd"></path></g></svg>