<?xml version="1.0" standalone="yes"?>

<svg version="1.1" viewBox="0.0 0.0 1955.3543307086613 887.0866141732283" fill="none" stroke="none" stroke-linecap="square" stroke-miterlimit="10" xmlns="http://www.w3.org/2000/svg" xmlns:xlink="http://www.w3.org/1999/xlink"><clipPath id="p.0"><path d="m0 0l1955.3544 0l0 887.0866l-1955.3544 0l0 -887.0866z" clip-rule="nonzero"></path></clipPath><g clip-path="url(#p.0)"><path fill="#000000" fill-opacity="0.0" d="m0 0l1955.3544 0l0 887.0866l-1955.3544 0z" fill-rule="evenodd"></path><path fill="#529fdb" d="m0.007874016 0l1955.3385 0l0 887.0866l-1955.3385 0z" fill-rule="evenodd"></path><path fill="#000000" fill-opacity="0.0" d="m51.057617 181.87787l54.677162 0l0 22.67717l-54.677162 0z" fill-rule="evenodd"></path><path fill="#000000" d="m70.83887 209.1835l0 1.25l-2.125 0l0 3.484375l-1.640625 0.234375l0 -3.71875l-6.0625 0q-0.453125 -0.734375 -0.5 -1.140625l6.65625 -10.0625q0.765625 -0.21875 1.5 -0.046875l0.03125 10.0l2.140625 0zm-3.765625 0l0 -7.84375l-5.078125 7.84375l5.078125 0zm13.651596 -2.453125q0 -3.296875 -0.84375 -4.890625q-0.84375 -1.609375 -2.640625 -1.609375q-1.78125 0 -2.640625 1.65625q-0.84375 1.640625 -0.84375 4.90625q0 3.265625 0.84375 4.75q0.859375 1.484375 2.65625 1.484375q1.8125 0 2.640625 -1.5q0.828125 -1.5 0.828125 -4.796875zm-3.46875 -7.734375q2.671875 -0.03125 3.921875 1.875q1.265625 1.90625 1.265625 5.8125q0 3.890625 -1.28125 5.75q-1.28125 1.84375 -3.921875 1.84375q-2.640625 0 -3.921875 -1.84375q-1.28125 -1.859375 -1.28125 -5.71875q0 -3.859375 1.28125 -5.78125q1.28125 -1.921875 3.9375 -1.9375zm15.564713 7.734375q0 -3.296875 -0.84375 -4.890625q-0.84375 -1.609375 -2.640625 -1.609375q-1.78125 0 -2.640625 1.65625q-0.84375 1.640625 -0.84375 4.90625q0 3.265625 0.84375 4.75q0.859375 1.484375 2.65625 1.484375q1.8125 0 2.640625 -1.5q0.828125 -1.5 0.828125 -4.796875zm-3.46875 -7.734375q2.671875 -0.03125 3.921875 1.875q1.265625 1.90625 1.265625 5.8125q0 3.890625 -1.28125 5.75q-1.28125 1.84375 -3.921875 1.84375q-2.640625 0 -3.921875 -1.84375q-1.28125 -1.859375 -1.28125 -5.71875q0 -3.859375 1.28125 -5.78125q1.28125 -1.921875 3.9375 -1.9375z" fill-rule="nonzero"></path><path fill="#000000" fill-opacity="0.0" d="m109.24799 143.7721l771.74805 0" fill-rule="evenodd"></path><path stroke="#000000" stroke-width="1.0" stroke-linejoin="round" stroke-linecap="butt" stroke-dasharray="1.0,3.0" d="m109.24799 143.7721l771.74805 0" fill-rule="evenodd"></path><path fill="#000000" fill-opacity="0.0" d="m51.057743 99.28346l54.677166 0l0 55.527557l-54.677166 0z" fill-rule="evenodd"></path><path fill="#000000" d="m70.83899 148.5891l0 1.25l-2.125 0l0 3.484375l-1.640625 0.234375l0 -3.71875l-6.062496 0q-0.453125 -0.734375 -0.5 -1.140625l6.656246 -10.0625q0.765625 -0.21875 1.5 -0.046875l0.03125 10.0l2.140625 0zm-3.765625 0l0 -7.84375l-5.078121 7.84375l5.078121 0zm9.307846 -4.3125q1.96875 0 3.203125 1.0625q1.25 1.046875 1.25 3.265625q0 2.21875 -1.4375 3.65625q-1.4375 1.421875 -3.734375 1.421875q-1.703125 0 -2.6875 -0.546875q-0.96875 -0.5625 -0.96875 -1.5q0 -0.515625 0.34375 -0.75q0.359375 -0.25 0.765625 -0.28125q0.265625 1.875 2.640625 1.875q1.484375 0 2.390625 -1.03125q0.921875 -1.03125 0.921875 -2.6875q0 -1.671875 -0.9375 -2.375q-0.9375 -0.71875 -2.28125 -0.71875q-1.34375 0 -2.5 0.59375l-0.3125 -0.15625l0.34375 -7.5l6.375 0.03125l-0.09375 1.421875l-5.109375 0l-0.171875 4.484375q0.984375 -0.265625 2.0 -0.265625zm14.543716 1.859375q0 -3.296875 -0.84375 -4.890625q-0.84375 -1.609375 -2.640625 -1.609375q-1.78125 0 -2.640625 1.65625q-0.84375 1.640625 -0.84375 4.90625q0 3.265625 0.84375 4.75q0.859375 1.484375 2.65625 1.484375q1.8125 0 2.640625 -1.5q0.828125 -1.5 0.828125 -4.796875zm-3.46875 -7.734375q2.671875 -0.03125 3.921875 1.875q1.265625 1.90625 1.265625 5.8125q0 3.890625 -1.28125 5.75q-1.28125 1.84375 -3.921875 1.84375q-2.640625 0 -3.921875 -1.84375q-1.28125 -1.859375 -1.28125 -5.71875q0 -3.859375 1.28125 -5.78125q1.28125 -1.921875 3.9375 -1.9375z" fill-rule="nonzero"></path><path fill="#000000" fill-opacity="0.0" d="m109.24537 207.19466l771.74805 0" fill-rule="evenodd"></path><path stroke="#000000" stroke-width="1.0" stroke-linejoin="round" stroke-linecap="butt" stroke-dasharray="1.0,3.0" d="m109.24537 207.19466l771.74805 0" fill-rule="evenodd"></path><path fill="#000000" fill-opacity="0.0" d="m109.24537 346.15652l771.74805 0" fill-rule="evenodd"></path><path stroke="#000000" stroke-width="1.0" stroke-linejoin="round" stroke-linecap="butt" stroke-dasharray="1.0,3.0" d="m109.24537 346.15652l771.74805 0" fill-rule="evenodd"></path><path fill="#000000" fill-opacity="0.0" d="m109.24537 413.7455l771.74805 0" fill-rule="evenodd"></path><path stroke="#000000" stroke-width="1.0" stroke-linejoin="round" stroke-linecap="butt" stroke-dasharray="1.0,3.0" d="m109.24537 413.7455l771.74805 0" fill-rule="evenodd"></path><path fill="#000000" fill-opacity="0.0" d="m109.24537 481.33716l771.74805 0" fill-rule="evenodd"></path><path stroke="#000000" stroke-width="1.0" stroke-linejoin="round" stroke-linecap="butt" stroke-dasharray="1.0,3.0" d="m109.24537 481.33716l771.74805 0" fill-rule="evenodd"></path><path fill="#000000" fill-opacity="0.0" d="m109.24537 548.92615l771.74805 0" fill-rule="evenodd"></path><path stroke="#000000" stroke-width="1.0" stroke-linejoin="round" stroke-linecap="butt" stroke-dasharray="1.0,3.0" d="m109.24537 548.92615l771.74805 0" fill-rule="evenodd"></path><path fill="#000000" fill-opacity="0.0" d="m109.24537 616.52045l771.74805 0" fill-rule="evenodd"></path><path stroke="#000000" stroke-width="1.0" stroke-linejoin="round" stroke-linecap="butt" stroke-dasharray="1.0,3.0" d="m109.24537 616.52045l771.74805 0" fill-rule="evenodd"></path><path fill="#000000" fill-opacity="0.0" d="m109.24537 684.86414l771.74805 0" fill-rule="evenodd"></path><path stroke="#000000" stroke-width="1.0" stroke-linejoin="round" stroke-linecap="butt" stroke-dasharray="1.0,3.0" d="m109.24537 684.86414l771.74805 0" fill-rule="evenodd"></path><path fill="#000000" fill-opacity="0.0" d="m109.24537 277.05292l771.74805 0" fill-rule="evenodd"></path><path stroke="#000000" stroke-width="1.0" stroke-linejoin="round" stroke-linecap="butt" stroke-dasharray="1.0,3.0" d="m109.24537 277.05292l771.74805 0" fill-rule="evenodd"></path><path fill="#000000" fill-opacity="0.0" d="m14.721785 657.4225l0 -417.88977l32.25197 0l0 417.88977z" fill-rule="evenodd"></path><path fill="#000000" d="m39.081787 552.43l0 3.625l-0.125 0q-0.890625 0 -0.953125 -0.703125l-0.03125 -0.4375l-7.750002 0.578125l7.125002 2.859375q0.1875 0.578125 0.09375 1.015625l-6.921877 3.09375l7.421877 0.46875l0.09375 -1.296875q0.109375 -0.046875 0.4375 0.015625q0.609375 0.140625 0.609375 0.703125l0 3.265625l-0.125 0q-0.890625 0 -0.953125 -0.703125l-0.03125 -0.640625l-8.718752 -0.578125l-0.09375 1.109375q-0.09375 0.046875 -0.4375 -0.015625q-0.59375 -0.15625 -0.59375 -0.71875l0 -2.734375l6.359377 -2.8125l-6.359377 -2.46875l0 -2.921875q0 -0.265625 0.140625 -0.4375q0.125 -0.1875 0.3125 -0.234375q0.484375 -0.09375 0.578125 -0.046875l0.09375 1.125l8.687502 -0.65625l0.09375 -1.171875q0.109375 -0.046875 0.4375 0.015625q0.609375 0.140625 0.609375 0.703125zm-0.71875 -9.068176q0.953125 0 0.953125 1.25q0 1.234375 -0.828125 1.609375q0.828125 1.015625 0.828125 2.234375q0 1.203125 -0.59375 1.90625q-0.59375 0.6875 -1.640625 0.6875q-1.0625 0 -1.734375 -0.8125q-0.671875 -0.8125 -0.671875 -2.578125q0 -0.6875 0.109375 -1.3125l-0.71875 0q-1.09375 0 -1.5625 0.359375q-0.46875 0.359375 -0.46875 0.984375q0 0.625 0.40625 1.0q0.40625 0.375 1.09375 0.375q0.0625 0.640625 -0.203125 1.078125q-0.265625 0.421875 -0.8125 0.421875q-0.7656269 0 -1.2500019 -0.796875q-0.5 -0.8125 -0.5 -2.078125q0 -3.296875 3.187502 -3.296875l4.28125 0l0.125 -1.03125zm-2.390625 2.984375q-0.203125 0.578125 -0.203125 1.21875q0 0.625 0.296875 1.046875q0.296875 0.40625 0.84375 0.40625q1.109375 0 1.109375 -1.140625q0 -0.828125 -0.453125 -1.53125l-1.59375 0zm-3.796875 -6.7109985q-0.5156269 -0.390625 -0.9531269 -1.09375q-0.453125 -0.71875 -0.453125 -1.234375q0 -0.53125 0.34375 -0.875q0.328125 -0.359375 1.1093769 -0.359375q0.765625 0 1.234375 0.53125q0.203125 0.28125 0.125 0.90625q-0.53125 0 -0.8125 0.109375q-0.28125 0.09375 -0.328125 0.203125q-0.0625 0.109375 -0.0625 0.296875q0 0.8125 1.046875 1.453125l4.515625 0l0.09375 -1.296875q1.046875 -0.109375 1.046875 0.71875l0 3.6875q0 0 -0.125 0q-0.890625 0 -0.953125 -0.703125l-0.03125 -0.46875l-5.71875 0l-0.078125 0.71875q-0.046875 0.484375 -0.9687519 0.484375l-0.359375 -2.890625l1.3281269 -0.140625l0 -0.046875zm-1.1718769 -9.323853l0 -2.859375l0.125 0q0.8750019 0 0.9375019 0.703125l0.03125 0.359375l2.203125 1.953125l3.640625 -2.625l0.09375 -1.078125q0.453125 -0.046875 0.75 0.203125q0.296875 0.234375 0.296875 0.59375l0 1.71875l-3.40625 2.390625l0.78125 0.71875l1.484375 0l0.09375 -1.15625q0.109375 -0.046875 0.4375 0.015625q0.609375 0.140625 0.609375 0.703125l0 3.5625l-0.125 0q-0.890625 0 -0.953125 -0.703125l-0.03125 -0.484375l-8.921877 0l-0.0625 0.625q-0.0625 0.65625 -1.0 0.59375l-0.34375 -3.15625l7.171877 0l-2.671875 -2.265625l-0.109375 0.90625q-0.09375191 0.0625 -0.4218769 -0.015625q-0.609375 -0.140625 -0.609375 -0.703125zm4.156252 -6.2354126l0.171875 0q1.296875 0 1.9375 -0.46875q0.625 -0.46875 0.625 -1.625q0 -1.171875 -0.875 -2.28125q0.234375 -0.328125 0.75 -0.328125q0.5 0 1.03125 0.890625q0.515625 0.890625 0.515625 2.21875q0 1.71875 -1.015625 2.671875q-1.015625 0.953125 -3.078125 0.953125q-2.078125 0 -3.265627 -1.03125q-1.1875 -1.03125 -1.1875 -2.84375q0 -1.53125 0.953125 -2.28125q0.9531269 -0.765625 2.531252 -0.734375l0.90625 0l0 4.859375zm-3.125 -1.65625q0 1.3125 2.015625 1.578125l0 -2.90625q-1.078125 0.03125 -1.546875 0.375q-0.46875 0.328125 -0.46875 0.953125zm0.09375 -7.0301514l4.421875 0q1.296875 0 1.296875 -0.828125q0 -0.609375 -0.15625 -1.015625q-0.15625 -0.40625 -0.546875 -0.875q0 -0.078125 0.21875 -0.203125q0.203125 -0.140625 0.4375 -0.140625q0.625 0 1.078125 0.890625q0.4375 0.875 0.4375 1.71875q0 0.828125 -0.234375 1.3125q-0.21875 0.46875 -0.671875 0.703125q-0.734375 0.390625 -1.953125 0.390625l-4.328125 0l0 1.328125q-1.1250019 0 -1.1250019 -0.78125l0 -0.546875l-2.046875 0l-0.21875 -1.953125l2.265625 0l0 -2.875q0.234375 -0.03125 0.546875 0.046875q0.5781269 0.140625 0.5781269 0.734375l0 2.09375zm6.953125 -11.598022l0 3.5625l-0.125 0q-0.890625 0 -0.953125 -0.703125l-0.03125 -0.5l-5.796875 0l-0.0625 0.625q-0.078125 0.65625 -1.0000019 0.59375l-0.34375 -3.15625l7.171877 0l0.09375 -1.140625q1.046875 -0.09375 1.046875 0.71875zm-10.218752 0.328125q0.484375 0 0.828125 0.34375q0.34375 0.328125 0.34375 0.84375q0 0.5 -0.34375 0.84375q-0.34375 0.34375 -0.828125 0.34375q-0.5 0 -0.84375 -0.34375q-0.34375 -0.34375 -0.34375 -0.84375q0 -0.5 0.34375 -0.84375q0.34375 -0.34375 0.84375 -0.34375zm10.218752 -10.713379l0 3.53125l-0.125 0q-0.890625 0 -0.953125 -0.703125l-0.03125 -0.453125l-3.9375 0q-0.921875 0 -1.296875 0.375q-0.375 0.359375 -0.375 1.015625q0 0.65625 0.171875 1.078125q0.171875 0.40625 0.5625 0.859375l4.84375 0l0.09375 -1.140625q1.046875 -0.09375 1.046875 0.71875l0 3.5625l-0.125 0q-0.890625 0 -0.953125 -0.703125l-0.03125 -0.5l-5.703125 0l-0.0625 0.625q-0.0625 0.65625 -1.0000019 0.59375l-0.34375 -2.890625l0.96875 -0.109375l0 -0.046875q-0.515625 -0.59375 -0.78125 -1.140625q-0.28125 -0.5625 -0.28125 -1.3125q0 -1.234375 0.828125 -2.078125q0.8125019 -0.859375 2.531252 -0.859375l3.8125 0l0.09375 -1.140625q1.046875 -0.09375 1.046875 0.71875zm-10.953127 -6.5939026l0 -3.625q0 -1.953125 0.75 -2.84375q0.75 -0.890625 1.796875 -0.890625q1.9531269 0 2.640627 2.0q0.171875 -1.125 0.765625 -1.796875q0.59375 -0.6875 1.65625 -0.6875q1.5625 0 2.453125 1.0625q0.890625 1.046875 0.890625 3.078125l0 4.3125q-0.984375 -0.015625 -1.0625 -0.640625l-0.0625 -0.515625l-8.718752 0l-0.09375 1.171875q-0.421875 0.046875 -0.71875 -0.15625q-0.296875 -0.203125 -0.296875 -0.46875zm1.015625 -2.546875l3.828127 0l0 -0.328125q0 -1.28125 -0.515625 -1.84375q-0.5156269 -0.5625 -1.5156269 -0.5625q-1.015625 0 -1.453125 0.578125q-0.4375 0.578125 -0.375 1.5l0.03125 0.609375l0 0.046875zm6.812502 -3.25q-2.0625 0 -2.03125 2.71875l0 0.53125l4.0 0l0.015625 -0.765625q0.015625 -2.484375 -1.984375 -2.484375zm3.125 -6.4720154l0 3.5625l-0.125 0q-0.890625 0 -0.953125 -0.703125l-0.03125 -0.5l-5.796875 0l-0.0625 0.625q-0.078125 0.65625 -1.0000019 0.59375l-0.34375 -3.15625l7.171877 0l0.09375 -1.140625q1.046875 -0.09375 1.046875 0.71875zm-10.218752 0.328125q0.484375 0 0.828125 0.34375q0.34375 0.328125 0.34375 0.84375q0 0.5 -0.34375 0.84375q-0.34375 0.34375 -0.828125 0.34375q-0.5 0 -0.84375 -0.34375q-0.34375 -0.34375 -0.34375 -0.84375q0 -0.5 0.34375 -0.84375q0.34375 -0.34375 0.84375 -0.34375zm10.218752 -5.432129l0 3.5625l-0.125 0q-0.890625 0 -0.953125 -0.703125l-0.03125 -0.5l-8.921877 0l-0.0625 0.625q-0.0625 0.65625 -1.0 0.59375l-0.34375 -3.15625l10.296877 0l0.09375 -1.140625q1.046875 -0.09375 1.046875 0.71875zm0 -5.104004l0 3.5625l-0.125 0q-0.890625 0 -0.953125 -0.703125l-0.03125 -0.5l-8.921877 0l-0.0625 0.625q-0.0625 0.65625 -1.0 0.59375l-0.34375 -3.15625l10.296877 0l0.09375 -1.140625q1.046875 -0.09375 1.046875 0.71875zm0 -5.104004l0 3.5625l-0.125 0q-0.890625 0 -0.953125 -0.703125l-0.03125 -0.5l-5.796875 0l-0.0625 0.625q-0.078125 0.65625 -1.0000019 0.59375l-0.34375 -3.15625l7.171877 0l0.09375 -1.140625q1.046875 -0.09375 1.046875 0.71875zm-10.218752 0.328125q0.484375 0 0.828125 0.34375q0.34375 0.328125 0.34375 0.84375q0 0.5 -0.34375 0.84375q-0.34375 0.34375 -0.828125 0.34375q-0.5 0 -0.84375 -0.34375q-0.34375 -0.34375 -0.34375 -0.84375q0 -0.5 0.34375 -0.84375q0.34375 -0.34375 0.84375 -0.34375zm3.984377 -6.979004q-0.8593769 0.453125 -0.8593769 1.296875q0 0.828125 0.8437519 1.28125q0.828125 0.453125 2.265625 0.453125q1.421875 0 2.21875 -0.453125q0.796875 -0.453125 0.796875 -1.28125q0 -0.84375 -0.78125 -1.296875q-0.78125 -0.453125 -2.203125 -0.453125q-1.4375 0 -2.28125 0.453125zm2.328125 5.0625q-2.046875 0 -3.218752 -1.015625q-1.1875 -1.015625 -1.1875 -2.8125q0 -1.8125 1.140625 -2.765625q1.1250019 -0.953125 3.140627 -0.953125q2.0 0 3.140625 1.03125q1.125 1.015625 1.125 2.84375q0 1.828125 -1.046875 2.75q-1.0625 0.921875 -3.09375 0.921875zm3.90625 -17.468872l0 3.53125l-0.125 0q-0.890625 0 -0.953125 -0.703125l-0.03125 -0.453125l-3.9375 0q-0.921875 0 -1.296875 0.375q-0.375 0.359375 -0.375 1.015625q0 0.65625 0.171875 1.078125q0.171875 0.40625 0.5625 0.859375l4.84375 0l0.09375 -1.140625q1.046875 -0.09375 1.046875 0.71875l0 3.5625l-0.125 0q-0.890625 0 -0.953125 -0.703125l-0.03125 -0.5l-5.703125 0l-0.0625 0.625q-0.0625 0.65625 -1.0000019 0.59375l-0.34375 -2.890625l0.96875 -0.109375l0 -0.046875q-0.515625 -0.59375 -0.78125 -1.140625q-0.28125 -0.5625 -0.28125 -1.3125q0 -1.234375 0.828125 -2.078125q0.8125019 -0.859375 2.531252 -0.859375l3.8125 0l0.09375 -1.140625q1.046875 -0.09375 1.046875 0.71875zm-7.734377 -6.759033q0.359375 -0.390625 0.9218769 -0.390625q0.5625 0 0.875 0.359375q0.296875 0.359375 0.203125 0.921875q-0.578125 0 -0.984375 0.46875q-0.4218769 0.453125 -0.4218769 1.03125q0 0.5625 0.2187519 0.875q0.21875 0.296875 0.578125 0.296875q0.34375 0 0.625 -0.4375q0.28125 -0.453125 0.609375 -1.25q0.3125 -0.8125 0.5 -1.15625q0.171875 -0.359375 0.484375 -0.765625q0.578125 -0.765625 1.703125 -0.765625q1.125 0 1.890625 0.921875q0.765625 0.90625 0.765625 2.421875q0 1.125 -0.40625 1.96875q-0.421875 0.828125 -1.25 0.828125q-0.5625 0 -0.875 -0.390625q-0.3125 -0.40625 -0.3125 -0.953125q1.640625 -0.203125 1.640625 -1.84375q0 -1.328125 -0.890625 -1.328125q-0.578125 0 -0.921875 0.703125q-0.203125 0.375 -0.40625 0.921875q-0.21875 0.546875 -0.375 0.859375q-0.15625 0.3125 -0.390625 0.6875q-0.234375 0.359375 -0.5 0.59375q-0.59375 0.53125 -1.4375 0.53125q-1.15625 0 -1.7812519 -0.921875q-0.640625 -0.9375 -0.640625 -2.234375q0 -1.296875 0.578125 -1.953125zm1.5000019 -11.12265q-0.8593769 0.453125 -0.8593769 1.296875q0 0.828125 0.8437519 1.28125q0.828125 0.453125 2.265625 0.453125q1.421875 0 2.21875 -0.453125q0.796875 -0.453125 0.796875 -1.28125q0 -0.84375 -0.78125 -1.296875q-0.78125 -0.453125 -2.203125 -0.453125q-1.4375 0 -2.28125 0.453125zm2.328125 5.0625q-2.046875 0 -3.218752 -1.015625q-1.1875 -1.015625 -1.1875 -2.8125q0 -1.8125 1.140625 -2.765625q1.1250019 -0.953125 3.140627 -0.953125q2.0 0 3.140625 1.03125q1.125 1.015625 1.125 2.84375q0 1.828125 -1.046875 2.75q-1.0625 0.921875 -3.09375 0.921875zm-4.171877 -9.765747l-0.4375 0q-1.34375 0 -2.234375 -0.84375q-0.90625 -0.859375 -0.9375 -2.234375q-0.03125 -1.796875 1.09375 -1.796875q0.546875 0 0.8125 0.359375q0.25 0.34375 0.25 0.90625q-1.03125 0 -1.03125 0.78125q0 0.890625 1.984375 0.890625l0.5 0l0 -2.0625q1.1250019 -0.09375 1.1250019 0.75l0 1.3125l5.8125 0l0 -0.015625l0.09375 -1.625q0.109375 -0.046875 0.4375 0.015625q0.609375 0.140625 0.609375 0.703125l0 4.03125l-0.125 0q-0.890625 0 -0.953125 -0.703125l-0.03125 -0.453125l-5.84375 -0.015625l0 1.140625q-1.1250019 0 -1.1250019 -0.78125l0 -0.359375zm-2.875 -16.59201l0 -2.890625q0 0 0.125 0q0.875 0 0.9375 0.703125l0.03125 0.46875l5.218752 0q2.53125 0 3.703125 1.015625q1.171875 1.015625 1.171875 2.9999695q0 1.984375 -1.109375 3.015625q-1.109375 1.015625 -3.78125 1.015625l-5.171877 0l-0.09375 1.15625q-0.09375 0.046875 -0.4375 -0.015625q-0.59375 -0.15625 -0.59375 -0.703125l0 -3.609375l0.125 0q0.875 0 0.9375 0.703125l0.03125 0.46875l5.453127 0q1.765625 0 2.5625 -0.484375q0.796875 -0.5 0.796875 -1.75q0 -2.5312195 -3.15625 -2.5312195l-5.625002 0.015625l-0.09375 1.1405945q-1.03125 0.09375 -1.03125 -0.7187195zm0.546875 -10.157166q0.46875 -0.453125 1.15625 -0.453125q0.6875 0 1.046875 0.421875q0.34375 0.40625 0.25 1.0625q-2.03125 0 -2.03125 1.78125q0 0.78125 0.359375 1.265625q0.359375 0.484375 0.984375 0.484375q0.484375 0 0.71875 -0.21875q0.21875 -0.21875 0.328125 -0.328125q0.109375 -0.125 0.28125 -0.4375q0.15625 -0.3125 0.21875 -0.4375q0.06250191 -0.140625 0.2500019 -0.5625q0.1875 -0.421875 0.25 -0.578125q0.71875 -1.625 1.375 -2.28125q0.65625 -0.671875 1.828125 -0.671875q1.609375 0 2.625 1.140625q1.0 1.125 1.0 3.0625q0 1.953125 -0.875 2.9375q-0.5 0.515625 -1.15625 0.515625q-0.671875 0 -1.046875 -0.421875q-0.390625 -0.421875 -0.390625 -1.265625q1.171875 0 1.71875 -0.484375q0.546875 -0.5 0.546875 -1.546875q0 -1.0625 -0.484375 -1.671875q-0.5 -0.609375 -1.234375 -0.609375q-0.734375 0 -1.171875 0.578125q-0.453125 0.578125 -0.875 1.546875q-0.421875 0.953125 -0.546875 1.265625q-0.140625 0.296875 -0.453125 0.796875q-0.3125 0.484375 -0.609375 0.71875q-0.7656269 0.625 -1.7500019 0.625q-1.515625 0 -2.3125 -1.125q-0.796875 -1.125 -0.796875 -2.703125q0 -1.578125 0.796875 -2.40625zm-0.546875 -7.19104l0 -3.75q0 -5.59375 5.421877 -5.59375q2.6875 0 4.109375 1.453125q1.421875 1.453125 1.421875 4.0625l0 4.65625q-0.390625 0.046875 -0.703125 -0.078125q-0.328125 -0.140625 -0.359375 -0.484375l-0.0625 -0.578125l-8.703127 0l0 0.015625l-0.09375 1.125q-0.5625 0.015625 -0.796875 -0.15625q-0.234375 -0.171875 -0.234375 -0.671875zm9.843752 -3.34375q0.140625 -2.0625 -0.90625 -2.984375q-1.046875 -0.9375 -3.453125 -0.9375q-2.406252 0 -3.437502 0.953125q-1.03125 0.953125 -0.953125 3.109375l0.03125 0.890625l8.656252 0l0.0625 -1.03125zm-5.125 -12.188904q-0.8593769 0.453125 -0.8593769 1.296875q0 0.828125 0.8437519 1.28125q0.828125 0.453125 2.265625 0.453125q1.421875 0 2.21875 -0.453125q0.796875 -0.453125 0.796875 -1.28125q0 -0.84375 -0.78125 -1.296875q-0.78125 -0.453125 -2.203125 -0.453125q-1.4375 0 -2.28125 0.453125zm2.328125 5.0625q-2.046875 0 -3.218752 -1.015625q-1.1875 -1.015625 -1.1875 -2.8125q0 -1.8125 1.140625 -2.765625q1.1250019 -0.953125 3.140627 -0.953125q2.0 0 3.140625 1.03125q1.125 1.015625 1.125 2.84375q0 1.828125 -1.046875 2.75q-1.0625 0.921875 -3.09375 0.921875zm3.90625 -12.187622l0 3.5625l-0.125 0q-0.890625 0 -0.953125 -0.703125l-0.03125 -0.5l-8.921877 0l-0.0625 0.625q-0.0625 0.65625 -1.0 0.59375l-0.34375 -3.15625l10.296877 0l0.09375 -1.140625q1.046875 -0.09375 1.046875 0.71875zm0 -5.104004l0 3.5625l-0.125 0q-0.890625 0 -0.953125 -0.703125l-0.03125 -0.5l-8.921877 0l-0.0625 0.625q-0.0625 0.65625 -1.0 0.59375l-0.34375 -3.15625l10.296877 0l0.09375 -1.140625q1.046875 -0.09375 1.046875 0.71875zm-0.71875 -9.197754q0.953125 0 0.953125 1.25q0 1.234375 -0.828125 1.609375q0.828125 1.015625 0.828125 2.234375q0 1.203125 -0.59375 1.90625q-0.59375 0.6875 -1.640625 0.6875q-1.0625 0 -1.734375 -0.8125q-0.671875 -0.8125 -0.671875 -2.578125q0 -0.6875 0.109375 -1.3125l-0.71875 0q-1.09375 0 -1.5625 0.359375q-0.46875 0.359375 -0.46875 0.984375q0 0.625 0.40625 1.0q0.40625 0.375 1.09375 0.375q0.0625 0.640625 -0.203125 1.078125q-0.265625 0.421875 -0.8125 0.421875q-0.7656269 0 -1.2500019 -0.796875q-0.5 -0.8125 -0.5 -2.078125q0 -3.296875 3.187502 -3.296875l4.28125 0l0.125 -1.03125zm-2.390625 2.984375q-0.203125 0.578125 -0.203125 1.21875q0 0.625 0.296875 1.046875q0.296875 0.40625 0.84375 0.40625q1.109375 0 1.109375 -1.140625q0 -0.828125 -0.453125 -1.53125l-1.59375 0zm-3.796875 -6.7109985q-0.5156269 -0.390625 -0.9531269 -1.09375q-0.453125 -0.71875 -0.453125 -1.234375q0 -0.53125 0.34375 -0.875q0.328125 -0.359375 1.1093769 -0.359375q0.765625 0 1.234375 0.53125q0.203125 0.28125 0.125 0.90625q-0.53125 0 -0.8125 0.109375q-0.28125 0.09375 -0.328125 0.203125q-0.0625 0.109375 -0.0625 0.296875q0 0.8125 1.046875 1.453125l4.515625 0l0.09375 -1.296875q1.046875 -0.109375 1.046875 0.71875l0 3.6875q0 0 -0.125 0q-0.890625 0 -0.953125 -0.703125l-0.03125 -0.46875l-5.71875 0l-0.078125 0.71875q-0.046875 0.484375 -0.9687519 0.484375l-0.359375 -2.890625l1.3281269 -0.140625l0 -0.046875zm-0.8281269 -9.323883q0.359375 -0.390625 0.9218769 -0.390625q0.5625 0 0.875 0.359375q0.296875 0.359375 0.203125 0.921875q-0.578125 0 -0.984375 0.46875q-0.4218769 0.453125 -0.4218769 1.03125q0 0.5625 0.2187519 0.875q0.21875 0.296875 0.578125 0.296875q0.34375 0 0.625 -0.4375q0.28125 -0.453125 0.609375 -1.25q0.3125 -0.8125 0.5 -1.15625q0.171875 -0.359375 0.484375 -0.765625q0.578125 -0.765625 1.703125 -0.765625q1.125 0 1.890625 0.921875q0.765625 0.90625 0.765625 2.421875q0 1.125 -0.40625 1.96875q-0.421875 0.828125 -1.25 0.828125q-0.5625 0 -0.875 -0.390625q-0.3125 -0.40625 -0.3125 -0.953125q1.640625 -0.203125 1.640625 -1.84375q0 -1.328125 -0.890625 -1.328125q-0.578125 0 -0.921875 0.703125q-0.203125 0.375 -0.40625 0.921875q-0.21875 0.546875 -0.375 0.859375q-0.15625 0.3125 -0.390625 0.6875q-0.234375 0.359375 -0.5 0.59375q-0.59375 0.53125 -1.4375 0.53125q-1.15625 0 -1.7812519 -0.921875q-0.640625 -0.9375 -0.640625 -2.234375q0 -1.296875 0.578125 -1.953125zm-3.21875 -6.982025l0 -3.75q0 -5.59375 5.421877 -5.59375q2.6875 0 4.109375 1.453125q1.421875 1.453125 1.421875 4.0625l0 4.65625q-0.390625 0.046875 -0.703125 -0.078125q-0.328125 -0.140625 -0.359375 -0.484375l-0.0625 -0.578125l-8.703127 0l0 0.015625l-0.09375 1.125q-0.5625 0.015625 -0.796875 -0.15625q-0.234375 -0.171875 -0.234375 -0.671875zm9.843752 -3.34375q0.140625 -2.0625 -0.90625 -2.984375q-1.046875 -0.9375 -3.453125 -0.9375q-2.406252 0 -3.437502 0.953125q-1.03125 0.953125 -0.953125 3.109375l0.03125 0.890625l8.656252 0l0.0625 -1.03125zm-5.125 -12.188904q-0.8593769 0.453125 -0.8593769 1.296875q0 0.828125 0.8437519 1.28125q0.828125 0.453125 2.265625 0.453125q1.421875 0 2.21875 -0.453125q0.796875 -0.453125 0.796875 -1.28125q0 -0.84375 -0.78125 -1.296875q-0.78125 -0.453125 -2.203125 -0.453125q-1.4375 0 -2.28125 0.453125zm2.328125 5.0625q-2.046875 0 -3.218752 -1.015625q-1.1875 -1.015625 -1.1875 -2.8125q0 -1.8125 1.140625 -2.765625q1.1250019 -0.953125 3.140627 -0.953125q2.0 0 3.140625 1.03125q1.125 1.015625 1.125 2.84375q0 1.828125 -1.046875 2.75q-1.0625 0.921875 -3.09375 0.921875zm3.90625 -12.187622l0 3.5625l-0.125 0q-0.890625 0 -0.953125 -0.703125l-0.03125 -0.5l-8.921877 0l-0.0625 0.625q-0.0625 0.65625 -1.0 0.59375l-0.34375 -3.15625l10.296877 0l0.09375 -1.140625q1.046875 -0.09375 1.046875 0.71875zm0 -5.104004l0 3.5625l-0.125 0q-0.890625 0 -0.953125 -0.703125l-0.03125 -0.5l-8.921877 0l-0.0625 0.625q-0.0625 0.65625 -1.0 0.59375l-0.34375 -3.15625l10.296877 0l0.09375 -1.140625q1.046875 -0.09375 1.046875 0.71875zm-0.71875 -9.197754q0.953125 0 0.953125 1.25q0 1.234375 -0.828125 1.609375q0.828125 1.015625 0.828125 2.234375q0 1.203125 -0.59375 1.90625q-0.59375 0.6875 -1.640625 0.6875q-1.0625 0 -1.734375 -0.8125q-0.671875 -0.8125 -0.671875 -2.578125q0 -0.6875 0.109375 -1.3125l-0.71875 0q-1.09375 0 -1.5625 0.359375q-0.46875 0.359375 -0.46875 0.984375q0 0.625 0.40625 1.0q0.40625 0.375 1.09375 0.375q0.0625 0.640625 -0.203125 1.078125q-0.265625 0.421875 -0.8125 0.421875q-0.7656269 0 -1.2500019 -0.796875q-0.5 -0.8125 -0.5 -2.078125q0 -3.296875 3.187502 -3.296875l4.28125 0l0.125 -1.03125zm-2.390625 2.984375q-0.203125 0.578125 -0.203125 1.21875q0 0.625 0.296875 1.046875q0.296875 0.40625 0.84375 0.40625q1.109375 0 1.109375 -1.140625q0 -0.828125 -0.453125 -1.53125l-1.59375 0zm-3.796875 -6.7109985q-0.5156269 -0.390625 -0.9531269 -1.09375q-0.453125 -0.71875 -0.453125 -1.234375q0 -0.53125 0.34375 -0.875q0.328125 -0.359375 1.1093769 -0.359375q0.765625 0 1.234375 0.53125q0.203125 0.28125 0.125 0.90625q-0.53125 0 -0.8125 0.109375q-0.28125 0.09375 -0.328125 0.203125q-0.0625 0.109375 -0.0625 0.296875q0 0.8125 1.046875 1.453125l4.515625 0l0.09375 -1.296875q1.046875 -0.109375 1.046875 0.71875l0 3.6875q0 0 -0.125 0q-0.890625 0 -0.953125 -0.703125l-0.03125 -0.46875l-5.71875 0l-0.078125 0.71875q-0.046875 0.484375 -0.9687519 0.484375l-0.359375 -2.890625l1.3281269 -0.140625l0 -0.046875zm-0.8281269 -9.323883q0.359375 -0.390625 0.9218769 -0.390625q0.5625 0 0.875 0.359375q0.296875 0.359375 0.203125 0.921875q-0.578125 0 -0.984375 0.46875q-0.4218769 0.453125 -0.4218769 1.03125q0 0.5625 0.2187519 0.875q0.21875 0.296875 0.578125 0.296875q0.34375 0 0.625 -0.4375q0.28125 -0.453125 0.609375 -1.25q0.3125 -0.8125 0.5 -1.15625q0.171875 -0.359375 0.484375 -0.765625q0.578125 -0.765625 1.703125 -0.765625q1.125 0 1.890625 0.921875q0.765625 0.90625 0.765625 2.421875q0 1.125 -0.40625 1.96875q-0.421875 0.828125 -1.25 0.828125q-0.5625 0 -0.875 -0.390625q-0.3125 -0.40625 -0.3125 -0.953125q1.640625 -0.203125 1.640625 -1.84375q0 -1.328125 -0.890625 -1.328125q-0.578125 0 -0.921875 0.703125q-0.203125 0.375 -0.40625 0.921875q-0.21875 0.546875 -0.375 0.859375q-0.15625 0.3125 -0.390625 0.6875q-0.234375 0.359375 -0.5 0.59375q-0.59375 0.53125 -1.4375 0.53125q-1.15625 0 -1.7812519 -0.921875q-0.640625 -0.9375 -0.640625 -2.234375q0 -1.296875 0.578125 -1.953125z" fill-rule="nonzero"></path><path fill="#000000" fill-opacity="0.0" d="m135.18898 413.7454l63.055115 0l0 34.33072l-63.055115 0z" fill-rule="evenodd"></path><path fill="#000000" d="m150.94333 433.9729q0 -1.3125 1.203125 -2.203125q1.21875 -0.90625 3.109375 -0.90625q1.90625 0 3.0625 1.046875q1.15625 1.03125 1.15625 2.78125q0 2.640625 -2.6875 5.765625q-0.9375 1.078125 -1.4375 1.59375q-0.484375 0.5 -1.515625 1.46875q-1.015625 0.953125 -1.140625 1.0625l5.796875 -0.0625l0.203125 -1.46875q0.078125 -0.5 0.484375 -0.6875q0.40625 -0.203125 0.65625 -0.0625l0 3.484375l-9.09375 0q-0.203125 -0.578125 -0.15625 -0.859375q1.0625 -0.9375 2.625 -2.578125q1.578125 -1.65625 1.953125 -2.140625q0.390625 -0.5 0.96875 -1.28125q0.578125 -0.796875 0.84375 -1.390625q0.71875 -1.546875 0.71875 -2.734375q0 -1.1875 -0.703125 -1.9375q-0.6875 -0.765625 -1.984375 -0.765625q-1.296875 0 -1.984375 0.84375q-0.6875 0.84375 -0.6875 2.359375q-0.5625 0.015625 -0.984375 -0.296875q-0.40625 -0.3125 -0.40625 -1.03125zm10.94397 0q0 -1.3125 1.203125 -2.203125q1.21875 -0.90625 3.109375 -0.90625q1.90625 0 3.0625 1.046875q1.15625 1.03125 1.15625 2.78125q0 2.640625 -2.6875 5.765625q-0.9375 1.078125 -1.4375 1.59375q-0.484375 0.5 -1.515625 1.46875q-1.015625 0.953125 -1.140625 1.0625l5.796875 -0.0625l0.203125 -1.46875q0.078125 -0.5 0.484375 -0.6875q0.40625 -0.203125 0.65625 -0.0625l0 3.484375l-9.09375 0q-0.203125 -0.578125 -0.15625 -0.859375q1.0625 -0.9375 2.625 -2.578125q1.578125 -1.65625 1.953125 -2.140625q0.390625 -0.5 0.96875 -1.28125q0.578125 -0.796875 0.84375 -1.390625q0.71875 -1.546875 0.71875 -2.734375q0 -1.1875 -0.703125 -1.9375q-0.6875 -0.765625 -1.984375 -0.765625q-1.296875 0 -1.984375 0.84375q-0.6875 0.84375 -0.6875 2.359375q-0.5625 0.015625 -0.984375 -0.296875q-0.40625 -0.3125 -0.40625 -1.03125zm19.25647 4.625q0 -3.296875 -0.84375 -4.890625q-0.84375 -1.609375 -2.640625 -1.609375q-1.78125 0 -2.640625 1.65625q-0.84375 1.640625 -0.84375 4.90625q0 3.265625 0.84375 4.75q0.859375 1.484375 2.65625 1.484375q1.8125 0 2.640625 -1.5q0.828125 -1.5 0.828125 -4.796875zm-3.46875 -7.734375q2.671875 -0.03125 3.921875 1.875q1.265625 1.90625 1.265625 5.8125q0 3.890625 -1.28125 5.75q-1.28125 1.84375 -3.921875 1.84375q-2.640625 0 -3.921875 -1.84375q-1.28125 -1.859375 -1.28125 -5.71875q0 -3.859375 1.28125 -5.78125q1.28125 -1.921875 3.9375 -1.9375z" fill-rule="nonzero"></path><path fill="#000000" fill-opacity="0.0" d="m54.56418 252.99222l54.677162 0l0 22.677155l-54.677162 0z" fill-rule="evenodd"></path><path fill="#000000" d="m69.22043 276.15723q0.703125 -0.34375 1.171875 -1.0q0.46875 -0.65625 0.46875 -1.625q0 -0.984375 -0.609375 -1.59375q-0.609375 -0.609375 -1.6875 -0.609375q-1.0625 0 -1.625 0.640625q-0.5625 0.625 -0.59375 1.703125q-0.6875 -0.046875 -1.046875 -0.390625q-0.359375 -0.34375 -0.296875 -0.890625q0.078125 -0.9375 1.109375 -1.609375q1.046875 -0.671875 2.6875 -0.671875q1.65625 0 2.75 0.90625q1.109375 0.90625 1.109375 2.421875q0 1.125 -0.71875 2.109375q-0.71875 0.96875 -2.1875 1.546875q1.65625 0.25 2.625 1.28125q0.984375 1.015625 0.984375 2.546875q0 1.921875 -1.484375 3.203125q-1.46875 1.265625 -3.796875 1.265625q-1.609375 0 -2.65625 -0.609375q-1.046875 -0.609375 -1.046875 -1.59375q0 -0.984375 1.0625 -1.203125q0.1875 1.0 0.890625 1.609375q0.71875 0.59375 2.0625 0.59375q1.34375 0 2.265625 -0.875q0.921875 -0.890625 0.875 -2.203125q-0.03125 -1.3125 -0.828125 -2.015625q-0.78125 -0.703125 -1.796875 -0.890625q-1.0 -0.203125 -2.203125 -0.109375l-0.015625 -1.3125q1.21875 0 2.53125 -0.625zm9.971222 -0.171875q1.96875 0 3.203125 1.0625q1.25 1.046875 1.25 3.265625q0 2.21875 -1.4375 3.65625q-1.4375 1.421875 -3.734375 1.421875q-1.703125 0 -2.6875 -0.546875q-0.96875 -0.5625 -0.96875 -1.5q0 -0.515625 0.34375 -0.75q0.359375 -0.25 0.765625 -0.28125q0.265625 1.875 2.640625 1.875q1.484375 0 2.390625 -1.03125q0.921875 -1.03125 0.921875 -2.6875q0 -1.671875 -0.9375 -2.375q-0.9375 -0.71875 -2.28125 -0.71875q-1.34375 0 -2.5 0.59375l-0.3125 -0.15625l0.34375 -7.5l6.375 0.03125l-0.09375 1.421875l-5.109375 0l-0.171875 4.484375q0.984375 -0.265625 2.0 -0.265625zm14.543716 1.859375q0 -3.296875 -0.84375 -4.890625q-0.84375 -1.609375 -2.640625 -1.609375q-1.78125 0 -2.640625 1.65625q-0.84375 1.640625 -0.84375 4.90625q0 3.265625 0.84375 4.75q0.859375 1.484375 2.65625 1.484375q1.8125 0 2.640625 -1.5q0.828125 -1.5 0.828125 -4.796875zm-3.46875 -7.734375q2.671875 -0.03125 3.921875 1.875q1.265625 1.90625 1.265625 5.8125q0 3.890625 -1.28125 5.75q-1.28125 1.84375 -3.921875 1.84375q-2.640625 0 -3.921875 -1.84375q-1.28125 -1.859375 -1.28125 -5.71875q0 -3.859375 1.28125 -5.78125q1.28125 -1.921875 3.9375 -1.9375z" fill-rule="nonzero"></path><path fill="#000000" fill-opacity="0.0" d="m54.561554 458.48035l54.677162 0l0 22.677185l-54.677162 0z" fill-rule="evenodd"></path><path fill="#000000" d="m64.780304 478.70786q0 -1.3125 1.203125 -2.203125q1.21875 -0.90625 3.109375 -0.90625q1.90625 0 3.0625 1.046875q1.15625 1.03125 1.15625 2.78125q0 2.640625 -2.6875 5.765625q-0.9375 1.078125 -1.4375 1.59375q-0.484375 0.5 -1.515625 1.46875q-1.015625 0.953125 -1.140625 1.0625l5.796875 -0.0625l0.203125 -1.46875q0.078125 -0.5 0.484375 -0.6875q0.40625 -0.203125 0.65625 -0.0625l0 3.484375l-9.09375 0q-0.203125 -0.578125 -0.15625 -0.859375q1.0625 -0.9375 2.625 -2.578125q1.578125 -1.65625 1.953125 -2.140625q0.390625 -0.5 0.96875 -1.28125q0.578125 -0.796875 0.84375 -1.390625q0.71875 -1.546875 0.71875 -2.734375q0 -1.1875 -0.703125 -1.9375q-0.6875 -0.765625 -1.984375 -0.765625q-1.296875 0 -1.984375 0.84375q-0.6875 0.84375 -0.6875 2.359375q-0.5625 0.015625 -0.984375 -0.296875q-0.40625 -0.3125 -0.40625 -1.03125zm19.25647 4.625q0 -3.296875 -0.84375 -4.890625q-0.84375 -1.609375 -2.640625 -1.609375q-1.78125 0 -2.640625 1.65625q-0.84375 1.640625 -0.84375 4.90625q0 3.265625 0.84375 4.75q0.859375 1.484375 2.65625 1.484375q1.8125 0 2.640625 -1.5q0.828125 -1.5 0.828125 -4.796875zm-3.46875 -7.734375q2.671875 -0.03125 3.921875 1.875q1.265625 1.90625 1.265625 5.8125q0 3.890625 -1.28125 5.75q-1.28125 1.84375 -3.921875 1.84375q-2.640625 0 -3.921875 -1.84375q-1.28125 -1.859375 -1.28125 -5.71875q0 -3.859375 1.28125 -5.78125q1.28125 -1.921875 3.9375 -1.9375zm15.564713 7.734375q0 -3.296875 -0.84375 -4.890625q-0.84375 -1.609375 -2.640625 -1.609375q-1.78125 0 -2.640625 1.65625q-0.84375 1.640625 -0.84375 4.90625q0 3.265625 0.84375 4.75q0.859375 1.484375 2.65625 1.484375q1.8125 0 2.640625 -1.5q0.828125 -1.5 0.828125 -4.796875zm-3.46875 -7.734375q2.671875 -0.03125 3.921875 1.875q1.265625 1.90625 1.265625 5.8125q0 3.890625 -1.28125 5.75q-1.28125 1.84375 -3.921875 1.84375q-2.640625 0 -3.921875 -1.84375q-1.28125 -1.859375 -1.28125 -5.71875q0 -3.859375 1.28125 -5.78125q1.28125 -1.921875 3.9375 -1.9375z" fill-rule="nonzero"></path><path fill="#000000" fill-opacity="0.0" d="m51.056942 366.77658l54.677166 0l0 22.677155l-54.677166 0z" fill-rule="evenodd"></path><path fill="#000000" d="m61.275692 409.0041q0 -1.3125 1.203125 -2.203125q1.21875 -0.90625 3.1093712 -0.90625q1.90625 0 3.0625 1.046875q1.15625 1.03125 1.15625 2.78125q0 2.640625 -2.6875 5.765625q-0.9375 1.078125 -1.4375 1.59375q-0.484375 0.5 -1.515625 1.46875q-1.0156212 0.953125 -1.1406212 1.0625l5.796871 -0.0625l0.203125 -1.46875q0.078125 -0.5 0.484375 -0.6875q0.40625 -0.203125 0.65625 -0.0625l0 3.484375l-9.093746 0q-0.203125 -0.578125 -0.15625 -0.859375q1.0625 -0.9375 2.625 -2.578125q1.5781212 -1.65625 1.9531212 -2.140625q0.390625 -0.5 0.96875 -1.28125q0.578125 -0.796875 0.84375 -1.390625q0.71875 -1.546875 0.71875 -2.734375q0 -1.1875 -0.703125 -1.9375q-0.6875 -0.765625 -1.984375 -0.765625q-1.296875 0 -1.9843712 0.84375q-0.6875 0.84375 -0.6875 2.359375q-0.5625 0.015625 -0.984375 -0.296875q-0.40625 -0.3125 -0.40625 -1.03125zm14.912716 2.765625q1.96875 0 3.203125 1.0625q1.25 1.046875 1.25 3.265625q0 2.21875 -1.4375 3.65625q-1.4375 1.421875 -3.734375 1.421875q-1.703125 0 -2.6875 -0.546875q-0.96875 -0.5625 -0.96875 -1.5q0 -0.515625 0.34375 -0.75q0.359375 -0.25 0.765625 -0.28125q0.265625 1.875 2.640625 1.875q1.484375 0 2.390625 -1.03125q0.921875 -1.03125 0.921875 -2.6875q0 -1.671875 -0.9375 -2.375q-0.9375 -0.71875 -2.28125 -0.71875q-1.34375 0 -2.5 0.59375l-0.3125 -0.15625l0.34375 -7.5l6.375 0.03125l-0.09375 1.421875l-5.109375 0l-0.171875 4.484375q0.984375 -0.265625 2.0 -0.265625zm14.543716 1.859375q0 -3.296875 -0.84375 -4.890625q-0.84375 -1.609375 -2.640625 -1.609375q-1.78125 0 -2.640625 1.65625q-0.84375 1.640625 -0.84375 4.90625q0 3.265625 0.84375 4.75q0.859375 1.484375 2.65625 1.484375q1.8125 0 2.640625 -1.5q0.828125 -1.5 0.828125 -4.796875zm-3.46875 -7.734375q2.671875 -0.03125 3.921875 1.875q1.265625 1.90625 1.265625 5.8125q0 3.890625 -1.28125 5.75q-1.28125 1.84375 -3.921875 1.84375q-2.640625 0 -3.921875 -1.84375q-1.28125 -1.859375 -1.28125 -5.71875q0 -3.859375 1.28125 -5.78125q1.28125 -1.921875 3.9375 -1.9375z" fill-rule="nonzero"></path><path fill="#000000" fill-opacity="0.0" d="m54.561554 324.10693l54.677162 0l0 22.677155l-54.677162 0z" fill-rule="evenodd"></path><path fill="#000000" d="m69.217804 347.27194q0.703125 -0.34375 1.171875 -1.0q0.46875 -0.65625 0.46875 -1.625q0 -0.984375 -0.609375 -1.59375q-0.609375 -0.609375 -1.6875 -0.609375q-1.0625 0 -1.625 0.640625q-0.5625 0.625 -0.59375 1.703125q-0.6875 -0.046875 -1.046875 -0.390625q-0.359375 -0.34375 -0.296875 -0.890625q0.078125 -0.9375 1.109375 -1.609375q1.046875 -0.671875 2.6875 -0.671875q1.65625 0 2.75 0.90625q1.109375 0.90625 1.109375 2.421875q0 1.125 -0.71875 2.109375q-0.71875 0.96875 -2.1875 1.546875q1.65625 0.25 2.625 1.28125q0.984375 1.015625 0.984375 2.546875q0 1.921875 -1.484375 3.203125q-1.46875 1.265625 -3.796875 1.265625q-1.609375 0 -2.65625 -0.609375q-1.046875 -0.609375 -1.046875 -1.59375q0 -0.984375 1.0625 -1.203125q0.1875 1.0 0.890625 1.609375q0.71875 0.59375 2.0625 0.59375q1.34375 0 2.265625 -0.875q0.921875 -0.890625 0.875 -2.203125q-0.03125 -1.3125 -0.828125 -2.015625q-0.78125 -0.703125 -1.796875 -0.890625q-1.0 -0.203125 -2.203125 -0.109375l-0.015625 -1.3125q1.21875 0 2.53125 -0.625zm14.314972 1.6875q0 -3.296875 -0.84375 -4.890625q-0.84375 -1.609375 -2.640625 -1.609375q-1.78125 0 -2.640625 1.65625q-0.84375 1.640625 -0.84375 4.90625q0 3.265625 0.84375 4.75q0.859375 1.484375 2.65625 1.484375q1.8125 0 2.640625 -1.5q0.828125 -1.5 0.828125 -4.796875zm-3.46875 -7.734375q2.671875 -0.03125 3.921875 1.875q1.265625 1.90625 1.265625 5.8125q0 3.890625 -1.28125 5.75q-1.28125 1.84375 -3.921875 1.84375q-2.640625 0 -3.921875 -1.84375q-1.28125 -1.859375 -1.28125 -5.71875q0 -3.859375 1.28125 -5.78125q1.28125 -1.921875 3.9375 -1.9375zm15.564713 7.734375q0 -3.296875 -0.84375 -4.890625q-0.84375 -1.609375 -2.640625 -1.609375q-1.78125 0 -2.640625 1.65625q-0.84375 1.640625 -0.84375 4.90625q0 3.265625 0.84375 4.75q0.859375 1.484375 2.65625 1.484375q1.8125 0 2.640625 -1.5q0.828125 -1.5 0.828125 -4.796875zm-3.46875 -7.734375q2.671875 -0.03125 3.921875 1.875q1.265625 1.90625 1.265625 5.8125q0 3.890625 -1.28125 5.75q-1.28125 1.84375 -3.921875 1.84375q-2.640625 0 -3.921875 -1.84375q-1.28125 -1.859375 -1.28125 -5.71875q0 -3.859375 1.28125 -5.78125q1.28125 -1.921875 3.9375 -1.9375z" fill-rule="nonzero"></path><path fill="#000000" fill-opacity="0.0" d="m70.978035 727.51514l54.677162 0l0 22.677124l-54.677162 0z" fill-rule="evenodd"></path><path fill="#000000" d="m89.509285 752.3676q0 -3.296875 -0.84375 -4.890625q-0.84375 -1.609375 -2.640625 -1.609375q-1.78125 0 -2.640625 1.65625q-0.84375 1.640625 -0.84375 4.90625q0 3.265625 0.84375 4.75q0.859375 1.484375 2.65625 1.484375q1.8125 0 2.640625 -1.5q0.828125 -1.5 0.828125 -4.796875zm-3.46875 -7.734375q2.671875 -0.03125 3.921875 1.875q1.265625 1.90625 1.265625 5.8125q0 3.890625 -1.28125 5.75q-1.28125 1.84375 -3.921875 1.84375q-2.640625 0 -3.921875 -1.84375q-1.28125 -1.859375 -1.28125 -5.71875q0 -3.859375 1.28125 -5.78125q1.28125 -1.921875 3.9375 -1.9375z" fill-rule="nonzero"></path><path fill="#000000" fill-opacity="0.0" d="m54.56168 502.72186l54.677166 0l0 47.811035l-54.677166 0z" fill-rule="evenodd"></path><path fill="#000000" d="m75.405304 534.76184l-5.46875 0l0 -0.1875q0 -0.609375 0.328125 -0.75q0.171875 -0.078125 0.40625 -0.09375l1.53125 -0.078125l0 -11.84375l-1.71875 0.609375q-0.390625 0.125 -0.65625 -0.1875q-0.25 -0.3125 -0.25 -0.625l2.734375 -1.53125q0.375 -0.234375 0.90625 -0.234375q0.703125 0 0.703125 0.8125l0 12.953125l2.15625 0.140625q0.09375 1.015625 -0.671875 1.015625zm6.887726 -9.046875q1.96875 0 3.203125 1.0625q1.25 1.046875 1.25 3.265625q0 2.21875 -1.4375 3.65625q-1.4375 1.421875 -3.734375 1.421875q-1.703125 0 -2.6875 -0.546875q-0.96875 -0.5625 -0.96875 -1.5q0 -0.515625 0.34375 -0.75q0.359375 -0.25 0.765625 -0.28125q0.265625 1.875 2.640625 1.875q1.484375 0 2.390625 -1.03125q0.921875 -1.03125 0.921875 -2.6875q0 -1.671875 -0.9375 -2.375q-0.9375 -0.71875 -2.28125 -0.71875q-1.34375 0 -2.5 0.59375l-0.3125 -0.15625l0.34375 -7.5l6.375 0.03125l-0.09375 1.421875l-5.109375 0l-0.171875 4.484375q0.984375 -0.265625 2.0 -0.265625zm14.543716 1.859375q0 -3.296875 -0.84375 -4.890625q-0.84375 -1.609375 -2.640625 -1.609375q-1.78125 0 -2.640625 1.65625q-0.84375 1.640625 -0.84375 4.90625q0 3.265625 0.84375 4.75q0.859375 1.484375 2.65625 1.484375q1.8125 0 2.640625 -1.5q0.828125 -1.5 0.828125 -4.796875zm-3.46875 -7.734375q2.671875 -0.03125 3.921875 1.875q1.265625 1.90625 1.265625 5.8125q0 3.890625 -1.28125 5.75q-1.28125 1.84375 -3.921875 1.84375q-2.640625 0 -3.921875 -1.84375q-1.28125 -1.859375 -1.28125 -5.71875q0 -3.859375 1.28125 -5.78125q1.28125 -1.921875 3.9375 -1.9375z" fill-rule="nonzero"></path><path fill="#000000" fill-opacity="0.0" d="m54.56168 657.42255l54.677166 0l0 27.62201l-54.677166 0z" fill-rule="evenodd"></path><path fill="#000000" d="m78.74893 680.41565q1.96875 0 3.203125 1.0625q1.25 1.046875 1.25 3.265625q0 2.21875 -1.4375 3.65625q-1.4375 1.421875 -3.734375 1.421875q-1.703125 0 -2.6875 -0.546875q-0.96875 -0.5625 -0.96875 -1.5q0 -0.515625 0.34375 -0.75q0.359375 -0.25 0.765625 -0.28125q0.265625 1.875 2.640625 1.875q1.484375 0 2.390625 -1.03125q0.921875 -1.03125 0.921875 -2.6875q0 -1.671875 -0.9375 -2.375q-0.9375 -0.71875 -2.28125 -0.71875q-1.34375 0 -2.5 0.59375l-0.3125 -0.15625l0.34375 -7.5l6.375 0.03125l-0.09375 1.421875l-5.109375 0l-0.171875 4.484375q0.984375 -0.265625 2.0 -0.265625zm14.543716 1.859375q0 -3.296875 -0.84375 -4.890625q-0.84375 -1.609375 -2.640625 -1.609375q-1.78125 0 -2.640625 1.65625q-0.84375 1.640625 -0.84375 4.90625q0 3.265625 0.84375 4.75q0.859375 1.484375 2.65625 1.484375q1.8125 0 2.640625 -1.5q0.828125 -1.5 0.828125 -4.796875zm-3.46875 -7.734375q2.671875 -0.03125 3.921875 1.875q1.265625 1.90625 1.265625 5.8125q0 3.890625 -1.28125 5.75q-1.28125 1.84375 -3.921875 1.84375q-2.640625 0 -3.921875 -1.84375q-1.28125 -1.859375 -1.28125 -5.71875q0 -3.859375 1.28125 -5.78125q1.28125 -1.921875 3.9375 -1.9375z" fill-rule="nonzero"></path><path fill="#000000" fill-opacity="0.0" d="m60.464565 572.09717l54.677166 0l0 47.810974l-54.677166 0z" fill-rule="evenodd"></path><path fill="#000000" d="m76.30832 626.13715l-5.46875 0l0 -0.1875q0 -0.609375 0.328125 -0.75q0.171875 -0.078125 0.40625 -0.09375l1.53125 -0.078125l0 -11.84375l-1.71875 0.609375q-0.390625 0.125 -0.65625 -0.1875q-0.25 -0.3125 -0.25 -0.625l2.734375 -1.53125q0.375 -0.234375 0.90625 -0.234375q0.703125 0 0.703125 0.8125l0 12.953125l2.15625 0.140625q0.09375 1.015625 -0.671875 1.015625zm11.231476 -7.1875q0 -3.296875 -0.84375 -4.890625q-0.84375 -1.609375 -2.640625 -1.609375q-1.78125 0 -2.640625 1.65625q-0.84375 1.640625 -0.84375 4.90625q0 3.265625 0.84375 4.75q0.859375 1.484375 2.65625 1.484375q1.8125 0 2.640625 -1.5q0.828125 -1.5 0.828125 -4.796875zm-3.46875 -7.734375q2.671875 -0.03125 3.921875 1.875q1.265625 1.90625 1.265625 5.8125q0 3.890625 -1.28125 5.75q-1.28125 1.84375 -3.921875 1.84375q-2.640625 0 -3.921875 -1.84375q-1.28125 -1.859375 -1.28125 -5.71875q0 -3.859375 1.28125 -5.78125q1.28125 -1.921875 3.9375 -1.9375zm15.564713 7.734375q0 -3.296875 -0.84375 -4.890625q-0.84375 -1.609375 -2.640625 -1.609375q-1.78125 0 -2.640625 1.65625q-0.84375 1.640625 -0.84375 4.90625q0 3.265625 0.84375 4.75q0.859375 1.484375 2.65625 1.484375q1.8125 0 2.640625 -1.5q0.828125 -1.5 0.828125 -4.796875zm-3.46875 -7.734375q2.671875 -0.03125 3.921875 1.875q1.265625 1.90625 1.265625 5.8125q0 3.890625 -1.28125 5.75q-1.28125 1.84375 -3.921875 1.84375q-2.640625 0 -3.921875 -1.84375q-1.28125 -1.859375 -1.28125 -5.71875q0 -3.859375 1.28125 -5.78125q1.28125 -1.921875 3.9375 -1.9375z" fill-rule="nonzero"></path><path fill="#000000" fill-opacity="0.0" d="m298.36545 753.2063l63.053497 0l0 34.596985l-63.053497 0z" fill-rule="evenodd"></path><path fill="#000000" d="m308.31857 770.95447q0 -1.03125 0.9375 -1.734375q0.9375 -0.703125 2.40625 -0.703125q1.484375 0 2.375 0.8125q0.90625 0.8125 0.90625 2.171875q0 2.0625 -2.09375 4.484375q-0.734375 0.84375 -1.109375 1.234375q-0.375 0.390625 -1.171875 1.140625q-0.796875 0.734375 -0.890625 0.828125l4.5 -0.046875l0.171875 -1.140625q0.046875 -0.390625 0.359375 -0.53125q0.328125 -0.15625 0.515625 -0.046875l0 2.703125l-7.078125 0q-0.140625 -0.453125 -0.109375 -0.671875q0.828125 -0.734375 2.046875 -2.0q1.21875 -1.28125 1.515625 -1.65625q0.296875 -0.390625 0.734375 -1.0q0.453125 -0.625 0.671875 -1.09375q0.546875 -1.1875 0.546875 -2.109375q0 -0.921875 -0.546875 -1.515625q-0.53125 -0.59375 -1.546875 -0.59375q-1.0 0 -1.53125 0.65625q-0.53125 0.65625 -0.53125 1.828125q-0.453125 0.015625 -0.765625 -0.21875q-0.3125 -0.25 -0.3125 -0.796875zm14.960388 3.59375q0 -2.578125 -0.65625 -3.8125q-0.65625 -1.25 -2.046875 -1.25q-1.375 0 -2.046875 1.28125q-0.65625 1.28125 -0.65625 3.828125q0 2.53125 0.65625 3.6875q0.671875 1.15625 2.0625 1.15625q1.40625 0 2.046875 -1.15625q0.640625 -1.171875 0.640625 -3.734375zm-2.6875 -6.015625q2.078125 -0.03125 3.046875 1.453125q0.984375 1.484375 0.984375 4.515625q0 3.03125 -1.0 4.46875q-1.0 1.4375 -3.046875 1.4375q-2.046875 0 -3.046875 -1.4375q-1.0 -1.4375 -1.0 -4.4375q0 -3.0 1.0 -4.484375q1.0 -1.5 3.0625 -1.515625zm9.9964905 11.59375l-4.25 0l0 -0.15625q0 -0.453125 0.265625 -0.578125q0.125 -0.046875 0.3125 -0.0625l1.1875 -0.0625l0 -9.21875l-1.328125 0.484375q-0.3125 0.09375 -0.515625 -0.140625q-0.203125 -0.25 -0.203125 -0.484375l2.125 -1.203125q0.296875 -0.1875 0.71875 -0.1875q0.53125 0 0.53125 0.640625l0 10.078125l1.6875 0.109375q0.0625 0.78125 -0.53125 0.78125zm1.6572571 -11.4375l6.578125 0q0.171875 0.265625 0.171875 0.609375l-4.65625 10.953125l-1.34375 -0.4375l4.6875 -10.140625l-4.390625 0.0625l-0.15625 1.1875q-0.0625 0.328125 -0.4375 0.453125q-0.359375 0.109375 -0.453125 -0.015625l0 -2.671875z" fill-rule="nonzero"></path><path fill="#000000" fill-opacity="0.0" d="m446.13272 753.2063l63.053467 0l0 34.596985l-63.053467 0z" fill-rule="evenodd"></path><path fill="#000000" d="m456.08585 770.95447q0 -1.03125 0.9375 -1.734375q0.9375 -0.703125 2.40625 -0.703125q1.484375 0 2.375 0.8125q0.90625 0.8125 0.90625 2.171875q0 2.0625 -2.09375 4.484375q-0.734375 0.84375 -1.109375 1.234375q-0.375 0.390625 -1.171875 1.140625q-0.796875 0.734375 -0.890625 0.828125l4.5 -0.046875l0.171875 -1.140625q0.046875 -0.390625 0.359375 -0.53125q0.328125 -0.15625 0.515625 -0.046875l0 2.703125l-7.078125 0q-0.140625 -0.453125 -0.109375 -0.671875q0.828125 -0.734375 2.046875 -2.0q1.21875 -1.28125 1.515625 -1.65625q0.296875 -0.390625 0.734375 -1.0q0.453125 -0.625 0.671875 -1.09375q0.546875 -1.1875 0.546875 -2.109375q0 -0.921875 -0.546875 -1.515625q-0.53125 -0.59375 -1.546875 -0.59375q-1.0 0 -1.53125 0.65625q-0.53125 0.65625 -0.53125 1.828125q-0.453125 0.015625 -0.765625 -0.21875q-0.3125 -0.25 -0.3125 -0.796875zm14.960358 3.59375q0 -2.578125 -0.65625 -3.8125q-0.65625 -1.25 -2.046875 -1.25q-1.375 0 -2.046875 1.28125q-0.65625 1.28125 -0.65625 3.828125q0 2.53125 0.65625 3.6875q0.671875 1.15625 2.0625 1.15625q1.40625 0 2.046875 -1.15625q0.640625 -1.171875 0.640625 -3.734375zm-2.6875 -6.015625q2.078125 -0.03125 3.046875 1.453125q0.984375 1.484375 0.984375 4.515625q0 3.03125 -1.0 4.46875q-1.0 1.4375 -3.046875 1.4375q-2.046875 0 -3.046875 -1.4375q-1.0 -1.4375 -1.0 -4.4375q0 -3.0 1.0 -4.484375q1.0 -1.5 3.0625 -1.515625zm9.996521 11.59375l-4.25 0l0 -0.15625q0 -0.453125 0.265625 -0.578125q0.125 -0.046875 0.3125 -0.0625l1.1875 -0.0625l0 -9.21875l-1.328125 0.484375q-0.3125 0.09375 -0.515625 -0.140625q-0.203125 -0.25 -0.203125 -0.484375l2.125 -1.203125q0.296875 -0.1875 0.71875 -0.1875q0.53125 0 0.53125 0.640625l0 10.078125l1.6875 0.109375q0.0625 0.78125 -0.53125 0.78125zm9.235382 -3.140625q0 1.375 -1.03125 2.40625q-1.015625 1.015625 -2.6875 1.015625q-1.65625 0 -2.5 -0.796875q-0.84375 -0.8125 -0.890625 -1.9375q-0.03125 -1.140625 0.671875 -2.046875q0.71875 -0.921875 1.796875 -1.53125q-1.75 -1.171875 -1.75 -2.75q0 -1.234375 0.828125 -2.03125q0.828125 -0.796875 2.09375 -0.796875q1.265625 0 2.09375 0.671875q0.84375 0.671875 0.84375 1.859375q0 1.6875 -1.8125 2.84375q1.109375 0.671875 1.71875 1.359375q0.625 0.671875 0.625 1.734375zm-3.40625 -7.609375q-0.78125 0 -1.296875 0.484375q-0.515625 0.484375 -0.515625 1.21875q0 0.71875 0.53125 1.25q0.53125 0.515625 1.6875 1.171875q1.28125 -0.984375 1.28125 -2.34375q0 -0.8125 -0.453125 -1.296875q-0.4375 -0.484375 -1.234375 -0.484375zm-1.890625 6.4375q-0.53125 0.765625 -0.53125 1.625q0 0.859375 0.5625 1.453125q0.5625 0.59375 1.65625 0.59375q1.109375 0 1.765625 -0.59375q0.671875 -0.59375 0.671875 -1.4375q0 -0.859375 -0.578125 -1.453125q-0.578125 -0.59375 -1.640625 -1.171875l-0.515625 -0.28125q-0.84375 0.484375 -1.390625 1.265625z" fill-rule="nonzero"></path><path fill="#000000" fill-opacity="0.0" d="m606.1821 751.7575l63.053467 0l0 34.596985l-63.053467 0z" fill-rule="evenodd"></path><path fill="#000000" d="m616.13525 769.5056q0 -1.03125 0.9375 -1.734375q0.9375 -0.703125 2.40625 -0.703125q1.484375 0 2.375 0.8125q0.90625 0.8125 0.90625 2.171875q0 2.0625 -2.09375 4.484375q-0.734375 0.84375 -1.109375 1.234375q-0.375 0.390625 -1.171875 1.140625q-0.796875 0.734375 -0.890625 0.828125l4.5 -0.046875l0.171875 -1.140625q0.046875 -0.390625 0.359375 -0.53125q0.328125 -0.15625 0.515625 -0.046875l0 2.703125l-7.078125 0q-0.140625 -0.453125 -0.109375 -0.671875q0.828125 -0.734375 2.046875 -2.0q1.21875 -1.28125 1.515625 -1.65625q0.296875 -0.390625 0.734375 -1.0q0.453125 -0.625 0.671875 -1.09375q0.546875 -1.1875 0.546875 -2.109375q0 -0.921875 -0.546875 -1.515625q-0.53125 -0.59375 -1.546875 -0.59375q-1.0 0 -1.53125 0.65625q-0.53125 0.65625 -0.53125 1.828125q-0.453125 0.015625 -0.765625 -0.21875q-0.3125 -0.25 -0.3125 -0.796875zm14.960388 3.59375q0 -2.578125 -0.65625 -3.8125q-0.65625 -1.25 -2.046875 -1.25q-1.375 0 -2.046875 1.28125q-0.65625 1.28125 -0.65625 3.828125q0 2.53125 0.65625 3.6875q0.671875 1.15625 2.0625 1.15625q1.40625 0 2.046875 -1.15625q0.640625 -1.171875 0.640625 -3.734375zm-2.6875 -6.015625q2.078125 -0.03125 3.046875 1.453125q0.984375 1.484375 0.984375 4.515625q0 3.03125 -1.0 4.46875q-1.0 1.4375 -3.046875 1.4375q-2.046875 0 -3.046875 -1.4375q-1.0 -1.4375 -1.0 -4.4375q0 -3.0 1.0 -4.484375q1.0 -1.5 3.0625 -1.515625zm9.996521 11.59375l-4.25 0l0 -0.15625q0 -0.453125 0.265625 -0.578125q0.125 -0.046875 0.3125 -0.0625l1.1875 -0.0625l0 -9.21875l-1.328125 0.484375q-0.3125 0.09375 -0.515625 -0.140625q-0.203125 -0.25 -0.203125 -0.484375l2.125 -1.203125q0.296875 -0.1875 0.71875 -0.1875q0.53125 0 0.53125 0.640625l0 10.078125l1.6875 0.109375q0.0625 0.78125 -0.53125 0.78125zm5.2666016 -11.609375q3.671875 0 3.671875 4.90625q0 3.40625 -1.21875 5.203125q-1.21875 1.78125 -3.421875 1.78125q-1.015625 0 -1.5625 -0.328125q-0.53125 -0.34375 -0.53125 -0.890625q0 -0.8125 0.875 -0.890625q0 0.484375 0.328125 0.84375q0.34375 0.34375 1.03125 0.34375q1.296875 0 2.109375 -1.265625q0.8125 -1.28125 0.96875 -3.65625q-1.21875 0.8125 -2.703125 0.8125q-1.46875 0 -2.28125 -0.828125q-0.8125 -0.84375 -0.8125 -2.375q0 -1.53125 0.953125 -2.59375q0.953125 -1.0625 2.59375 -1.0625zm2.296875 4.875q0 -3.953125 -2.328125 -3.953125q-1.03125 0 -1.59375 0.6875q-0.5625 0.671875 -0.5625 1.890625q0 2.40625 2.109375 2.40625q1.359375 0 2.375 -0.828125l0 -0.203125z" fill-rule="nonzero"></path><path fill="#000000" fill-opacity="0.0" d="m768.4623 753.2063l63.053467 0l0 34.596985l-63.053467 0z" fill-rule="evenodd"></path><path fill="#000000" d="m778.4154 770.95447q0 -1.03125 0.9375 -1.734375q0.9375 -0.703125 2.40625 -0.703125q1.484375 0 2.375 0.8125q0.90625 0.8125 0.90625 2.171875q0 2.0625 -2.09375 4.484375q-0.734375 0.84375 -1.109375 1.234375q-0.375 0.390625 -1.171875 1.140625q-0.796875 0.734375 -0.890625 0.828125l4.5 -0.046875l0.171875 -1.140625q0.046875 -0.390625 0.359375 -0.53125q0.328125 -0.15625 0.515625 -0.046875l0 2.703125l-7.078125 0q-0.140625 -0.453125 -0.109375 -0.671875q0.828125 -0.734375 2.046875 -2.0q1.21875 -1.28125 1.515625 -1.65625q0.296875 -0.390625 0.734375 -1.0q0.453125 -0.625 0.671875 -1.09375q0.546875 -1.1875 0.546875 -2.109375q0 -0.921875 -0.546875 -1.515625q-0.53125 -0.59375 -1.546875 -0.59375q-1.0 0 -1.53125 0.65625q-0.53125 0.65625 -0.53125 1.828125q-0.453125 0.015625 -0.765625 -0.21875q-0.3125 -0.25 -0.3125 -0.796875zm14.960388 3.59375q0 -2.578125 -0.65625 -3.8125q-0.65625 -1.25 -2.046875 -1.25q-1.375 0 -2.046875 1.28125q-0.65625 1.28125 -0.65625 3.828125q0 2.53125 0.65625 3.6875q0.671875 1.15625 2.0625 1.15625q1.40625 0 2.046875 -1.15625q0.640625 -1.171875 0.640625 -3.734375zm-2.6875 -6.015625q2.078125 -0.03125 3.046875 1.453125q0.984375 1.484375 0.984375 4.515625q0 3.03125 -1.0 4.46875q-1.0 1.4375 -3.046875 1.4375q-2.046875 0 -3.046875 -1.4375q-1.0 -1.4375 -1.0 -4.4375q0 -3.0 1.0 -4.484375q1.0 -1.5 3.0625 -1.515625zm5.637085 2.421875q0 -1.03125 0.9375 -1.734375q0.9375 -0.703125 2.40625 -0.703125q1.484375 0 2.375 0.8125q0.90625 0.8125 0.90625 2.171875q0 2.0625 -2.09375 4.484375q-0.734375 0.84375 -1.109375 1.234375q-0.375 0.390625 -1.171875 1.140625q-0.796875 0.734375 -0.890625 0.828125l4.5 -0.046875l0.171875 -1.140625q0.046875 -0.390625 0.359375 -0.53125q0.328125 -0.15625 0.515625 -0.046875l0 2.703125l-7.078125 0q-0.140625 -0.453125 -0.109375 -0.671875q0.828125 -0.734375 2.046875 -2.0q1.21875 -1.28125 1.515625 -1.65625q0.296875 -0.390625 0.734375 -1.0q0.453125 -0.625 0.671875 -1.09375q0.546875 -1.1875 0.546875 -2.109375q0 -0.921875 -0.546875 -1.515625q-0.53125 -0.59375 -1.546875 -0.59375q-1.0 0 -1.53125 0.65625q-0.53125 0.65625 -0.53125 1.828125q-0.453125 0.015625 -0.765625 -0.21875q-0.3125 -0.25 -0.3125 -0.796875zm14.960388 3.59375q0 -2.578125 -0.65625 -3.8125q-0.65625 -1.25 -2.046875 -1.25q-1.375 0 -2.046875 1.28125q-0.65625 1.28125 -0.65625 3.828125q0 2.53125 0.65625 3.6875q0.671875 1.15625 2.0625 1.15625q1.40625 0 2.046875 -1.15625q0.640625 -1.171875 0.640625 -3.734375zm-2.6875 -6.015625q2.078125 -0.03125 3.046875 1.453125q0.984375 1.484375 0.984375 4.515625q0 3.03125 -1.0 4.46875q-1.0 1.4375 -3.046875 1.4375q-2.046875 0 -3.046875 -1.4375q-1.0 -1.4375 -1.0 -4.4375q0 -3.0 1.0 -4.484375q1.0 -1.5 3.0625 -1.515625z" fill-rule="nonzero"></path><path fill="#ffffff" d="m116.826775 455.68765l110.49146 0l0 296.06723l-110.49146 0z" fill-rule="evenodd"></path><path fill="#000000" fill-opacity="0.0" d="m112.34332 751.7596l763.85803 1.1160278" fill-rule="evenodd"></path><path stroke="#000000" stroke-width="1.0" stroke-linejoin="round" stroke-linecap="butt" d="m112.34332 751.7596l763.85803 1.1160278" fill-rule="evenodd"></path><path fill="#000000" fill-opacity="0.0" d="m115.146866 749.8231l63.053482 0l0 34.596985l-63.053482 0z" fill-rule="evenodd"></path><path fill="#000000" d="m125.09999 767.5712q0 -1.03125 0.9375 -1.734375q0.9375 -0.703125 2.40625 -0.703125q1.484375 0 2.375 0.8125q0.90625 0.8125 0.90625 2.171875q0 2.0625 -2.09375 4.484375q-0.734375 0.84375 -1.109375 1.234375q-0.375 0.390625 -1.171875 1.140625q-0.796875 0.734375 -0.890625 0.828125l4.5 -0.046875l0.171875 -1.140625q0.046875 -0.390625 0.359375 -0.53125q0.328125 -0.15625 0.515625 -0.046875l0 2.703125l-7.078125 0q-0.140625 -0.453125 -0.109375 -0.671875q0.828125 -0.734375 2.046875 -2.0q1.21875 -1.28125 1.515625 -1.65625q0.296875 -0.390625 0.734375 -1.0q0.453125 -0.625 0.671875 -1.09375q0.546875 -1.1875 0.546875 -2.109375q0 -0.921875 -0.546875 -1.515625q-0.53125 -0.59375 -1.546875 -0.59375q-1.0 0 -1.53125 0.65625q-0.53125 0.65625 -0.53125 1.828125q-0.453125 0.015625 -0.765625 -0.21875q-0.3125 -0.25 -0.3125 -0.796875zm14.960373 3.59375q0 -2.578125 -0.65625 -3.8125q-0.65625 -1.25 -2.046875 -1.25q-1.375 0 -2.046875 1.28125q-0.65625 1.28125 -0.65625 3.828125q0 2.53125 0.65625 3.6875q0.671875 1.15625 2.0625 1.15625q1.40625 0 2.046875 -1.15625q0.640625 -1.171875 0.640625 -3.734375zm-2.6875 -6.015625q2.078125 -0.03125 3.046875 1.453125q0.984375 1.484375 0.984375 4.515625q0 3.03125 -1.0 4.46875q-1.0 1.4375 -3.046875 1.4375q-2.046875 0 -3.046875 -1.4375q-1.0 -1.4375 -1.0 -4.4375q0 -3.0 1.0 -4.484375q1.0 -1.5 3.0625 -1.515625zm9.996506 11.59375l-4.25 0l0 -0.15625q0 -0.453125 0.265625 -0.578125q0.125 -0.046875 0.3125 -0.0625l1.1875 -0.0625l0 -9.21875l-1.328125 0.484375q-0.3125 0.09375 -0.515625 -0.140625q-0.203125 -0.25 -0.203125 -0.484375l2.125 -1.203125q0.296875 -0.1875 0.71875 -0.1875q0.53125 0 0.53125 0.640625l0 10.078125l1.6875 0.109375q0.0625 0.78125 -0.53125 0.78125zm3.704132 -5.765625q1.21875 -0.796875 2.703125 -0.796875q1.484375 0 2.28125 0.828125q0.8125 0.8125 0.8125 2.34375q0 1.53125 -0.96875 2.609375q-0.953125 1.0625 -2.578125 1.0625q-3.671875 0 -3.671875 -4.890625q0 -3.40625 1.203125 -5.203125q1.21875 -1.796875 3.421875 -1.796875q1.03125 0 1.5625 0.34375q0.546875 0.328125 0.546875 0.859375q0 0.828125 -0.890625 0.90625q0 -0.484375 -0.34375 -0.828125q-0.328125 -0.359375 -1.03125 -0.359375q-1.28125 0 -2.09375 1.28125q-0.796875 1.265625 -0.953125 3.640625zm-0.046875 1.171875q0 3.9375 2.34375 3.9375q1.015625 0 1.578125 -0.671875q0.5625 -0.6875 0.5625 -1.875q0 -1.203125 -0.5625 -1.796875q-0.546875 -0.609375 -1.734375 -0.609375q-1.171875 0 -2.1875 0.8125l0 0.203125z" fill-rule="nonzero"></path><path fill="#ffffff" d="m274.6483 398.41995l110.48819 0l0 353.32285l-110.48819 0z" fill-rule="evenodd"></path><path fill="#ffffff" d="m422.4147 333.9685l110.48819 0l0 417.88977l-110.48819 0z" fill-rule="evenodd"></path><path fill="#ffffff" d="m744.7454 193.26509l110.48816 0l0 558.4882l-110.48816 0z" fill-rule="evenodd"></path><path fill="#ffffff" d="m582.46454 263.6168l110.48822 0l0 488.126l-110.48822 0z" fill-rule="evenodd"></path><path fill="#000000" fill-opacity="0.0" d="m298.36484 355.12466l63.055115 0l0 34.33072l-63.055115 0z" fill-rule="evenodd"></path><path fill="#000000" d="m313.9272 375.35217q0 -1.3125 1.203125 -2.203125q1.21875 -0.90625 3.109375 -0.90625q1.90625 0 3.0625 1.046875q1.15625 1.03125 1.15625 2.78125q0 2.640625 -2.6875 5.765625q-0.9375 1.078125 -1.4375 1.59375q-0.484375 0.5 -1.515625 1.46875q-1.015625 0.953125 -1.140625 1.0625l5.796875 -0.0625l0.203125 -1.46875q0.078125 -0.5 0.484375 -0.6875q0.40625 -0.203125 0.65625 -0.0625l0 3.484375l-9.09375 0q-0.203125 -0.578125 -0.15625 -0.859375q1.0625 -0.9375 2.625 -2.578125q1.578125 -1.65625 1.953125 -2.140625q0.390625 -0.5 0.96875 -1.28125q0.578125 -0.796875 0.84375 -1.390625q0.71875 -1.546875 0.71875 -2.734375q0 -1.1875 -0.703125 -1.9375q-0.6875 -0.765625 -1.984375 -0.765625q-1.296875 0 -1.984375 0.84375q-0.6875 0.84375 -0.6875 2.359375q-0.5625 0.015625 -0.984375 -0.296875q-0.40625 -0.3125 -0.40625 -1.03125zm12.772095 4.390625q1.578125 -1.03125 3.484375 -1.03125q1.921875 0 2.953125 1.0625q1.03125 1.046875 1.03125 3.015625q0 1.96875 -1.234375 3.359375q-1.234375 1.375 -3.328125 1.375q-4.734375 0 -4.734375 -6.28125q0 -4.390625 1.5625 -6.6875q1.5625 -2.3125 4.390625 -2.3125q1.328125 0 2.015625 0.4375q0.703125 0.421875 0.703125 1.09375q0 1.078125 -1.15625 1.171875q0 -0.625 -0.4375 -1.078125q-0.421875 -0.453125 -1.3125 -0.453125q-1.65625 0 -2.6875 1.640625q-1.03125 1.640625 -1.25 4.6875zm-0.046875 1.515625q0 5.0625 3.0 5.0625q1.3125 0 2.03125 -0.875q0.734375 -0.875 0.734375 -2.40625q0 -1.53125 -0.71875 -2.3125q-0.703125 -0.78125 -2.234375 -0.78125q-1.515625 0 -2.8125 1.046875l0 0.265625zm17.859222 -1.28125q0 -3.296875 -0.84375 -4.890625q-0.84375 -1.609375 -2.640625 -1.609375q-1.78125 0 -2.640625 1.65625q-0.84375 1.640625 -0.84375 4.90625q0 3.265625 0.84375 4.75q0.859375 1.484375 2.65625 1.484375q1.8125 0 2.640625 -1.5q0.828125 -1.5 0.828125 -4.796875zm-3.46875 -7.734375q2.671875 -0.03125 3.921875 1.875q1.265625 1.90625 1.265625 5.8125q0 3.890625 -1.28125 5.75q-1.28125 1.84375 -3.921875 1.84375q-2.640625 0 -3.921875 -1.84375q-1.28125 -1.859375 -1.28125 -5.71875q0 -3.859375 1.28125 -5.78125q1.28125 -1.921875 3.9375 -1.9375z" fill-rule="nonzero"></path><path fill="#000000" fill-opacity="0.0" d="m446.13123 288.34647l63.055115 0l0 34.33069l-63.055115 0z" fill-rule="evenodd"></path><path fill="#000000" d="m467.7751 311.51144q0.703125 -0.34375 1.171875 -1.0q0.46875 -0.65625 0.46875 -1.625q0 -0.984375 -0.609375 -1.59375q-0.609375 -0.609375 -1.6875 -0.609375q-1.0625 0 -1.625 0.640625q-0.5625 0.625 -0.59375 1.703125q-0.6875 -0.046875 -1.046875 -0.390625q-0.359375 -0.34375 -0.296875 -0.890625q0.078125 -0.9375 1.109375 -1.609375q1.046875 -0.671875 2.6875 -0.671875q1.65625 0 2.75 0.90625q1.109375 0.90625 1.109375 2.421875q0 1.125 -0.71875 2.109375q-0.71875 0.96875 -2.1875 1.546875q1.65625 0.25 2.625 1.28125q0.984375 1.015625 0.984375 2.546875q0 1.921875 -1.484375 3.203125q-1.46875 1.265625 -3.796875 1.265625q-1.609375 0 -2.65625 -0.609375q-1.046875 -0.609375 -1.046875 -1.59375q0 -0.984375 1.0625 -1.203125q0.1875 1.0 0.890625 1.609375q0.71875 0.59375 2.0625 0.59375q1.34375 0 2.265625 -0.875q0.921875 -0.890625 0.875 -2.203125q-0.03125 -1.3125 -0.828125 -2.015625q-0.78125 -0.703125 -1.796875 -0.890625q-1.0 -0.203125 -2.203125 -0.109375l-0.015625 -1.3125q1.21875 0 2.53125 -0.625zm11.627472 8.875l-5.46875 0l0 -0.1875q0 -0.609375 0.328125 -0.75q0.171875 -0.078125 0.40625 -0.09375l1.53125 -0.078125l0 -11.84375l-1.71875 0.609375q-0.390625 0.125 -0.65625 -0.1875q-0.25 -0.3125 -0.25 -0.625l2.734375 -1.53125q0.375 -0.234375 0.90625 -0.234375q0.703125 0 0.703125 0.8125l0 12.953125l2.15625 0.140625q0.09375 1.015625 -0.671875 1.015625zm11.231476 -7.1875q0 -3.296875 -0.84375 -4.890625q-0.84375 -1.609375 -2.640625 -1.609375q-1.78125 0 -2.640625 1.65625q-0.84375 1.640625 -0.84375 4.90625q0 3.265625 0.84375 4.75q0.859375 1.484375 2.65625 1.484375q1.8125 0 2.640625 -1.5q0.828125 -1.5 0.828125 -4.796875zm-3.46875 -7.734375q2.671875 -0.03125 3.921875 1.875q1.265625 1.90625 1.265625 5.8125q0 3.890625 -1.28125 5.75q-1.28125 1.84375 -3.921875 1.84375q-2.640625 0 -3.921875 -1.84375q-1.28125 -1.859375 -1.28125 -5.71875q0 -3.859375 1.28125 -5.78125q1.28125 -1.921875 3.9375 -1.9375z" fill-rule="nonzero"></path><path fill="#000000" fill-opacity="0.0" d="m606.1811 222.54855l63.055115 0l0 34.33072l-63.055115 0z" fill-rule="evenodd"></path><path fill="#000000" d="m626.433 245.71355q0.703125 -0.34375 1.171875 -1.0q0.46875 -0.65625 0.46875 -1.625q0 -0.984375 -0.609375 -1.59375q-0.609375 -0.609375 -1.6875 -0.609375q-1.0625 0 -1.625 0.640625q-0.5625 0.625 -0.59375 1.703125q-0.6875 -0.046875 -1.046875 -0.390625q-0.359375 -0.34375 -0.296875 -0.890625q0.078125 -0.9375 1.109375 -1.609375q1.046875 -0.671875 2.6875 -0.671875q1.65625 0 2.75 0.90625q1.109375 0.90625 1.109375 2.421875q0 1.125 -0.71875 2.109375q-0.71875 0.96875 -2.1875 1.546875q1.65625 0.25 2.625 1.28125q0.984375 1.015625 0.984375 2.546875q0 1.921875 -1.484375 3.203125q-1.46875 1.265625 -3.796875 1.265625q-1.609375 0 -2.65625 -0.609375q-1.046875 -0.609375 -1.046875 -1.59375q0 -0.984375 1.0625 -1.203125q0.1875 1.0 0.890625 1.609375q0.71875 0.59375 2.0625 0.59375q1.34375 0 2.265625 -0.875q0.921875 -0.890625 0.875 -2.203125q-0.03125 -1.3125 -0.828125 -2.015625q-0.78125 -0.703125 -1.796875 -0.890625q-1.0 -0.203125 -2.203125 -0.109375l-0.015625 -1.3125q1.21875 0 2.53125 -0.625zm7.8305664 1.453125q1.578125 -1.03125 3.484375 -1.03125q1.921875 0 2.953125 1.0625q1.03125 1.046875 1.03125 3.015625q0 1.96875 -1.234375 3.359375q-1.234375 1.375 -3.328125 1.375q-4.734375 0 -4.734375 -6.28125q0 -4.390625 1.5625 -6.6875q1.5625 -2.3125 4.390625 -2.3125q1.328125 0 2.015625 0.4375q0.703125 0.421875 0.703125 1.09375q0 1.078125 -1.15625 1.171875q0 -0.625 -0.4375 -1.078125q-0.421875 -0.453125 -1.3125 -0.453125q-1.65625 0 -2.6875 1.640625q-1.03125 1.640625 -1.25 4.6875zm-0.046875 1.515625q0 5.0625 3.0 5.0625q1.3125 0 2.03125 -0.875q0.734375 -0.875 0.734375 -2.40625q0 -1.53125 -0.71875 -2.3125q-0.703125 -0.78125 -2.234375 -0.78125q-1.515625 0 -2.8125 1.046875l0 0.265625zm17.859253 -1.28125q0 -3.296875 -0.84375 -4.890625q-0.84375 -1.609375 -2.640625 -1.609375q-1.78125 0 -2.640625 1.65625q-0.84375 1.640625 -0.84375 4.90625q0 3.265625 0.84375 4.75q0.859375 1.484375 2.65625 1.484375q1.8125 0 2.640625 -1.5q0.828125 -1.5 0.828125 -4.796875zm-3.46875 -7.734375q2.671875 -0.03125 3.921875 1.875q1.265625 1.90625 1.265625 5.8125q0 3.890625 -1.28125 5.75q-1.28125 1.84375 -3.921875 1.84375q-2.640625 0 -3.921875 -1.84375q-1.28125 -1.859375 -1.28125 -5.71875q0 -3.859375 1.28125 -5.78125q1.28125 -1.921875 3.9375 -1.9375z" fill-rule="nonzero"></path><path fill="#000000" fill-opacity="0.0" d="m768.4619 148.56299l63.055176 0l0 34.330704l-63.055176 0z" fill-rule="evenodd"></path><path fill="#000000" d="m794.8828 175.86862l0 1.25l-2.125 0l0 3.484375l-1.640625 0.234375l0 -3.71875l-6.0625 0q-0.453125 -0.734375 -0.5 -1.140625l6.65625 -10.0625q0.765625 -0.21875 1.5 -0.046875l0.03125 10.0l2.140625 0zm-3.765625 0l0 -7.84375l-5.078125 7.84375l5.078125 0zm10.96405 4.734375l-5.46875 0l0 -0.1875q0 -0.609375 0.328125 -0.75q0.171875 -0.078125 0.40625 -0.09375l1.53125 -0.078125l0 -11.84375l-1.71875 0.609375q-0.390625 0.125 -0.65625 -0.1875q-0.25 -0.3125 -0.25 -0.625l2.734375 -1.53125q0.375 -0.234375 0.90625 -0.234375q0.703125 0 0.703125 0.8125l0 12.953125l2.15625 0.140625q0.09375 1.015625 -0.671875 1.015625zm11.231506 -7.1875q0 -3.296875 -0.84375 -4.890625q-0.84375 -1.609375 -2.640625 -1.609375q-1.78125 0 -2.640625 1.65625q-0.84375 1.640625 -0.84375 4.90625q0 3.265625 0.84375 4.75q0.859375 1.484375 2.65625 1.484375q1.8125 0 2.640625 -1.5q0.828125 -1.5 0.828125 -4.796875zm-3.46875 -7.734375q2.671875 -0.03125 3.921875 1.875q1.265625 1.90625 1.265625 5.8125q0 3.890625 -1.28125 5.75q-1.28125 1.84375 -3.921875 1.84375q-2.640625 0 -3.921875 -1.84375q-1.28125 -1.859375 -1.28125 -5.71875q0 -3.859375 1.28125 -5.78125q1.28125 -1.921875 3.9375 -1.9375z" fill-rule="nonzero"></path></g></svg>

