<?xml version="1.0" standalone="yes"?>

<svg version="1.1" viewBox="0.0 0.0 884.4041994750656 655.0393700787401" fill="none" stroke="none" stroke-linecap="square" stroke-miterlimit="10" xmlns="http://www.w3.org/2000/svg" xmlns:xlink="http://www.w3.org/1999/xlink"><clipPath id="p.0"><path d="m0 0l884.4042 0l0 655.03937l-884.4042 0l0 -655.03937z" clip-rule="nonzero"></path></clipPath><g clip-path="url(#p.0)"><path fill="#000000" fill-opacity="0.0" d="m0 0l884.4042 0l0 655.03937l-884.4042 0z" fill-rule="evenodd"></path><path fill="#000000" fill-opacity="0.0" d="m45.42507 52.21383l54.677162 0l0 22.677162l-54.677162 0z" fill-rule="evenodd"></path><path fill="#000000" d="m65.20632 79.519455l0 1.25l-2.125 0l0 3.484375l-1.640625 0.234375l0 -3.71875l-6.0625 0q-0.453125 -0.734375 -0.5 -1.140625l6.65625 -10.0625q0.765625 -0.21875 1.5 -0.046875l0.03125 10.0l2.140625 0zm-3.765625 0l0 -7.84375l-5.078125 7.84375l5.078125 0zm13.651596 -2.453125q0 -3.296875 -0.84375 -4.890625q-0.84375 -1.609375 -2.640625 -1.609375q-1.78125 0 -2.640625 1.65625q-0.84375 1.640625 -0.84375 4.90625q0 3.265625 0.84375 4.75q0.859375 1.484375 2.65625 1.484375q1.8125 0 2.640625 -1.5q0.828125 -1.5 0.828125 -4.796875zm-3.46875 -7.734375q2.671875 -0.03125 3.921875 1.875q1.265625 1.90625 1.265625 5.8125q0 3.890625 -1.28125 5.75q-1.28125 1.84375 -3.921875 1.84375q-2.640625 0 -3.921875 -1.84375q-1.28125 -1.859375 -1.28125 -5.71875q0 -3.859375 1.28125 -5.78125q1.28125 -1.921875 3.9375 -1.9375zm15.564713 7.734375q0 -3.296875 -0.84375 -4.890625q-0.84375 -1.609375 -2.640625 -1.609375q-1.78125 0 -2.640625 1.65625q-0.84375 1.640625 -0.84375 4.90625q0 3.265625 0.84375 4.75q0.859375 1.484375 2.65625 1.484375q1.8125 0 2.640625 -1.5q0.828125 -1.5 0.828125 -4.796875zm-3.46875 -7.734375q2.671875 -0.03125 3.921875 1.875q1.265625 1.90625 1.265625 5.8125q0 3.890625 -1.28125 5.75q-1.28125 1.84375 -3.921875 1.84375q-2.640625 0 -3.921875 -1.84375q-1.28125 -1.859375 -1.28125 -5.71875q0 -3.859375 1.28125 -5.78125q1.28125 -1.921875 3.9375 -1.9375z" fill-rule="nonzero"></path><path fill="#000000" fill-opacity="0.0" d="m103.61544 14.108049l771.74805 0" fill-rule="evenodd"></path><path stroke="#000000" stroke-width="1.0" stroke-linejoin="round" stroke-linecap="butt" stroke-dasharray="1.0,3.0" d="m103.61544 14.108049l771.74805 0" fill-rule="evenodd"></path><path fill="#000000" fill-opacity="0.0" d="m45.425198 -30.380577l54.677166 0l0 55.527557l-54.677166 0z" fill-rule="evenodd"></path><path fill="#000000" d="m65.20644 18.925049l0 1.25l-2.1249962 0l0 3.484375l-1.640625 0.234375l0 -3.71875l-6.0625 0q-0.453125 -0.734375 -0.5 -1.140625l6.65625 -10.0625q0.765625 -0.21875 1.5 -0.046875l0.03125 10.0l2.1406212 0zm-3.7656212 0l0 -7.84375l-5.078125 7.84375l5.078125 0zm9.307842 -4.3125q1.96875 0 3.203125 1.0625q1.25 1.046875 1.25 3.265625q0 2.21875 -1.4375 3.65625q-1.4375 1.421875 -3.734375 1.421875q-1.703125 0 -2.6875 -0.546875q-0.96875 -0.5625 -0.96875 -1.5q0 -0.515625 0.34375 -0.75q0.359375 -0.25 0.765625 -0.28125q0.265625 1.875 2.640625 1.875q1.484375 0 2.390625 -1.03125q0.921875 -1.03125 0.921875 -2.6875q0 -1.671875 -0.9375 -2.375q-0.9375 -0.71875 -2.28125 -0.71875q-1.34375 0 -2.5 0.59375l-0.3125 -0.15625l0.34375 -7.5l6.375 0.03125l-0.09375 1.421875l-5.109375 0l-0.171875 4.484375q0.984375 -0.265625 2.0 -0.265625zm14.543716 1.859375q0 -3.296875 -0.84375 -4.890625q-0.84375 -1.609375 -2.640625 -1.609375q-1.78125 0 -2.640625 1.65625q-0.84375 1.640625 -0.84375 4.90625q0 3.265625 0.84375 4.75q0.859375 1.484375 2.65625 1.484375q1.8125 0 2.640625 -1.5q0.828125 -1.5 0.828125 -4.796875zm-3.46875 -7.734375q2.671875 -0.03125 3.921875 1.875q1.265625 1.90625 1.265625 5.8125q0 3.890625 -1.28125 5.75q-1.28125 1.84375 -3.921875 1.84375q-2.640625 0 -3.921875 -1.84375q-1.28125 -1.859375 -1.28125 -5.71875q0 -3.859375 1.28125 -5.78125q1.28125 -1.921875 3.9375 -1.9375z" fill-rule="nonzero"></path><path fill="#000000" fill-opacity="0.0" d="m103.612816 77.530624l771.7545 0" fill-rule="evenodd"></path><path stroke="#000000" stroke-width="1.0" stroke-linejoin="round" stroke-linecap="butt" stroke-dasharray="1.0,3.0" d="m103.612816 77.530624l771.7545 0" fill-rule="evenodd"></path><path fill="#000000" fill-opacity="0.0" d="m103.612816 216.4925l771.7545 0" fill-rule="evenodd"></path><path stroke="#000000" stroke-width="1.0" stroke-linejoin="round" stroke-linecap="butt" stroke-dasharray="1.0,3.0" d="m103.612816 216.4925l771.7545 0" fill-rule="evenodd"></path><path fill="#000000" fill-opacity="0.0" d="m103.612816 284.08148l771.7545 0" fill-rule="evenodd"></path><path stroke="#000000" stroke-width="1.0" stroke-linejoin="round" stroke-linecap="butt" stroke-dasharray="1.0,3.0" d="m103.612816 284.08148l771.7545 0" fill-rule="evenodd"></path><path fill="#000000" fill-opacity="0.0" d="m103.612816 351.67313l771.7545 0" fill-rule="evenodd"></path><path stroke="#000000" stroke-width="1.0" stroke-linejoin="round" stroke-linecap="butt" stroke-dasharray="1.0,3.0" d="m103.612816 351.67313l771.7545 0" fill-rule="evenodd"></path><path fill="#000000" fill-opacity="0.0" d="m103.612816 419.26212l771.7545 0" fill-rule="evenodd"></path><path stroke="#000000" stroke-width="1.0" stroke-linejoin="round" stroke-linecap="butt" stroke-dasharray="1.0,3.0" d="m103.612816 419.26212l771.7545 0" fill-rule="evenodd"></path><path fill="#000000" fill-opacity="0.0" d="m103.612816 486.85645l771.7545 0" fill-rule="evenodd"></path><path stroke="#000000" stroke-width="1.0" stroke-linejoin="round" stroke-linecap="butt" stroke-dasharray="1.0,3.0" d="m103.612816 486.85645l771.7545 0" fill-rule="evenodd"></path><path fill="#000000" fill-opacity="0.0" d="m103.612816 555.2001l771.7545 0" fill-rule="evenodd"></path><path stroke="#000000" stroke-width="1.0" stroke-linejoin="round" stroke-linecap="butt" stroke-dasharray="1.0,3.0" d="m103.612816 555.2001l771.7545 0" fill-rule="evenodd"></path><path fill="#000000" fill-opacity="0.0" d="m103.612816 147.38889l771.7545 0" fill-rule="evenodd"></path><path stroke="#000000" stroke-width="1.0" stroke-linejoin="round" stroke-linecap="butt" stroke-dasharray="1.0,3.0" d="m103.612816 147.38889l771.7545 0" fill-rule="evenodd"></path><path fill="#000000" fill-opacity="0.0" d="m9.089239 527.7584l0 -417.88977l32.25197 0l0 417.88977z" fill-rule="evenodd"></path><path fill="#000000" d="m33.449238 422.76596l0 3.625l-0.125 0q-0.890625 0 -0.953125 -0.703125l-0.03125 -0.4375l-7.749998 0.578125l7.125 2.859375q0.1875 0.578125 0.09375 1.015625l-6.921875 3.09375l7.421873 0.46875l0.09375 -1.296875q0.109375 -0.046875 0.4375 0.015625q0.609375 0.140625 0.609375 0.703125l0 3.265625l-0.125 0q-0.890625 0 -0.953125 -0.703125l-0.03125 -0.640625l-8.718748 -0.578125l-0.09375 1.109375q-0.09375 0.046875 -0.4375 -0.015625q-0.59375 -0.15625 -0.59375 -0.71875l0 -2.734375l6.359375 -2.8125l-6.359375 -2.46875l0 -2.921875q0 -0.265625 0.140625 -0.4375q0.125 -0.1875 0.3125 -0.234375q0.484375 -0.09375 0.578125 -0.046875l0.09375 1.125l8.687498 -0.65625l0.09375 -1.171875q0.109375 -0.046875 0.4375 0.015625q0.609375 0.140625 0.609375 0.703125zm-0.71875 -9.068176q0.953125 0 0.953125 1.25q0 1.234375 -0.828125 1.609375q0.828125 1.015625 0.828125 2.234375q0 1.203125 -0.59375 1.90625q-0.59375 0.6875 -1.6406231 0.6875q-1.0625 0 -1.734375 -0.8125q-0.671875 -0.8125 -0.671875 -2.578125q0 -0.6875 0.109375 -1.3125l-0.71875 0q-1.09375 0 -1.5625 0.359375q-0.46875 0.359375 -0.46875 0.984375q0 0.625 0.40625 1.0q0.40625 0.375 1.09375 0.375q0.0625 0.640625 -0.203125 1.078125q-0.265625 0.421875 -0.8125 0.421875q-0.765625 0 -1.25 -0.796875q-0.5 -0.8125 -0.5 -2.078125q0 -3.296875 3.1875 -3.296875l4.281248 0l0.125 -1.03125zm-2.390623 2.984375q-0.203125 0.578125 -0.203125 1.21875q0 0.625 0.296875 1.046875q0.296875 0.40625 0.84375 0.40625q1.1093731 0 1.1093731 -1.140625q0 -0.828125 -0.4531231 -1.53125l-1.59375 0zm-3.796875 -6.7109985q-0.515625 -0.390625 -0.953125 -1.09375q-0.453125 -0.71875 -0.453125 -1.234375q0 -0.53125 0.34375 -0.875q0.328125 -0.359375 1.109375 -0.359375q0.765625 0 1.234375 0.53125q0.203125 0.28125 0.125 0.90625q-0.53125 0 -0.8125 0.109375q-0.28125 0.09375 -0.328125 0.203125q-0.0625 0.109375 -0.0625 0.296875q0 0.8125 1.046875 1.453125l4.515623 0l0.09375 -1.296875q1.046875 -0.109375 1.046875 0.71875l0 3.6875q0 0 -0.125 0q-0.890625 0 -0.953125 -0.703125l-0.03125 -0.46875l-5.718748 0l-0.078125 0.71875q-0.046875 0.484375 -0.96875 0.484375l-0.359375 -2.890625l1.328125 -0.140625l0 -0.046875zm-1.171875 -9.323883l0 -2.859375l0.125 0q0.875 0 0.9375 0.703125l0.03125 0.359375l2.203125 1.953125l3.640623 -2.625l0.09375 -1.078125q0.453125 -0.046875 0.75 0.203125q0.296875 0.234375 0.296875 0.59375l0 1.71875l-3.406248 2.390625l0.78125 0.71875l1.4843731 0l0.09375 -1.15625q0.109375 -0.046875 0.4375 0.015625q0.609375 0.140625 0.609375 0.703125l0 3.5625l-0.125 0q-0.890625 0 -0.953125 -0.703125l-0.03125 -0.484375l-8.921873 0l-0.0625 0.625q-0.0625 0.65625 -1.0 0.59375l-0.34375 -3.15625l7.171875 0l-2.671875 -2.265625l-0.109375 0.90625q-0.09375 0.0625 -0.421875 -0.015625q-0.609375 -0.140625 -0.609375 -0.703125zm4.15625 -6.2354126l0.171875 0q1.296875 0 1.9375 -0.46875q0.6249981 -0.46875 0.6249981 -1.625q0 -1.171875 -0.8749981 -2.28125q0.234375 -0.328125 0.7499981 -0.328125q0.5 0 1.03125 0.890625q0.515625 0.890625 0.515625 2.21875q0 1.71875 -1.015625 2.671875q-1.0156231 0.953125 -3.078123 0.953125q-2.078125 0 -3.265625 -1.03125q-1.1875 -1.03125 -1.1875 -2.84375q0 -1.53125 0.953125 -2.28125q0.953125 -0.765625 2.53125 -0.734375l0.90625 0l0 4.859375zm-3.125 -1.65625q0 1.3125 2.015625 1.578125l0 -2.90625q-1.078125 0.03125 -1.546875 0.375q-0.46875 0.328125 -0.46875 0.953125zm0.09375 -7.030121l4.421875 0q1.2968731 0 1.2968731 -0.828125q0 -0.609375 -0.15625 -1.015625q-0.1562481 -0.40625 -0.5468731 -0.875q0 -0.078125 0.21875 -0.203125q0.203125 -0.140625 0.4374981 -0.140625q0.625 0 1.078125 0.890625q0.4375 0.875 0.4375 1.71875q0 0.828125 -0.234375 1.3125q-0.21875 0.46875 -0.671875 0.703125q-0.734375 0.390625 -1.9531231 0.390625l-4.328125 0l0 1.328125q-1.125 0 -1.125 -0.78125l0 -0.546875l-2.046875 0l-0.21875 -1.953125l2.265625 0l0 -2.875q0.234375 -0.03125 0.546875 0.046875q0.578125 0.140625 0.578125 0.734375l0 2.09375zm6.953123 -11.598022l0 3.5625l-0.125 0q-0.890625 0 -0.953125 -0.703125l-0.03125 -0.5l-5.796873 0l-0.0625 0.625q-0.078125 0.65625 -1.0 0.59375l-0.34375 -3.15625l7.171873 0l0.09375 -1.140625q1.046875 -0.09375 1.046875 0.71875zm-10.218748 0.328125q0.484375 0 0.828125 0.34375q0.34375 0.328125 0.34375 0.84375q0 0.5 -0.34375 0.84375q-0.34375 0.34375 -0.828125 0.34375q-0.5 0 -0.84375 -0.34375q-0.34375 -0.34375 -0.34375 -0.84375q0 -0.5 0.34375 -0.84375q0.34375 -0.34375 0.84375 -0.34375zm10.218748 -10.713379l0 3.53125l-0.125 0q-0.890625 0 -0.953125 -0.703125l-0.03125 -0.453125l-3.937498 0q-0.921875 0 -1.296875 0.375q-0.375 0.359375 -0.375 1.015625q0 0.65625 0.171875 1.078125q0.171875 0.40625 0.5625 0.859375l4.843748 0l0.09375 -1.140625q1.046875 -0.09375 1.046875 0.71875l0 3.5625l-0.125 0q-0.890625 0 -0.953125 -0.703125l-0.03125 -0.5l-5.703123 0l-0.0625 0.625q-0.0625 0.65625 -1.0 0.59375l-0.34375 -2.890625l0.96875 -0.109375l0 -0.046875q-0.515625 -0.59375 -0.78125 -1.140625q-0.28125 -0.5625 -0.28125 -1.3125q0 -1.234375 0.828125 -2.078125q0.8125 -0.859375 2.53125 -0.859375l3.812498 0l0.09375 -1.140625q1.046875 -0.09375 1.046875 0.71875zm-10.953123 -6.5939026l0 -3.625q0 -1.953125 0.75 -2.84375q0.75 -0.890625 1.796875 -0.890625q1.953125 0 2.640625 2.0q0.171875 -1.125 0.765625 -1.796875q0.59375 -0.6875 1.65625 -0.6875q1.5625 0 2.453123 1.0625q0.890625 1.046875 0.890625 3.078125l0 4.3125q-0.984375 -0.015625 -1.0625 -0.640625l-0.0625 -0.515625l-8.718748 0l-0.09375 1.171875q-0.421875 0.046875 -0.71875 -0.15625q-0.296875 -0.203125 -0.296875 -0.46875zm1.015625 -2.546875l3.828125 0l0 -0.328125q0 -1.28125 -0.515625 -1.84375q-0.515625 -0.5625 -1.515625 -0.5625q-1.015625 0 -1.453125 0.578125q-0.4375 0.578125 -0.375 1.5l0.03125 0.609375l0 0.046875zm6.8125 -3.25q-2.0625 0 -2.03125 2.71875l0 0.53125l3.999998 0l0.015625 -0.765625q0.015625 -2.484375 -1.9843731 -2.484375zm3.124998 -6.4720154l0 3.5625l-0.125 0q-0.890625 0 -0.953125 -0.703125l-0.03125 -0.5l-5.796873 0l-0.0625 0.625q-0.078125 0.65625 -1.0 0.59375l-0.34375 -3.15625l7.171873 0l0.09375 -1.140625q1.046875 -0.09375 1.046875 0.71875zm-10.218748 0.328125q0.484375 0 0.828125 0.34375q0.34375 0.328125 0.34375 0.84375q0 0.5 -0.34375 0.84375q-0.34375 0.34375 -0.828125 0.34375q-0.5 0 -0.84375 -0.34375q-0.34375 -0.34375 -0.34375 -0.84375q0 -0.5 0.34375 -0.84375q0.34375 -0.34375 0.84375 -0.34375zm10.218748 -5.432129l0 3.5625l-0.125 0q-0.890625 0 -0.953125 -0.703125l-0.03125 -0.5l-8.921873 0l-0.0625 0.625q-0.0625 0.65625 -1.0 0.59375l-0.34375 -3.15625l10.296873 0l0.09375 -1.140625q1.046875 -0.09375 1.046875 0.71875zm0 -5.104004l0 3.5625l-0.125 0q-0.890625 0 -0.953125 -0.703125l-0.03125 -0.5l-8.921873 0l-0.0625 0.625q-0.0625 0.65625 -1.0 0.59375l-0.34375 -3.15625l10.296873 0l0.09375 -1.140625q1.046875 -0.09375 1.046875 0.71875zm0 -5.104004l0 3.5625l-0.125 0q-0.890625 0 -0.953125 -0.703125l-0.03125 -0.5l-5.796873 0l-0.0625 0.625q-0.078125 0.65625 -1.0 0.59375l-0.34375 -3.15625l7.171873 0l0.09375 -1.140625q1.046875 -0.09375 1.046875 0.71875zm-10.218748 0.328125q0.484375 0 0.828125 0.34375q0.34375 0.328125 0.34375 0.84375q0 0.5 -0.34375 0.84375q-0.34375 0.34375 -0.828125 0.34375q-0.5 0 -0.84375 -0.34375q-0.34375 -0.34375 -0.34375 -0.84375q0 -0.5 0.34375 -0.84375q0.34375 -0.34375 0.84375 -0.34375zm3.984375 -6.979004q-0.859375 0.453125 -0.859375 1.296875q0 0.828125 0.84375 1.28125q0.828125 0.453125 2.265625 0.453125q1.421875 0 2.21875 -0.453125q0.7968731 -0.453125 0.7968731 -1.28125q0 -0.84375 -0.7812481 -1.296875q-0.78125 -0.453125 -2.203125 -0.453125q-1.4375 0 -2.28125 0.453125zm2.328125 5.0625q-2.046875 0 -3.21875 -1.015625q-1.1875 -1.015625 -1.1875 -2.8125q0 -1.8125 1.140625 -2.765625q1.125 -0.953125 3.140625 -0.953125q2.0 0 3.140623 1.03125q1.125 1.015625 1.125 2.84375q0 1.828125 -1.046875 2.75q-1.0624981 0.921875 -3.093748 0.921875zm3.906248 -17.468903l0 3.53125l-0.125 0q-0.890625 0 -0.953125 -0.703125l-0.03125 -0.453125l-3.937498 0q-0.921875 0 -1.296875 0.375q-0.375 0.359375 -0.375 1.015625q0 0.65625 0.171875 1.078125q0.171875 0.40625 0.5625 0.859375l4.843748 0l0.09375 -1.140625q1.046875 -0.09375 1.046875 0.71875l0 3.5625l-0.125 0q-0.890625 0 -0.953125 -0.703125l-0.03125 -0.5l-5.703123 0l-0.0625 0.625q-0.0625 0.65625 -1.0 0.59375l-0.34375 -2.890625l0.96875 -0.109375l0 -0.046875q-0.515625 -0.59375 -0.78125 -1.140625q-0.28125 -0.5625 -0.28125 -1.3125q0 -1.234375 0.828125 -2.078125q0.8125 -0.859375 2.53125 -0.859375l3.812498 0l0.09375 -1.140625q1.046875 -0.09375 1.046875 0.71875zm-7.734373 -6.7590027q0.359375 -0.390625 0.921875 -0.390625q0.5625 0 0.875 0.359375q0.296875 0.359375 0.203125 0.921875q-0.578125 0 -0.984375 0.46875q-0.421875 0.453125 -0.421875 1.03125q0 0.5625 0.21875 0.875q0.21875 0.296875 0.578125 0.296875q0.34375 0 0.625 -0.4375q0.28125 -0.453125 0.609375 -1.25q0.3125 -0.8125 0.5 -1.15625q0.171875 -0.359375 0.484375 -0.765625q0.578125 -0.765625 1.703125 -0.765625q1.1249981 0 1.8906231 0.921875q0.765625 0.90625 0.765625 2.421875q0 1.125 -0.40625 1.96875q-0.421875 0.828125 -1.25 0.828125q-0.5624981 0 -0.8749981 -0.390625q-0.3125 -0.40625 -0.3125 -0.953125q1.6406231 -0.203125 1.6406231 -1.84375q0 -1.328125 -0.8906231 -1.328125q-0.578125 0 -0.921875 0.703125q-0.203125 0.375 -0.40625 0.921875q-0.21875 0.546875 -0.375 0.859375q-0.15625 0.3125 -0.390625 0.6875q-0.234375 0.359375 -0.5 0.59375q-0.59375 0.53125 -1.4375 0.53125q-1.15625 0 -1.78125 -0.921875q-0.640625 -0.9375 -0.640625 -2.234375q0 -1.296875 0.578125 -1.953125zm1.5 -11.12265q-0.859375 0.453125 -0.859375 1.296875q0 0.828125 0.84375 1.28125q0.828125 0.453125 2.265625 0.453125q1.421875 0 2.21875 -0.453125q0.7968731 -0.453125 0.7968731 -1.28125q0 -0.84375 -0.7812481 -1.296875q-0.78125 -0.453125 -2.203125 -0.453125q-1.4375 0 -2.28125 0.453125zm2.328125 5.0625q-2.046875 0 -3.21875 -1.015625q-1.1875 -1.015625 -1.1875 -2.8125q0 -1.8125 1.140625 -2.765625q1.125 -0.953125 3.140625 -0.953125q2.0 0 3.140623 1.03125q1.125 1.015625 1.125 2.84375q0 1.828125 -1.046875 2.75q-1.0624981 0.921875 -3.093748 0.921875zm-4.171875 -9.765778l-0.4375 0q-1.34375 0 -2.234375 -0.84375q-0.90625 -0.859375 -0.9375 -2.234375q-0.03125 -1.796875 1.09375 -1.796875q0.546875 0 0.8125 0.359375q0.25 0.34375 0.25 0.90625q-1.03125 0 -1.03125 0.78125q0 0.890625 1.984375 0.890625l0.5 0l0 -2.0625q1.125 -0.09375 1.125 0.75l0 1.3125l5.812498 0l0 -0.015625l0.09375 -1.625q0.109375 -0.046875 0.4375 0.015625q0.609375 0.140625 0.609375 0.703125l0 4.03125l-0.125 0q-0.890625 0 -0.953125 -0.703125l-0.03125 -0.453125l-5.843748 -0.015625l0 1.140625q-1.125 0 -1.125 -0.78125l0 -0.359375zm-2.875 -16.59201l0 -2.890625q0 0 0.125 0q0.875 0 0.9375 0.703125l0.03125 0.46875l5.21875 0q2.53125 0 3.703123 1.015625q1.171875 1.015625 1.171875 3.0q0 1.984375 -1.109375 3.015625q-1.1093731 1.015625 -3.781248 1.015625l-5.171875 0l-0.09375 1.15625q-0.09375 0.046875 -0.4375 -0.015625q-0.59375 -0.15625 -0.59375 -0.703125l0 -3.609375l0.125 0q0.875 0 0.9375 0.703125l0.03125 0.46875l5.453125 0q1.765625 0 2.5625 -0.484375q0.7968731 -0.5 0.7968731 -1.75q0 -2.53125 -3.156248 -2.53125l-5.625 0.015625l-0.09375 1.140625q-1.03125 0.09375 -1.03125 -0.71875zm0.546875 -10.157166q0.46875 -0.453125 1.15625 -0.453125q0.6875 0 1.046875 0.421875q0.34375 0.40625 0.25 1.0625q-2.03125 0 -2.03125 1.78125q0 0.78125 0.359375 1.265625q0.359375 0.484375 0.984375 0.484375q0.484375 0 0.71875 -0.21875q0.21875 -0.21875 0.328125 -0.328125q0.109375 -0.125 0.28125 -0.4375q0.15625 -0.3125 0.21875 -0.4375q0.0625 -0.140625 0.25 -0.5625q0.1875 -0.421875 0.25 -0.578125q0.71875 -1.625 1.375 -2.28125q0.65625 -0.671875 1.828125 -0.671875q1.609375 0 2.624998 1.140625q1.0 1.125 1.0 3.0625q0 1.953125 -0.875 2.9375q-0.5 0.515625 -1.1562481 0.515625q-0.671875 0 -1.046875 -0.421875q-0.390625 -0.421875 -0.390625 -1.265625q1.171875 0 1.71875 -0.484375q0.5468731 -0.5 0.5468731 -1.546875q0 -1.0625 -0.4843731 -1.671875q-0.5 -0.609375 -1.234375 -0.609375q-0.734375 0 -1.171875 0.578125q-0.453125 0.578125 -0.875 1.546875q-0.421875 0.953125 -0.546875 1.265625q-0.140625 0.296875 -0.453125 0.796875q-0.3125 0.484375 -0.609375 0.71875q-0.765625 0.625 -1.75 0.625q-1.515625 0 -2.3125 -1.125q-0.796875 -1.125 -0.796875 -2.703125q0 -1.578125 0.796875 -2.40625zm-0.546875 -7.191025l0 -3.75q0 -5.59375 5.421875 -5.59375q2.6875 0 4.109373 1.453125q1.421875 1.453125 1.421875 4.0625l0 4.65625q-0.390625 0.046875 -0.703125 -0.078125q-0.328125 -0.140625 -0.359375 -0.484375l-0.0625 -0.578125l-8.703123 0l0 0.015625l-0.09375 1.125q-0.5625 0.015625 -0.796875 -0.15625q-0.234375 -0.171875 -0.234375 -0.671875zm9.843748 -3.34375q0.140625 -2.0625 -0.9062481 -2.984375q-1.046875 -0.9375 -3.453125 -0.9375q-2.40625 0 -3.4375 0.953125q-1.03125 0.953125 -0.953125 3.109375l0.03125 0.890625l8.656248 0l0.0625 -1.03125zm-5.124998 -12.188904q-0.859375 0.453125 -0.859375 1.296875q0 0.828125 0.84375 1.28125q0.828125 0.453125 2.265625 0.453125q1.421875 0 2.21875 -0.453125q0.7968731 -0.453125 0.7968731 -1.28125q0 -0.84375 -0.7812481 -1.296875q-0.78125 -0.453125 -2.203125 -0.453125q-1.4375 0 -2.28125 0.453125zm2.328125 5.0625q-2.046875 0 -3.21875 -1.015625q-1.1875 -1.015625 -1.1875 -2.8125q0 -1.8125 1.140625 -2.765625q1.125 -0.953125 3.140625 -0.953125q2.0 0 3.140623 1.03125q1.125 1.015625 1.125 2.84375q0 1.828125 -1.046875 2.75q-1.0624981 0.921875 -3.093748 0.921875zm3.906248 -12.187622l0 3.5625l-0.125 0q-0.890625 0 -0.953125 -0.703125l-0.03125 -0.5l-8.921873 0l-0.0625 0.625q-0.0625 0.65625 -1.0 0.59375l-0.34375 -3.15625l10.296873 0l0.09375 -1.140625q1.046875 -0.09375 1.046875 0.71875zm0 -5.104004l0 3.5625l-0.125 0q-0.890625 0 -0.953125 -0.703125l-0.03125 -0.5l-8.921873 0l-0.0625 0.625q-0.0625 0.65625 -1.0 0.59375l-0.34375 -3.15625l10.296873 0l0.09375 -1.140625q1.046875 -0.09375 1.046875 0.71875zm-0.71875 -9.197754q0.953125 0 0.953125 1.25q0 1.234375 -0.828125 1.609375q0.828125 1.015625 0.828125 2.234375q0 1.203125 -0.59375 1.90625q-0.59375 0.6875 -1.6406231 0.6875q-1.0625 0 -1.734375 -0.8125q-0.671875 -0.8125 -0.671875 -2.578125q0 -0.6875 0.109375 -1.3125l-0.71875 0q-1.09375 0 -1.5625 0.359375q-0.46875 0.359375 -0.46875 0.984375q0 0.625 0.40625 1.0q0.40625 0.375 1.09375 0.375q0.0625 0.640625 -0.203125 1.078125q-0.265625 0.421875 -0.8125 0.421875q-0.765625 0 -1.25 -0.796875q-0.5 -0.8125 -0.5 -2.078125q0 -3.296875 3.1875 -3.296875l4.281248 0l0.125 -1.03125zm-2.390623 2.984375q-0.203125 0.578125 -0.203125 1.21875q0 0.625 0.296875 1.046875q0.296875 0.40625 0.84375 0.40625q1.1093731 0 1.1093731 -1.140625q0 -0.828125 -0.4531231 -1.53125l-1.59375 0zm-3.796875 -6.7109985q-0.515625 -0.390625 -0.953125 -1.09375q-0.453125 -0.71875 -0.453125 -1.234375q0 -0.53125 0.34375 -0.875q0.328125 -0.359375 1.109375 -0.359375q0.765625 0 1.234375 0.53125q0.203125 0.28125 0.125 0.90625q-0.53125 0 -0.8125 0.109375q-0.28125 0.09375 -0.328125 0.203125q-0.0625 0.109375 -0.0625 0.296875q0 0.8125 1.046875 1.453125l4.515623 0l0.09375 -1.296875q1.046875 -0.109375 1.046875 0.71875l0 3.6875q0 0 -0.125 0q-0.890625 0 -0.953125 -0.703125l-0.03125 -0.46875l-5.718748 0l-0.078125 0.71875q-0.046875 0.484375 -0.96875 0.484375l-0.359375 -2.890625l1.328125 -0.140625l0 -0.046875zm-0.828125 -9.323883q0.359375 -0.390625 0.921875 -0.390625q0.5625 0 0.875 0.359375q0.296875 0.359375 0.203125 0.921875q-0.578125 0 -0.984375 0.46875q-0.421875 0.453125 -0.421875 1.03125q0 0.5625 0.21875 0.875q0.21875 0.296875 0.578125 0.296875q0.34375 0 0.625 -0.4375q0.28125 -0.453125 0.609375 -1.25q0.3125 -0.8125 0.5 -1.15625q0.171875 -0.359375 0.484375 -0.765625q0.578125 -0.765625 1.703125 -0.765625q1.1249981 0 1.8906231 0.921875q0.765625 0.90625 0.765625 2.421875q0 1.125 -0.40625 1.96875q-0.421875 0.828125 -1.25 0.828125q-0.5624981 0 -0.8749981 -0.390625q-0.3125 -0.40625 -0.3125 -0.953125q1.6406231 -0.203125 1.6406231 -1.84375q0 -1.328125 -0.8906231 -1.328125q-0.578125 0 -0.921875 0.703125q-0.203125 0.375 -0.40625 0.921875q-0.21875 0.546875 -0.375 0.859375q-0.15625 0.3125 -0.390625 0.6875q-0.234375 0.359375 -0.5 0.59375q-0.59375 0.53125 -1.4375 0.53125q-1.15625 0 -1.78125 -0.921875q-0.640625 -0.9375 -0.640625 -2.234375q0 -1.296875 0.578125 -1.953125zm-3.21875 -6.982025l0 -3.75q0 -5.59375 5.421875 -5.59375q2.6875 0 4.109373 1.453125q1.421875 1.453125 1.421875 4.0625l0 4.65625q-0.390625 0.046875 -0.703125 -0.078125q-0.328125 -0.140625 -0.359375 -0.484375l-0.0625 -0.578125l-8.703123 0l0 0.015625l-0.09375 1.125q-0.5625 0.015625 -0.796875 -0.15625q-0.234375 -0.171875 -0.234375 -0.671875zm9.843748 -3.34375q0.140625 -2.0625 -0.9062481 -2.984375q-1.046875 -0.9375 -3.453125 -0.9375q-2.40625 0 -3.4375 0.953125q-1.03125 0.953125 -0.953125 3.109375l0.03125 0.890625l8.656248 0l0.0625 -1.03125zm-5.124998 -12.188904q-0.859375 0.453125 -0.859375 1.296875q0 0.828125 0.84375 1.28125q0.828125 0.453125 2.265625 0.453125q1.421875 0 2.21875 -0.453125q0.7968731 -0.453125 0.7968731 -1.28125q0 -0.84375 -0.7812481 -1.296875q-0.78125 -0.453125 -2.203125 -0.453125q-1.4375 0 -2.28125 0.453125zm2.328125 5.0625q-2.046875 0 -3.21875 -1.015625q-1.1875 -1.015625 -1.1875 -2.8125q0 -1.8125 1.140625 -2.765625q1.125 -0.953125 3.140625 -0.953125q2.0 0 3.140623 1.03125q1.125 1.015625 1.125 2.84375q0 1.828125 -1.046875 2.75q-1.0624981 0.921875 -3.093748 0.921875zm3.906248 -12.187622l0 3.5625l-0.125 0q-0.890625 0 -0.953125 -0.703125l-0.03125 -0.5l-8.921873 0l-0.0625 0.625q-0.0625 0.65625 -1.0 0.59375l-0.34375 -3.15625l10.296873 0l0.09375 -1.140625q1.046875 -0.09375 1.046875 0.71875zm0 -5.104004l0 3.5625l-0.125 0q-0.890625 0 -0.953125 -0.703125l-0.03125 -0.5l-8.921873 0l-0.0625 0.625q-0.0625 0.65625 -1.0 0.59375l-0.34375 -3.15625l10.296873 0l0.09375 -1.140625q1.046875 -0.09375 1.046875 0.71875zm-0.71875 -9.197754q0.953125 0 0.953125 1.25q0 1.234375 -0.828125 1.609375q0.828125 1.015625 0.828125 2.234375q0 1.203125 -0.59375 1.90625q-0.59375 0.6875 -1.6406231 0.6875q-1.0625 0 -1.734375 -0.8125q-0.671875 -0.8125 -0.671875 -2.578125q0 -0.6875 0.109375 -1.3125l-0.71875 0q-1.09375 0 -1.5625 0.359375q-0.46875 0.359375 -0.46875 0.984375q0 0.625 0.40625 1.0q0.40625 0.375 1.09375 0.375q0.0625 0.640625 -0.203125 1.078125q-0.265625 0.421875 -0.8125 0.421875q-0.765625 0 -1.25 -0.796875q-0.5 -0.8125 -0.5 -2.078125q0 -3.296875 3.1875 -3.296875l4.281248 0l0.125 -1.03125zm-2.390623 2.984375q-0.203125 0.578125 -0.203125 1.21875q0 0.625 0.296875 1.046875q0.296875 0.40625 0.84375 0.40625q1.1093731 0 1.1093731 -1.140625q0 -0.828125 -0.4531231 -1.53125l-1.59375 0zm-3.796875 -6.7109985q-0.515625 -0.390625 -0.953125 -1.09375q-0.453125 -0.71875 -0.453125 -1.234375q0 -0.53125 0.34375 -0.875q0.328125 -0.359375 1.109375 -0.359375q0.765625 0 1.234375 0.53125q0.203125 0.28125 0.125 0.90625q-0.53125 0 -0.8125 0.109375q-0.28125 0.09375 -0.328125 0.203125q-0.0625 0.109375 -0.0625 0.296875q0 0.8125 1.046875 1.453125l4.515623 0l0.09375 -1.296875q1.046875 -0.109375 1.046875 0.71875l0 3.6875q0 0 -0.125 0q-0.890625 0 -0.953125 -0.703125l-0.03125 -0.46875l-5.718748 0l-0.078125 0.71875q-0.046875 0.484375 -0.96875 0.484375l-0.359375 -2.890625l1.328125 -0.140625l0 -0.046875zm-0.828125 -9.323883q0.359375 -0.390625 0.921875 -0.390625q0.5625 0 0.875 0.359375q0.296875 0.359375 0.203125 0.921875q-0.578125 0 -0.984375 0.46875q-0.421875 0.453125 -0.421875 1.03125q0 0.5625 0.21875 0.875q0.21875 0.296875 0.578125 0.296875q0.34375 0 0.625 -0.4375q0.28125 -0.453125 0.609375 -1.25q0.3125 -0.8125 0.5 -1.15625q0.171875 -0.359375 0.484375 -0.765625q0.578125 -0.765625 1.703125 -0.765625q1.1249981 0 1.8906231 0.921875q0.765625 0.90625 0.765625 2.421875q0 1.125 -0.40625 1.96875q-0.421875 0.828125 -1.25 0.828125q-0.5624981 0 -0.8749981 -0.390625q-0.3125 -0.40625 -0.3125 -0.953125q1.6406231 -0.203125 1.6406231 -1.84375q0 -1.328125 -0.8906231 -1.328125q-0.578125 0 -0.921875 0.703125q-0.203125 0.375 -0.40625 0.921875q-0.21875 0.546875 -0.375 0.859375q-0.15625 0.3125 -0.390625 0.6875q-0.234375 0.359375 -0.5 0.59375q-0.59375 0.53125 -1.4375 0.53125q-1.15625 0 -1.78125 -0.921875q-0.640625 -0.9375 -0.640625 -2.234375q0 -1.296875 0.578125 -1.953125z" fill-rule="nonzero"></path><path fill="#000000" fill-opacity="0.0" d="m129.55643 284.08136l63.055115 0l0 34.33072l-63.055115 0z" fill-rule="evenodd"></path><path fill="#000000" d="m145.31079 304.30887q0 -1.3125 1.203125 -2.203125q1.21875 -0.90625 3.109375 -0.90625q1.90625 0 3.0625 1.046875q1.15625 1.03125 1.15625 2.78125q0 2.640625 -2.6875 5.765625q-0.9375 1.078125 -1.4375 1.59375q-0.484375 0.5 -1.515625 1.46875q-1.015625 0.953125 -1.140625 1.0625l5.796875 -0.0625l0.203125 -1.46875q0.078125 -0.5 0.484375 -0.6875q0.40625 -0.203125 0.65625 -0.0625l0 3.484375l-9.09375 0q-0.203125 -0.578125 -0.15625 -0.859375q1.0625 -0.9375 2.625 -2.578125q1.578125 -1.65625 1.953125 -2.140625q0.390625 -0.5 0.96875 -1.28125q0.578125 -0.796875 0.84375 -1.390625q0.71875 -1.546875 0.71875 -2.734375q0 -1.1875 -0.703125 -1.9375q-0.6875 -0.765625 -1.984375 -0.765625q-1.296875 0 -1.984375 0.84375q-0.6875 0.84375 -0.6875 2.359375q-0.5625 0.015625 -0.984375 -0.296875q-0.40625 -0.3125 -0.40625 -1.03125zm10.94397 0q0 -1.3125 1.203125 -2.203125q1.21875 -0.90625 3.109375 -0.90625q1.90625 0 3.0625 1.046875q1.15625 1.03125 1.15625 2.78125q0 2.640625 -2.6875 5.765625q-0.9375 1.078125 -1.4375 1.59375q-0.484375 0.5 -1.515625 1.46875q-1.015625 0.953125 -1.140625 1.0625l5.796875 -0.0625l0.203125 -1.46875q0.078125 -0.5 0.484375 -0.6875q0.40625 -0.203125 0.65625 -0.0625l0 3.484375l-9.09375 0q-0.203125 -0.578125 -0.15625 -0.859375q1.0625 -0.9375 2.625 -2.578125q1.578125 -1.65625 1.953125 -2.140625q0.390625 -0.5 0.96875 -1.28125q0.578125 -0.796875 0.84375 -1.390625q0.71875 -1.546875 0.71875 -2.734375q0 -1.1875 -0.703125 -1.9375q-0.6875 -0.765625 -1.984375 -0.765625q-1.296875 0 -1.984375 0.84375q-0.6875 0.84375 -0.6875 2.359375q-0.5625 0.015625 -0.984375 -0.296875q-0.40625 -0.3125 -0.40625 -1.03125zm19.25647 4.625q0 -3.296875 -0.84375 -4.890625q-0.84375 -1.609375 -2.640625 -1.609375q-1.78125 0 -2.640625 1.65625q-0.84375 1.640625 -0.84375 4.90625q0 3.265625 0.84375 4.75q0.859375 1.484375 2.65625 1.484375q1.8125 0 2.640625 -1.5q0.828125 -1.5 0.828125 -4.796875zm-3.46875 -7.734375q2.671875 -0.03125 3.921875 1.875q1.265625 1.90625 1.265625 5.8125q0 3.890625 -1.28125 5.75q-1.28125 1.84375 -3.921875 1.84375q-2.640625 0 -3.921875 -1.84375q-1.28125 -1.859375 -1.28125 -5.71875q0 -3.859375 1.28125 -5.78125q1.28125 -1.921875 3.9375 -1.9375z" fill-rule="nonzero"></path><path fill="#000000" fill-opacity="0.0" d="m48.931633 123.32818l54.677162 0l0 22.677162l-54.677162 0z" fill-rule="evenodd"></path><path fill="#000000" d="m63.587883 146.49318q0.703125 -0.34375 1.171875 -1.0q0.46875 -0.65625 0.46875 -1.625q0 -0.984375 -0.609375 -1.59375q-0.609375 -0.609375 -1.6875 -0.609375q-1.0625 0 -1.625 0.640625q-0.5625 0.625 -0.59375 1.703125q-0.6875 -0.046875 -1.046875 -0.390625q-0.359375 -0.34375 -0.296875 -0.890625q0.078125 -0.9375 1.109375 -1.609375q1.046875 -0.671875 2.6875 -0.671875q1.65625 0 2.75 0.90625q1.109375 0.90625 1.109375 2.421875q0 1.125 -0.71875 2.109375q-0.71875 0.96875 -2.1875 1.546875q1.65625 0.25 2.625 1.28125q0.984375 1.015625 0.984375 2.546875q0 1.921875 -1.484375 3.203125q-1.46875 1.265625 -3.796875 1.265625q-1.609375 0 -2.65625 -0.609375q-1.046875 -0.609375 -1.046875 -1.59375q0 -0.984375 1.0625 -1.203125q0.1875 1.0 0.890625 1.609375q0.71875 0.59375 2.0625 0.59375q1.34375 0 2.265625 -0.875q0.921875 -0.890625 0.875 -2.203125q-0.03125 -1.3125 -0.828125 -2.015625q-0.78125 -0.703125 -1.796875 -0.890625q-1.0 -0.203125 -2.203125 -0.109375l-0.015625 -1.3125q1.21875 0 2.53125 -0.625zm9.971222 -0.171875q1.96875 0 3.203125 1.0625q1.25 1.046875 1.25 3.265625q0 2.21875 -1.4375 3.65625q-1.4375 1.421875 -3.734375 1.421875q-1.703125 0 -2.6875 -0.546875q-0.96875 -0.5625 -0.96875 -1.5q0 -0.515625 0.34375 -0.75q0.359375 -0.25 0.765625 -0.28125q0.265625 1.875 2.640625 1.875q1.484375 0 2.390625 -1.03125q0.921875 -1.03125 0.921875 -2.6875q0 -1.671875 -0.9375 -2.375q-0.9375 -0.71875 -2.28125 -0.71875q-1.34375 0 -2.5 0.59375l-0.3125 -0.15625l0.34375 -7.5l6.375 0.03125l-0.09375 1.421875l-5.109375 0l-0.171875 4.484375q0.984375 -0.265625 2.0 -0.265625zm14.543716 1.859375q0 -3.296875 -0.84375 -4.890625q-0.84375 -1.609375 -2.640625 -1.609375q-1.78125 0 -2.640625 1.65625q-0.84375 1.640625 -0.84375 4.90625q0 3.265625 0.84375 4.75q0.859375 1.484375 2.65625 1.484375q1.8125 0 2.640625 -1.5q0.828125 -1.5 0.828125 -4.796875zm-3.46875 -7.734375q2.671875 -0.03125 3.921875 1.875q1.265625 1.90625 1.265625 5.8125q0 3.890625 -1.28125 5.75q-1.28125 1.84375 -3.921875 1.84375q-2.640625 0 -3.921875 -1.84375q-1.28125 -1.859375 -1.28125 -5.71875q0 -3.859375 1.28125 -5.78125q1.28125 -1.921875 3.9375 -1.9375z" fill-rule="nonzero"></path><path fill="#000000" fill-opacity="0.0" d="m48.92901 328.8163l54.677162 0l0 22.677155l-54.677162 0z" fill-rule="evenodd"></path><path fill="#000000" d="m59.14776 349.04382q0 -1.3125 1.203125 -2.203125q1.21875 -0.90625 3.109375 -0.90625q1.90625 0 3.0625 1.046875q1.15625 1.03125 1.15625 2.78125q0 2.640625 -2.6875 5.765625q-0.9375 1.078125 -1.4375 1.59375q-0.484375 0.5 -1.515625 1.46875q-1.015625 0.953125 -1.140625 1.0625l5.796875 -0.0625l0.203125 -1.46875q0.078125 -0.5 0.484375 -0.6875q0.40625 -0.203125 0.65625 -0.0625l0 3.484375l-9.09375 0q-0.203125 -0.578125 -0.15625 -0.859375q1.0625 -0.9375 2.625 -2.578125q1.578125 -1.65625 1.953125 -2.140625q0.390625 -0.5 0.96875 -1.28125q0.578125 -0.796875 0.84375 -1.390625q0.71875 -1.546875 0.71875 -2.734375q0 -1.1875 -0.703125 -1.9375q-0.6875 -0.765625 -1.984375 -0.765625q-1.296875 0 -1.984375 0.84375q-0.6875 0.84375 -0.6875 2.359375q-0.5625 0.015625 -0.984375 -0.296875q-0.40625 -0.3125 -0.40625 -1.03125zm19.25647 4.625q0 -3.296875 -0.84375 -4.890625q-0.84375 -1.609375 -2.640625 -1.609375q-1.78125 0 -2.640625 1.65625q-0.84375 1.640625 -0.84375 4.90625q0 3.265625 0.84375 4.75q0.859375 1.484375 2.65625 1.484375q1.8125 0 2.640625 -1.5q0.828125 -1.5 0.828125 -4.796875zm-3.46875 -7.734375q2.671875 -0.03125 3.921875 1.875q1.265625 1.90625 1.265625 5.8125q0 3.890625 -1.28125 5.75q-1.28125 1.84375 -3.921875 1.84375q-2.640625 0 -3.921875 -1.84375q-1.28125 -1.859375 -1.28125 -5.71875q0 -3.859375 1.28125 -5.78125q1.28125 -1.921875 3.9375 -1.9375zm15.564713 7.734375q0 -3.296875 -0.84375 -4.890625q-0.84375 -1.609375 -2.640625 -1.609375q-1.78125 0 -2.640625 1.65625q-0.84375 1.640625 -0.84375 4.90625q0 3.265625 0.84375 4.75q0.859375 1.484375 2.65625 1.484375q1.8125 0 2.640625 -1.5q0.828125 -1.5 0.828125 -4.796875zm-3.46875 -7.734375q2.671875 -0.03125 3.921875 1.875q1.265625 1.90625 1.265625 5.8125q0 3.890625 -1.28125 5.75q-1.28125 1.84375 -3.921875 1.84375q-2.640625 0 -3.921875 -1.84375q-1.28125 -1.859375 -1.28125 -5.71875q0 -3.859375 1.28125 -5.78125q1.28125 -1.921875 3.9375 -1.9375z" fill-rule="nonzero"></path><path fill="#000000" fill-opacity="0.0" d="m45.424393 237.11255l54.67717 0l0 22.677155l-54.67717 0z" fill-rule="evenodd"></path><path fill="#000000" d="m55.643143 279.34006q0 -1.3125 1.203125 -2.203125q1.21875 -0.90625 3.109375 -0.90625q1.90625 0 3.0625 1.046875q1.15625 1.03125 1.15625 2.78125q0 2.640625 -2.6875 5.765625q-0.9375 1.078125 -1.4375 1.59375q-0.484375 0.5 -1.515625 1.46875q-1.015625 0.953125 -1.140625 1.0625l5.796875 -0.0625l0.203125 -1.46875q0.078125 -0.5 0.484375 -0.6875q0.40625 -0.203125 0.65625 -0.0625l0 3.484375l-9.09375 0q-0.203125 -0.578125 -0.15625 -0.859375q1.0625 -0.9375 2.625 -2.578125q1.578125 -1.65625 1.953125 -2.140625q0.390625 -0.5 0.96875 -1.28125q0.578125 -0.796875 0.84375 -1.390625q0.71875 -1.546875 0.71875 -2.734375q0 -1.1875 -0.703125 -1.9375q-0.6875 -0.765625 -1.984375 -0.765625q-1.296875 0 -1.984375 0.84375q-0.6875 0.84375 -0.6875 2.359375q-0.5625 0.015625 -0.984375 -0.296875q-0.40625 -0.3125 -0.40625 -1.03125zm14.91272 2.765625q1.96875 0 3.203125 1.0625q1.25 1.046875 1.25 3.265625q0 2.21875 -1.4375 3.65625q-1.4375 1.421875 -3.734375 1.421875q-1.703125 0 -2.6875 -0.546875q-0.96875 -0.5625 -0.96875 -1.5q0 -0.515625 0.34375 -0.75q0.359375 -0.25 0.765625 -0.28125q0.265625 1.875 2.640625 1.875q1.484375 0 2.390625 -1.03125q0.921875 -1.03125 0.921875 -2.6875q0 -1.671875 -0.9375 -2.375q-0.9375 -0.71875 -2.28125 -0.71875q-1.34375 0 -2.5 0.59375l-0.3125 -0.15625l0.34375 -7.5l6.375 0.03125l-0.09375 1.421875l-5.109375 0l-0.171875 4.484375q0.984375 -0.265625 2.0 -0.265625zm14.543716 1.859375q0 -3.296875 -0.84375 -4.890625q-0.84375 -1.609375 -2.640625 -1.609375q-1.78125 0 -2.640625 1.65625q-0.84375 1.640625 -0.84375 4.90625q0 3.265625 0.84375 4.75q0.859375 1.484375 2.65625 1.484375q1.8125 0 2.640625 -1.5q0.828125 -1.5 0.828125 -4.796875zm-3.46875 -7.734375q2.671875 -0.03125 3.921875 1.875q1.265625 1.90625 1.265625 5.8125q0 3.890625 -1.28125 5.75q-1.28125 1.84375 -3.921875 1.84375q-2.640625 0 -3.921875 -1.84375q-1.28125 -1.859375 -1.28125 -5.71875q0 -3.859375 1.28125 -5.78125q1.28125 -1.921875 3.9375 -1.9375z" fill-rule="nonzero"></path><path fill="#000000" fill-opacity="0.0" d="m48.92901 194.44289l54.683807 0l0 22.671387l-54.683807 0z" fill-rule="evenodd"></path><path fill="#000000" d="m63.58526 217.6079q0.703125 -0.34375 1.171875 -1.0q0.46875 -0.65625 0.46875 -1.625q0 -0.984375 -0.609375 -1.59375q-0.609375 -0.609375 -1.6875 -0.609375q-1.0625 0 -1.625 0.640625q-0.5625 0.625 -0.59375 1.703125q-0.6875 -0.046875 -1.046875 -0.390625q-0.359375 -0.34375 -0.296875 -0.890625q0.078125 -0.9375 1.109375 -1.609375q1.046875 -0.671875 2.6875 -0.671875q1.65625 0 2.75 0.90625q1.109375 0.90625 1.109375 2.421875q0 1.125 -0.71875 2.109375q-0.71875 0.96875 -2.1875 1.546875q1.65625 0.25 2.625 1.28125q0.984375 1.015625 0.984375 2.546875q0 1.921875 -1.484375 3.203125q-1.46875 1.265625 -3.796875 1.265625q-1.609375 0 -2.65625 -0.609375q-1.046875 -0.609375 -1.046875 -1.59375q0 -0.984375 1.0625 -1.203125q0.1875 1.0 0.890625 1.609375q0.71875 0.59375 2.0625 0.59375q1.34375 0 2.265625 -0.875q0.921875 -0.890625 0.875 -2.203125q-0.03125 -1.3125 -0.828125 -2.015625q-0.78125 -0.703125 -1.796875 -0.890625q-1.0 -0.203125 -2.203125 -0.109375l-0.015625 -1.3125q1.21875 0 2.53125 -0.625zm14.314972 1.6875q0 -3.296875 -0.84375 -4.890625q-0.84375 -1.609375 -2.640625 -1.609375q-1.78125 0 -2.640625 1.65625q-0.84375 1.640625 -0.84375 4.90625q0 3.265625 0.84375 4.75q0.859375 1.484375 2.65625 1.484375q1.8125 0 2.640625 -1.5q0.828125 -1.5 0.828125 -4.796875zm-3.46875 -7.734375q2.671875 -0.03125 3.921875 1.875q1.265625 1.90625 1.265625 5.8125q0 3.890625 -1.28125 5.75q-1.28125 1.84375 -3.921875 1.84375q-2.640625 0 -3.921875 -1.84375q-1.28125 -1.859375 -1.28125 -5.71875q0 -3.859375 1.28125 -5.78125q1.28125 -1.921875 3.9375 -1.9375zm15.564713 7.734375q0 -3.296875 -0.84375 -4.890625q-0.84375 -1.609375 -2.640625 -1.609375q-1.78125 0 -2.640625 1.65625q-0.84375 1.640625 -0.84375 4.90625q0 3.265625 0.84375 4.75q0.859375 1.484375 2.65625 1.484375q1.8125 0 2.640625 -1.5q0.828125 -1.5 0.828125 -4.796875zm-3.46875 -7.734375q2.671875 -0.03125 3.921875 1.875q1.265625 1.90625 1.265625 5.8125q0 3.890625 -1.28125 5.75q-1.28125 1.84375 -3.921875 1.84375q-2.640625 0 -3.921875 -1.84375q-1.28125 -1.859375 -1.28125 -5.71875q0 -3.859375 1.28125 -5.78125q1.28125 -1.921875 3.9375 -1.9375z" fill-rule="nonzero"></path><path fill="#000000" fill-opacity="0.0" d="m65.34549 597.8511l54.683807 0l0 22.671387l-54.683807 0z" fill-rule="evenodd"></path><path fill="#000000" d="m83.87674 622.70355q0 -3.296875 -0.84375 -4.890625q-0.84375 -1.609375 -2.640625 -1.609375q-1.78125 0 -2.640625 1.65625q-0.84375 1.640625 -0.84375 4.90625q0 3.265625 0.84375 4.75q0.859375 1.484375 2.65625 1.484375q1.8125 0 2.640625 -1.5q0.828125 -1.5 0.828125 -4.796875zm-3.46875 -7.734375q2.671875 -0.03125 3.921875 1.875q1.265625 1.90625 1.265625 5.8125q0 3.890625 -1.28125 5.75q-1.28125 1.84375 -3.921875 1.84375q-2.640625 0 -3.921875 -1.84375q-1.28125 -1.859375 -1.28125 -5.71875q0 -3.859375 1.28125 -5.78125q1.28125 -1.921875 3.9375 -1.9375z" fill-rule="nonzero"></path><path fill="#000000" fill-opacity="0.0" d="m52.026245 371.07617l54.67717 0l0 47.811035l-54.67717 0z" fill-rule="evenodd"></path><path fill="#000000" d="m72.86987 403.11618l-5.46875 0l0 -0.1875q0 -0.609375 0.328125 -0.75q0.171875 -0.078125 0.40625 -0.09375l1.53125 -0.078125l0 -11.84375l-1.71875 0.609375q-0.390625 0.125 -0.65625 -0.1875q-0.25 -0.3125 -0.25 -0.625l2.734375 -1.53125q0.375 -0.234375 0.90625 -0.234375q0.703125 0 0.703125 0.8125l0 12.953125l2.15625 0.140625q0.09375 1.015625 -0.671875 1.015625zm6.887726 -9.046875q1.96875 0 3.203125 1.0625q1.25 1.046875 1.25 3.265625q0 2.21875 -1.4375 3.65625q-1.4375 1.421875 -3.734375 1.421875q-1.703125 0 -2.6875 -0.546875q-0.96875 -0.5625 -0.96875 -1.5q0 -0.515625 0.34375 -0.75q0.359375 -0.25 0.765625 -0.28125q0.265625 1.875 2.640625 1.875q1.484375 0 2.390625 -1.03125q0.921875 -1.03125 0.921875 -2.6875q0 -1.671875 -0.9375 -2.375q-0.9375 -0.71875 -2.28125 -0.71875q-1.34375 0 -2.5 0.59375l-0.3125 -0.15625l0.34375 -7.5l6.375 0.03125l-0.09375 1.421875l-5.109375 0l-0.171875 4.484375q0.984375 -0.265625 2.0 -0.265625zm14.543716 1.859375q0 -3.296875 -0.84375 -4.890625q-0.84375 -1.609375 -2.640625 -1.609375q-1.78125 0 -2.640625 1.65625q-0.84375 1.640625 -0.84375 4.90625q0 3.265625 0.84375 4.75q0.859375 1.484375 2.65625 1.484375q1.8125 0 2.640625 -1.5q0.828125 -1.5 0.828125 -4.796875zm-3.46875 -7.734375q2.671875 -0.03125 3.921875 1.875q1.265625 1.90625 1.265625 5.8125q0 3.890625 -1.28125 5.75q-1.28125 1.84375 -3.921875 1.84375q-2.640625 0 -3.921875 -1.84375q-1.28125 -1.859375 -1.28125 -5.71875q0 -3.859375 1.28125 -5.78125q1.28125 -1.921875 3.9375 -1.9375z" fill-rule="nonzero"></path><path fill="#000000" fill-opacity="0.0" d="m48.929134 527.7585l54.677166 0l0 27.62207l-54.677166 0z" fill-rule="evenodd"></path><path fill="#000000" d="m73.11639 550.75165q1.96875 0 3.203125 1.0625q1.25 1.046875 1.25 3.265625q0 2.21875 -1.4375 3.65625q-1.4375 1.421875 -3.734375 1.421875q-1.703125 0 -2.6875 -0.546875q-0.96875 -0.5625 -0.96875 -1.5q0 -0.515625 0.34375 -0.75q0.359375 -0.25 0.765625 -0.28125q0.265625 1.875 2.640625 1.875q1.484375 0 2.390625 -1.03125q0.921875 -1.03125 0.921875 -2.6875q0 -1.671875 -0.9375 -2.375q-0.9375 -0.71875 -2.28125 -0.71875q-1.34375 0 -2.5 0.59375l-0.3125 -0.15625l0.34375 -7.5l6.375 0.03125l-0.09375 1.421875l-5.109375 0l-0.171875 4.484375q0.984375 -0.265625 2.0 -0.265625zm14.543716 1.859375q0 -3.296875 -0.84375 -4.890625q-0.84375 -1.609375 -2.640625 -1.609375q-1.78125 0 -2.640625 1.65625q-0.84375 1.640625 -0.84375 4.90625q0 3.265625 0.84375 4.75q0.859375 1.484375 2.65625 1.484375q1.8125 0 2.640625 -1.5q0.828125 -1.5 0.828125 -4.796875zm-3.46875 -7.734375q2.671875 -0.03125 3.921875 1.875q1.265625 1.90625 1.265625 5.8125q0 3.890625 -1.28125 5.75q-1.28125 1.84375 -3.921875 1.84375q-2.640625 0 -3.921875 -1.84375q-1.28125 -1.859375 -1.28125 -5.71875q0 -3.859375 1.28125 -5.78125q1.28125 -1.921875 3.9375 -1.9375z" fill-rule="nonzero"></path><path fill="#000000" fill-opacity="0.0" d="m54.83202 442.4331l54.677166 0l0 47.811035l-54.677166 0z" fill-rule="evenodd"></path><path fill="#000000" d="m70.67577 496.4731l-5.46875 0l0 -0.1875q0 -0.609375 0.328125 -0.75q0.171875 -0.078125 0.40625 -0.09375l1.53125 -0.078125l0 -11.84375l-1.71875 0.609375q-0.390625 0.125 -0.65625 -0.1875q-0.25 -0.3125 -0.25 -0.625l2.734375 -1.53125q0.375 -0.234375 0.90625 -0.234375q0.703125 0 0.703125 0.8125l0 12.953125l2.15625 0.140625q0.09375 1.015625 -0.671875 1.015625zm11.231476 -7.1875q0 -3.296875 -0.84375 -4.890625q-0.84375 -1.609375 -2.640625 -1.609375q-1.78125 0 -2.640625 1.65625q-0.84375 1.640625 -0.84375 4.90625q0 3.265625 0.84375 4.75q0.859375 1.484375 2.65625 1.484375q1.8125 0 2.640625 -1.5q0.828125 -1.5 0.828125 -4.796875zm-3.46875 -7.734375q2.671875 -0.03125 3.921875 1.875q1.265625 1.90625 1.265625 5.8125q0 3.890625 -1.28125 5.75q-1.28125 1.84375 -3.921875 1.84375q-2.640625 0 -3.921875 -1.84375q-1.28125 -1.859375 -1.28125 -5.71875q0 -3.859375 1.28125 -5.78125q1.28125 -1.921875 3.9375 -1.9375zm15.564713 7.734375q0 -3.296875 -0.84375 -4.890625q-0.84375 -1.609375 -2.640625 -1.609375q-1.78125 0 -2.640625 1.65625q-0.84375 1.640625 -0.84375 4.90625q0 3.265625 0.84375 4.75q0.859375 1.484375 2.65625 1.484375q1.8125 0 2.640625 -1.5q0.828125 -1.5 0.828125 -4.796875zm-3.46875 -7.734375q2.671875 -0.03125 3.921875 1.875q1.265625 1.90625 1.265625 5.8125q0 3.890625 -1.28125 5.75q-1.28125 1.84375 -3.921875 1.84375q-2.640625 0 -3.921875 -1.84375q-1.28125 -1.859375 -1.28125 -5.71875q0 -3.859375 1.28125 -5.78125q1.28125 -1.921875 3.9375 -1.9375z" fill-rule="nonzero"></path><path fill="#000000" fill-opacity="0.0" d="m292.7329 623.5423l63.053467 0l0 34.596924l-63.053467 0z" fill-rule="evenodd"></path><path fill="#000000" d="m302.68604 641.2904q0 -1.03125 0.9375 -1.734375q0.9375 -0.703125 2.40625 -0.703125q1.484375 0 2.375 0.8125q0.90625 0.8125 0.90625 2.171875q0 2.0625 -2.09375 4.484375q-0.734375 0.84375 -1.109375 1.234375q-0.375 0.390625 -1.171875 1.140625q-0.796875 0.734375 -0.890625 0.828125l4.5 -0.046875l0.171875 -1.140625q0.046875 -0.390625 0.359375 -0.53125q0.328125 -0.15625 0.515625 -0.046875l0 2.703125l-7.078125 0q-0.140625 -0.453125 -0.109375 -0.671875q0.828125 -0.734375 2.046875 -2.0q1.21875 -1.28125 1.515625 -1.65625q0.296875 -0.390625 0.734375 -1.0q0.453125 -0.625 0.671875 -1.09375q0.546875 -1.1875 0.546875 -2.109375q0 -0.921875 -0.546875 -1.515625q-0.53125 -0.59375 -1.546875 -0.59375q-1.0 0 -1.53125 0.65625q-0.53125 0.65625 -0.53125 1.828125q-0.453125 0.015625 -0.765625 -0.21875q-0.3125 -0.25 -0.3125 -0.796875zm14.960358 3.59375q0 -2.578125 -0.65625 -3.8125q-0.65625 -1.25 -2.046875 -1.25q-1.375 0 -2.046875 1.28125q-0.65625 1.28125 -0.65625 3.828125q0 2.53125 0.65625 3.6875q0.671875 1.15625 2.0625 1.15625q1.40625 0 2.046875 -1.15625q0.640625 -1.171875 0.640625 -3.734375zm-2.6875 -6.015625q2.078125 -0.03125 3.046875 1.453125q0.984375 1.484375 0.984375 4.515625q0 3.03125 -1.0 4.46875q-1.0 1.4375 -3.046875 1.4375q-2.046875 0 -3.046875 -1.4375q-1.0 -1.4375 -1.0 -4.4375q0 -3.0 1.0 -4.484375q1.0 -1.5 3.0625 -1.515625zm9.996521 11.59375l-4.25 0l0 -0.15625q0 -0.453125 0.265625 -0.578125q0.125 -0.046875 0.3125 -0.0625l1.1875 -0.0625l0 -9.21875l-1.328125 0.484375q-0.3125 0.09375 -0.515625 -0.140625q-0.203125 -0.25 -0.203125 -0.484375l2.125 -1.203125q0.296875 -0.1875 0.71875 -0.1875q0.53125 0 0.53125 0.640625l0 10.078125l1.6875 0.109375q0.0625 0.78125 -0.53125 0.78125zm1.6572571 -11.4375l6.578125 0q0.171875 0.265625 0.171875 0.609375l-4.65625 10.953125l-1.34375 -0.4375l4.6875 -10.140625l-4.390625 0.0625l-0.15625 1.1875q-0.0625 0.328125 -0.4375 0.453125q-0.359375 0.109375 -0.453125 -0.015625l0 -2.671875z" fill-rule="nonzero"></path><path fill="#000000" fill-opacity="0.0" d="m440.50018 623.5423l63.053467 0l0 34.596924l-63.053467 0z" fill-rule="evenodd"></path><path fill="#000000" d="m450.4533 641.2904q0 -1.03125 0.9375 -1.734375q0.9375 -0.703125 2.40625 -0.703125q1.484375 0 2.375 0.8125q0.90625 0.8125 0.90625 2.171875q0 2.0625 -2.09375 4.484375q-0.734375 0.84375 -1.109375 1.234375q-0.375 0.390625 -1.171875 1.140625q-0.796875 0.734375 -0.890625 0.828125l4.5 -0.046875l0.171875 -1.140625q0.046875 -0.390625 0.359375 -0.53125q0.328125 -0.15625 0.515625 -0.046875l0 2.703125l-7.078125 0q-0.140625 -0.453125 -0.109375 -0.671875q0.828125 -0.734375 2.046875 -2.0q1.21875 -1.28125 1.515625 -1.65625q0.296875 -0.390625 0.734375 -1.0q0.453125 -0.625 0.671875 -1.09375q0.546875 -1.1875 0.546875 -2.109375q0 -0.921875 -0.546875 -1.515625q-0.53125 -0.59375 -1.546875 -0.59375q-1.0 0 -1.53125 0.65625q-0.53125 0.65625 -0.53125 1.828125q-0.453125 0.015625 -0.765625 -0.21875q-0.3125 -0.25 -0.3125 -0.796875zm14.960358 3.59375q0 -2.578125 -0.65625 -3.8125q-0.65625 -1.25 -2.046875 -1.25q-1.375 0 -2.046875 1.28125q-0.65625 1.28125 -0.65625 3.828125q0 2.53125 0.65625 3.6875q0.671875 1.15625 2.0625 1.15625q1.40625 0 2.046875 -1.15625q0.640625 -1.171875 0.640625 -3.734375zm-2.6875 -6.015625q2.078125 -0.03125 3.046875 1.453125q0.984375 1.484375 0.984375 4.515625q0 3.03125 -1.0 4.46875q-1.0 1.4375 -3.046875 1.4375q-2.046875 0 -3.046875 -1.4375q-1.0 -1.4375 -1.0 -4.4375q0 -3.0 1.0 -4.484375q1.0 -1.5 3.0625 -1.515625zm9.996521 11.59375l-4.25 0l0 -0.15625q0 -0.453125 0.265625 -0.578125q0.125 -0.046875 0.3125 -0.0625l1.1875 -0.0625l0 -9.21875l-1.328125 0.484375q-0.3125 0.09375 -0.515625 -0.140625q-0.203125 -0.25 -0.203125 -0.484375l2.125 -1.203125q0.296875 -0.1875 0.71875 -0.1875q0.53125 0 0.53125 0.640625l0 10.078125l1.6875 0.109375q0.0625 0.78125 -0.53125 0.78125zm9.235382 -3.140625q0 1.375 -1.03125 2.40625q-1.015625 1.015625 -2.6875 1.015625q-1.65625 0 -2.5 -0.796875q-0.84375 -0.8125 -0.890625 -1.9375q-0.03125 -1.140625 0.671875 -2.046875q0.71875 -0.921875 1.796875 -1.53125q-1.75 -1.171875 -1.75 -2.75q0 -1.234375 0.828125 -2.03125q0.828125 -0.796875 2.09375 -0.796875q1.265625 0 2.09375 0.671875q0.84375 0.671875 0.84375 1.859375q0 1.6875 -1.8125 2.84375q1.109375 0.671875 1.71875 1.359375q0.625 0.671875 0.625 1.734375zm-3.40625 -7.609375q-0.78125 0 -1.296875 0.484375q-0.515625 0.484375 -0.515625 1.21875q0 0.71875 0.53125 1.25q0.53125 0.515625 1.6875 1.171875q1.28125 -0.984375 1.28125 -2.34375q0 -0.8125 -0.453125 -1.296875q-0.4375 -0.484375 -1.234375 -0.484375zm-1.890625 6.4375q-0.53125 0.765625 -0.53125 1.625q0 0.859375 0.5625 1.453125q0.5625 0.59375 1.65625 0.59375q1.109375 0 1.765625 -0.59375q0.671875 -0.59375 0.671875 -1.4375q0 -0.859375 -0.578125 -1.453125q-0.578125 -0.59375 -1.640625 -1.171875l-0.515625 -0.28125q-0.84375 0.484375 -1.390625 1.265625z" fill-rule="nonzero"></path><path fill="#000000" fill-opacity="0.0" d="m600.5496 622.09344l63.053467 0l0 34.596985l-63.053467 0z" fill-rule="evenodd"></path><path fill="#000000" d="m610.50275 639.84155q0 -1.03125 0.9375 -1.734375q0.9375 -0.703125 2.40625 -0.703125q1.484375 0 2.375 0.8125q0.90625 0.8125 0.90625 2.171875q0 2.0625 -2.09375 4.484375q-0.734375 0.84375 -1.109375 1.234375q-0.375 0.390625 -1.171875 1.140625q-0.796875 0.734375 -0.890625 0.828125l4.5 -0.046875l0.171875 -1.140625q0.046875 -0.390625 0.359375 -0.53125q0.328125 -0.15625 0.515625 -0.046875l0 2.703125l-7.078125 0q-0.140625 -0.453125 -0.109375 -0.671875q0.828125 -0.734375 2.046875 -2.0q1.21875 -1.28125 1.515625 -1.65625q0.296875 -0.390625 0.734375 -1.0q0.453125 -0.625 0.671875 -1.09375q0.546875 -1.1875 0.546875 -2.109375q0 -0.921875 -0.546875 -1.515625q-0.53125 -0.59375 -1.546875 -0.59375q-1.0 0 -1.53125 0.65625q-0.53125 0.65625 -0.53125 1.828125q-0.453125 0.015625 -0.765625 -0.21875q-0.3125 -0.25 -0.3125 -0.796875zm14.960327 3.59375q0 -2.578125 -0.65625 -3.8125q-0.65625 -1.25 -2.046875 -1.25q-1.375 0 -2.046875 1.28125q-0.65625 1.28125 -0.65625 3.828125q0 2.53125 0.65625 3.6875q0.671875 1.15625 2.0625 1.15625q1.40625 0 2.046875 -1.15625q0.640625 -1.171875 0.640625 -3.734375zm-2.6875 -6.015625q2.078125 -0.03125 3.046875 1.453125q0.984375 1.484375 0.984375 4.515625q0 3.03125 -1.0 4.46875q-1.0 1.4375 -3.046875 1.4375q-2.046875 0 -3.046875 -1.4375q-1.0 -1.4375 -1.0 -4.4375q0 -3.0 1.0 -4.484375q1.0 -1.5 3.0625 -1.515625zm9.996521 11.59375l-4.25 0l0 -0.15625q0 -0.453125 0.265625 -0.578125q0.125 -0.046875 0.3125 -0.0625l1.1875 -0.0625l0 -9.21875l-1.328125 0.484375q-0.3125 0.09375 -0.515625 -0.140625q-0.203125 -0.25 -0.203125 -0.484375l2.125 -1.203125q0.296875 -0.1875 0.71875 -0.1875q0.53125 0 0.53125 0.640625l0 10.078125l1.6875 0.109375q0.0625 0.78125 -0.53125 0.78125zm5.2666626 -11.609375q3.671875 0 3.671875 4.90625q0 3.40625 -1.21875 5.203125q-1.21875 1.78125 -3.421875 1.78125q-1.015625 0 -1.5625 -0.328125q-0.53125 -0.34375 -0.53125 -0.890625q0 -0.8125 0.875 -0.890625q0 0.484375 0.328125 0.84375q0.34375 0.34375 1.03125 0.34375q1.296875 0 2.109375 -1.265625q0.8125 -1.28125 0.96875 -3.65625q-1.21875 0.8125 -2.703125 0.8125q-1.46875 0 -2.28125 -0.828125q-0.8125 -0.84375 -0.8125 -2.375q0 -1.53125 0.953125 -2.59375q0.953125 -1.0625 2.59375 -1.0625zm2.296875 4.875q0 -3.953125 -2.328125 -3.953125q-1.03125 0 -1.59375 0.6875q-0.5625 0.671875 -0.5625 1.890625q0 2.40625 2.109375 2.40625q1.359375 0 2.375 -0.828125l0 -0.203125z" fill-rule="nonzero"></path><path fill="#000000" fill-opacity="0.0" d="m762.8297 623.5423l63.053528 0l0 34.596924l-63.053528 0z" fill-rule="evenodd"></path><path fill="#000000" d="m772.78284 641.2904q0 -1.03125 0.9375 -1.734375q0.9375 -0.703125 2.40625 -0.703125q1.484375 0 2.375 0.8125q0.90625 0.8125 0.90625 2.171875q0 2.0625 -2.09375 4.484375q-0.734375 0.84375 -1.109375 1.234375q-0.375 0.390625 -1.171875 1.140625q-0.796875 0.734375 -0.890625 0.828125l4.5 -0.046875l0.171875 -1.140625q0.046875 -0.390625 0.359375 -0.53125q0.328125 -0.15625 0.515625 -0.046875l0 2.703125l-7.078125 0q-0.140625 -0.453125 -0.109375 -0.671875q0.828125 -0.734375 2.046875 -2.0q1.21875 -1.28125 1.515625 -1.65625q0.296875 -0.390625 0.734375 -1.0q0.453125 -0.625 0.671875 -1.09375q0.546875 -1.1875 0.546875 -2.109375q0 -0.921875 -0.546875 -1.515625q-0.53125 -0.59375 -1.546875 -0.59375q-1.0 0 -1.53125 0.65625q-0.53125 0.65625 -0.53125 1.828125q-0.453125 0.015625 -0.765625 -0.21875q-0.3125 -0.25 -0.3125 -0.796875zm14.960388 3.59375q0 -2.578125 -0.65625 -3.8125q-0.65625 -1.25 -2.046875 -1.25q-1.375 0 -2.046875 1.28125q-0.65625 1.28125 -0.65625 3.828125q0 2.53125 0.65625 3.6875q0.671875 1.15625 2.0625 1.15625q1.40625 0 2.046875 -1.15625q0.640625 -1.171875 0.640625 -3.734375zm-2.6875 -6.015625q2.078125 -0.03125 3.046875 1.453125q0.984375 1.484375 0.984375 4.515625q0 3.03125 -1.0 4.46875q-1.0 1.4375 -3.046875 1.4375q-2.046875 0 -3.046875 -1.4375q-1.0 -1.4375 -1.0 -4.4375q0 -3.0 1.0 -4.484375q1.0 -1.5 3.0625 -1.515625zm5.637146 2.421875q0 -1.03125 0.9375 -1.734375q0.9375 -0.703125 2.40625 -0.703125q1.484375 0 2.375 0.8125q0.90625 0.8125 0.90625 2.171875q0 2.0625 -2.09375 4.484375q-0.734375 0.84375 -1.109375 1.234375q-0.375 0.390625 -1.171875 1.140625q-0.796875 0.734375 -0.890625 0.828125l4.5 -0.046875l0.171875 -1.140625q0.046875 -0.390625 0.359375 -0.53125q0.328125 -0.15625 0.515625 -0.046875l0 2.703125l-7.078125 0q-0.140625 -0.453125 -0.109375 -0.671875q0.828125 -0.734375 2.046875 -2.0q1.21875 -1.28125 1.515625 -1.65625q0.296875 -0.390625 0.734375 -1.0q0.453125 -0.625 0.671875 -1.09375q0.546875 -1.1875 0.546875 -2.109375q0 -0.921875 -0.546875 -1.515625q-0.53125 -0.59375 -1.546875 -0.59375q-1.0 0 -1.53125 0.65625q-0.53125 0.65625 -0.53125 1.828125q-0.453125 0.015625 -0.765625 -0.21875q-0.3125 -0.25 -0.3125 -0.796875zm14.960388 3.59375q0 -2.578125 -0.65625 -3.8125q-0.65625 -1.25 -2.046875 -1.25q-1.375 0 -2.046875 1.28125q-0.65625 1.28125 -0.65625 3.828125q0 2.53125 0.65625 3.6875q0.671875 1.15625 2.0625 1.15625q1.40625 0 2.046875 -1.15625q0.640625 -1.171875 0.640625 -3.734375zm-2.6875 -6.015625q2.078125 -0.03125 3.046875 1.453125q0.984375 1.484375 0.984375 4.515625q0 3.03125 -1.0 4.46875q-1.0 1.4375 -3.046875 1.4375q-2.046875 0 -3.046875 -1.4375q-1.0 -1.4375 -1.0 -4.4375q0 -3.0 1.0 -4.484375q1.0 -1.5 3.0625 -1.515625z" fill-rule="nonzero"></path><path fill="#ffffff" d="m111.19423 326.02362l110.491455 0l0 297.15137l-110.491455 0z" fill-rule="evenodd"></path><path fill="#000000" fill-opacity="0.0" d="m106.71078 622.0955l763.85803 1.1160278" fill-rule="evenodd"></path><path stroke="#000000" stroke-width="1.0" stroke-linejoin="round" stroke-linecap="butt" d="m106.71078 622.0955l763.85803 1.1160278" fill-rule="evenodd"></path><path fill="#000000" fill-opacity="0.0" d="m109.51432 620.15906l63.05349 0l0 34.596985l-63.05349 0z" fill-rule="evenodd"></path><path fill="#000000" d="m119.467445 637.90717q0 -1.03125 0.9375 -1.734375q0.9375 -0.703125 2.40625 -0.703125q1.484375 0 2.375 0.8125q0.90625 0.8125 0.90625 2.171875q0 2.0625 -2.09375 4.484375q-0.734375 0.84375 -1.109375 1.234375q-0.375 0.390625 -1.171875 1.140625q-0.796875 0.734375 -0.890625 0.828125l4.5 -0.046875l0.171875 -1.140625q0.046875 -0.390625 0.359375 -0.53125q0.328125 -0.15625 0.515625 -0.046875l0 2.703125l-7.078125 0q-0.140625 -0.453125 -0.109375 -0.671875q0.828125 -0.734375 2.046875 -2.0q1.21875 -1.28125 1.515625 -1.65625q0.296875 -0.390625 0.734375 -1.0q0.453125 -0.625 0.671875 -1.09375q0.546875 -1.1875 0.546875 -2.109375q0 -0.921875 -0.546875 -1.515625q-0.53125 -0.59375 -1.546875 -0.59375q-1.0 0 -1.53125 0.65625q-0.53125 0.65625 -0.53125 1.828125q-0.453125 0.015625 -0.765625 -0.21875q-0.3125 -0.25 -0.3125 -0.796875zm14.960381 3.59375q0 -2.578125 -0.65625 -3.8125q-0.65625 -1.25 -2.046875 -1.25q-1.375 0 -2.046875 1.28125q-0.65625 1.28125 -0.65625 3.828125q0 2.53125 0.65625 3.6875q0.671875 1.15625 2.0625 1.15625q1.40625 0 2.046875 -1.15625q0.640625 -1.171875 0.640625 -3.734375zm-2.6875 -6.015625q2.078125 -0.03125 3.046875 1.453125q0.984375 1.484375 0.984375 4.515625q0 3.03125 -1.0 4.46875q-1.0 1.4375 -3.046875 1.4375q-2.046875 0 -3.046875 -1.4375q-1.0000076 -1.4375 -1.0000076 -4.4375q0 -3.0 1.0000076 -4.484375q1.0 -1.5 3.0625 -1.515625zm9.996506 11.59375l-4.25 0l0 -0.15625q0 -0.453125 0.265625 -0.578125q0.125 -0.046875 0.3125 -0.0625l1.1875 -0.0625l0 -9.21875l-1.328125 0.484375q-0.3125 0.09375 -0.515625 -0.140625q-0.203125 -0.25 -0.203125 -0.484375l2.125 -1.203125q0.296875 -0.1875 0.71875 -0.1875q0.53125 0 0.53125 0.640625l0 10.078125l1.6875 0.109375q0.0625 0.78125 -0.53125 0.78125zm3.704132 -5.765625q1.21875 -0.796875 2.703125 -0.796875q1.484375 0 2.28125 0.828125q0.8125 0.8125 0.8125 2.34375q0 1.53125 -0.96875 2.609375q-0.953125 1.0625 -2.578125 1.0625q-3.671875 0 -3.671875 -4.890625q0 -3.40625 1.203125 -5.203125q1.21875 -1.796875 3.421875 -1.796875q1.03125 0 1.5625 0.34375q0.546875 0.328125 0.546875 0.859375q0 0.828125 -0.890625 0.90625q0 -0.484375 -0.34375 -0.828125q-0.328125 -0.359375 -1.03125 -0.359375q-1.28125 0 -2.09375 1.28125q-0.796875 1.265625 -0.953125 3.640625zm-0.046875 1.171875q0 3.9375 2.34375 3.9375q1.015625 0 1.578125 -0.671875q0.5625 -0.6875 0.5625 -1.875q0 -1.203125 -0.5625 -1.796875q-0.546875 -0.609375 -1.734375 -0.609375q-1.171875 0 -2.1875 0.8125l0 0.203125z" fill-rule="nonzero"></path><path fill="#ffffff" d="m269.01575 268.75592l110.48819 0l0 351.40155l-110.48819 0z" fill-rule="evenodd"></path><path fill="#ffffff" d="m416.78217 204.30446l110.48816 0l0 415.84253l-110.48816 0z" fill-rule="evenodd"></path><path fill="#ffffff" d="m739.11285 63.60105l110.48822 0l0 558.48816l-110.48822 0z" fill-rule="evenodd"></path><path fill="#ffffff" d="m576.83203 133.95276l110.48816 0l0 486.2047l-110.48816 0z" fill-rule="evenodd"></path><path fill="#000000" fill-opacity="0.0" d="m292.73227 225.46063l63.055145 0l0 34.33069l-63.055145 0z" fill-rule="evenodd"></path><path fill="#000000" d="m308.29465 245.68813q0 -1.3125 1.203125 -2.203125q1.21875 -0.90625 3.109375 -0.90625q1.90625 0 3.0625 1.046875q1.15625 1.03125 1.15625 2.78125q0 2.640625 -2.6875 5.765625q-0.9375 1.078125 -1.4375 1.59375q-0.484375 0.5 -1.515625 1.46875q-1.015625 0.95314026 -1.140625 1.0625153l5.796875 -0.0625l0.203125 -1.4687653q0.078125 -0.5 0.484375 -0.6875q0.40625 -0.203125 0.65625 -0.0625l0 3.4843903l-9.09375 0q-0.203125 -0.578125 -0.15625 -0.859375q1.0625 -0.93751526 2.625 -2.5781403q1.578125 -1.65625 1.953125 -2.140625q0.390625 -0.5 0.96875 -1.28125q0.578125 -0.796875 0.84375 -1.390625q0.71875 -1.546875 0.71875 -2.734375q0 -1.1875 -0.703125 -1.9375q-0.6875 -0.765625 -1.984375 -0.765625q-1.296875 0 -1.984375 0.84375q-0.6875 0.84375 -0.6875 2.359375q-0.5625 0.015625 -0.984375 -0.296875q-0.40625 -0.3125 -0.40625 -1.03125zm12.772095 4.390625q1.578125 -1.03125 3.484375 -1.03125q1.921875 0 2.953125 1.0625q1.03125 1.046875 1.03125 3.015625q0 1.96875 -1.234375 3.3593903q-1.234375 1.375 -3.328125 1.375q-4.734375 0 -4.734375 -6.2812653q0 -4.390625 1.5625 -6.6875q1.5625 -2.3125 4.390625 -2.3125q1.328125 0 2.015625 0.4375q0.703125 0.421875 0.703125 1.09375q0 1.078125 -1.15625 1.171875q0 -0.625 -0.4375 -1.078125q-0.421875 -0.453125 -1.3125 -0.453125q-1.65625 0 -2.6875 1.640625q-1.03125 1.640625 -1.25 4.6875zm-0.046875 1.515625q0 5.0625153 3.0 5.0625153q1.3125 0 2.03125 -0.87501526q0.734375 -0.875 0.734375 -2.40625q0 -1.53125 -0.71875 -2.3125q-0.703125 -0.78125 -2.234375 -0.78125q-1.515625 0 -2.8125 1.046875l0 0.265625zm17.859222 -1.28125q0 -3.296875 -0.84375 -4.890625q-0.84375 -1.609375 -2.640625 -1.609375q-1.78125 0 -2.640625 1.65625q-0.84375 1.640625 -0.84375 4.90625q0 3.265625 0.84375 4.75q0.859375 1.4843903 2.65625 1.4843903q1.8125 0 2.640625 -1.5000153q0.828125 -1.5 0.828125 -4.796875zm-3.46875 -7.734375q2.671875 -0.03125 3.921875 1.875q1.265625 1.90625 1.265625 5.8125q0 3.890625 -1.28125 5.7500153q-1.28125 1.84375 -3.921875 1.84375q-2.640625 0 -3.921875 -1.84375q-1.28125 -1.8593903 -1.28125 -5.7187653q0 -3.859375 1.28125 -5.78125q1.28125 -1.921875 3.9375 -1.9375z" fill-rule="nonzero"></path><path fill="#000000" fill-opacity="0.0" d="m440.4987 158.68242l63.055115 0l0 34.330704l-63.055115 0z" fill-rule="evenodd"></path><path fill="#000000" d="m462.14255 181.84741q0.703125 -0.34375 1.171875 -1.0q0.46875 -0.65625 0.46875 -1.625q0 -0.984375 -0.609375 -1.59375q-0.609375 -0.609375 -1.6875 -0.609375q-1.0625 0 -1.625 0.640625q-0.5625 0.625 -0.59375 1.703125q-0.6875 -0.046875 -1.046875 -0.390625q-0.359375 -0.34375 -0.296875 -0.890625q0.078125 -0.9375 1.109375 -1.609375q1.046875 -0.671875 2.6875 -0.671875q1.65625 0 2.75 0.90625q1.109375 0.90625 1.109375 2.421875q0 1.125 -0.71875 2.109375q-0.71875 0.96875 -2.1875 1.546875q1.65625 0.25 2.625 1.28125q0.984375 1.015625 0.984375 2.546875q0 1.921875 -1.484375 3.203125q-1.46875 1.265625 -3.796875 1.265625q-1.609375 0 -2.65625 -0.609375q-1.046875 -0.609375 -1.046875 -1.59375q0 -0.984375 1.0625 -1.203125q0.1875 1.0 0.890625 1.609375q0.71875 0.59375 2.0625 0.59375q1.34375 0 2.265625 -0.875q0.921875 -0.890625 0.875 -2.203125q-0.03125 -1.3125 -0.828125 -2.015625q-0.78125 -0.703125 -1.796875 -0.890625q-1.0 -0.203125 -2.203125 -0.109375l-0.015625 -1.3125q1.21875 0 2.53125 -0.625zm11.627472 8.875l-5.46875 0l0 -0.1875q0 -0.609375 0.328125 -0.75q0.171875 -0.078125 0.40625 -0.09375l1.53125 -0.078125l0 -11.84375l-1.71875 0.609375q-0.390625 0.125 -0.65625 -0.1875q-0.25 -0.3125 -0.25 -0.625l2.734375 -1.53125q0.375 -0.234375 0.90625 -0.234375q0.703125 0 0.703125 0.8125l0 12.953125l2.15625 0.140625q0.09375 1.015625 -0.671875 1.015625zm11.231476 -7.1875q0 -3.296875 -0.84375 -4.890625q-0.84375 -1.609375 -2.640625 -1.609375q-1.78125 0 -2.640625 1.65625q-0.84375 1.640625 -0.84375 4.90625q0 3.265625 0.84375 4.75q0.859375 1.484375 2.65625 1.484375q1.8125 0 2.640625 -1.5q0.828125 -1.5 0.828125 -4.796875zm-3.46875 -7.734375q2.671875 -0.03125 3.921875 1.875q1.265625 1.90625 1.265625 5.8125q0 3.890625 -1.28125 5.75q-1.28125 1.84375 -3.921875 1.84375q-2.640625 0 -3.921875 -1.84375q-1.28125 -1.859375 -1.28125 -5.71875q0 -3.859375 1.28125 -5.78125q1.28125 -1.921875 3.9375 -1.9375z" fill-rule="nonzero"></path><path fill="#000000" fill-opacity="0.0" d="m600.5486 92.884514l63.055115 0l0 34.330704l-63.055115 0z" fill-rule="evenodd"></path><path fill="#000000" d="m620.8004 116.049515q0.703125 -0.34375 1.171875 -1.0q0.46875 -0.65625 0.46875 -1.625q0 -0.984375 -0.609375 -1.59375q-0.609375 -0.609375 -1.6875 -0.609375q-1.0625 0 -1.625 0.640625q-0.5625 0.625 -0.59375 1.703125q-0.6875 -0.046875 -1.046875 -0.390625q-0.359375 -0.34375 -0.296875 -0.890625q0.078125 -0.9375 1.109375 -1.609375q1.046875 -0.671875 2.6875 -0.671875q1.65625 0 2.75 0.90625q1.109375 0.90625 1.109375 2.421875q0 1.125 -0.71875 2.109375q-0.71875 0.96875 -2.1875 1.546875q1.65625 0.25 2.625 1.28125q0.984375 1.015625 0.984375 2.546875q0 1.921875 -1.484375 3.203125q-1.46875 1.265625 -3.796875 1.265625q-1.609375 0 -2.65625 -0.609375q-1.046875 -0.609375 -1.046875 -1.59375q0 -0.984375 1.0625 -1.203125q0.1875 1.0 0.890625 1.609375q0.71875 0.59375 2.0625 0.59375q1.34375 0 2.265625 -0.875q0.921875 -0.890625 0.875 -2.203125q-0.03125 -1.3125 -0.828125 -2.015625q-0.78125 -0.703125 -1.796875 -0.890625q-1.0 -0.203125 -2.203125 -0.109375l-0.015625 -1.3125q1.21875 0 2.53125 -0.625zm7.8305664 1.453125q1.578125 -1.03125 3.484375 -1.03125q1.921875 0 2.953125 1.0625q1.03125 1.046875 1.03125 3.015625q0 1.96875 -1.234375 3.359375q-1.234375 1.375 -3.328125 1.375q-4.734375 0 -4.734375 -6.28125q0 -4.390625 1.5625 -6.6875q1.5625 -2.3125 4.390625 -2.3125q1.328125 0 2.015625 0.4375q0.703125 0.421875 0.703125 1.09375q0 1.078125 -1.15625 1.171875q0 -0.625 -0.4375 -1.078125q-0.421875 -0.453125 -1.3125 -0.453125q-1.65625 0 -2.6875 1.640625q-1.03125 1.640625 -1.25 4.6875zm-0.046875 1.515625q0 5.0625 3.0 5.0625q1.3125 0 2.03125 -0.875q0.734375 -0.875 0.734375 -2.40625q0 -1.53125 -0.71875 -2.3125q-0.703125 -0.78125 -2.234375 -0.78125q-1.515625 0 -2.8125 1.046875l0 0.265625zm17.859253 -1.28125q0 -3.296875 -0.84375 -4.890625q-0.84375 -1.609375 -2.640625 -1.609375q-1.78125 0 -2.640625 1.65625q-0.84375 1.640625 -0.84375 4.90625q0 3.265625 0.84375 4.75q0.859375 1.484375 2.65625 1.484375q1.8125 0 2.640625 -1.5q0.828125 -1.5 0.828125 -4.796875zm-3.46875 -7.734375q2.671875 -0.03125 3.921875 1.875q1.265625 1.90625 1.265625 5.8125q0 3.890625 -1.28125 5.75q-1.28125 1.84375 -3.921875 1.84375q-2.640625 0 -3.921875 -1.84375q-1.28125 -1.859375 -1.28125 -5.71875q0 -3.859375 1.28125 -5.78125q1.28125 -1.921875 3.9375 -1.9375z" fill-rule="nonzero"></path><path fill="#000000" fill-opacity="0.0" d="m762.8294 18.898947l63.055115 0l0 34.33071l-63.055115 0z" fill-rule="evenodd"></path><path fill="#000000" d="m789.25024 46.20457l0 1.25l-2.125 0l0 3.484375l-1.640625 0.234375l0 -3.71875l-6.0625 0q-0.453125 -0.734375 -0.5 -1.140625l6.65625 -10.0625q0.765625 -0.21875 1.5 -0.046875l0.03125 10.0l2.140625 0zm-3.765625 0l0 -7.84375l-5.078125 7.84375l5.078125 0zm10.964111 4.734375l-5.46875 0l0 -0.1875q0 -0.609375 0.328125 -0.75q0.171875 -0.078125 0.40625 -0.09375l1.53125 -0.078125l0 -11.84375l-1.71875 0.609375q-0.390625 0.125 -0.65625 -0.1875q-0.25 -0.3125 -0.25 -0.625l2.734375 -1.53125q0.375 -0.234375 0.90625 -0.234375q0.703125 0 0.703125 0.8125l0 12.953125l2.15625 0.140625q0.09375 1.015625 -0.671875 1.015625zm11.231445 -7.1875q0 -3.296875 -0.84375 -4.890625q-0.84375 -1.609375 -2.640625 -1.609375q-1.78125 0 -2.640625 1.65625q-0.84375 1.640625 -0.84375 4.90625q0 3.265625 0.84375 4.75q0.859375 1.484375 2.65625 1.484375q1.8125 0 2.640625 -1.5q0.828125 -1.5 0.828125 -4.796875zm-3.46875 -7.734375q2.671875 -0.03125 3.921875 1.875q1.265625 1.90625 1.265625 5.8125q0 3.890625 -1.28125 5.75q-1.28125 1.84375 -3.921875 1.84375q-2.640625 0 -3.921875 -1.84375q-1.28125 -1.859375 -1.28125 -5.71875q0 -3.859375 1.28125 -5.78125q1.28125 -1.921875 3.9375 -1.9375z" fill-rule="nonzero"></path></g></svg>

