<?xml version="1.0" standalone="yes"?>

<svg version="1.1" viewBox="0.0 0.0 960.0 720.0" fill="none" stroke="none" stroke-linecap="square" stroke-miterlimit="10" xmlns="http://www.w3.org/2000/svg" xmlns:xlink="http://www.w3.org/1999/xlink"><clipPath id="p.0"><path d="m0 0l960.0 0l0 720.0l-960.0 0l0 -720.0z" clip-rule="nonzero"></path></clipPath><g clip-path="url(#p.0)"><path fill="#000000" fill-opacity="0.0" d="m0 0l960.0 0l0 720.0l-960.0 0z" fill-rule="evenodd"></path><path fill="#529fdb" d="m654.4173 285.7139l14.929138 0l0 285.70078l-14.929138 0z" fill-rule="evenodd"></path><path fill="#529fdb" d="m472.53543 132.92126l14.929138 0l0 285.70078l-14.929138 0z" fill-rule="evenodd"></path><path fill="#529fdb" d="m239.12073 285.7139l14.929138 0l0 285.70078l-14.929138 0z" fill-rule="evenodd"></path><path fill="#ffffff" d="m158.24075 196.489l0 0c0 -59.470978 39.27809 -107.681725 87.73006 -107.681725l0 0c23.267471 0 45.581955 11.345001 62.03453 31.539246c16.452576 20.194237 25.695526 47.583504 25.695526 76.14248l0 0c0 59.470978 -39.278076 107.68172 -87.73006 107.68172l0 0c-48.451965 0 -87.73006 -48.21074 -87.73006 -107.68172z" fill-rule="evenodd"></path><path fill="#ffffff" d="m248.91263 69.77986l0 0c0 -73.566124 56.381958 -133.20325 125.93259 -133.20325l0 0c33.399414 0 65.43085 14.033871 89.04779 39.014328c23.616943 24.980453 36.884796 58.86122 36.884796 94.18892l0 0c0 73.56612 -56.381927 133.20325 -125.93259 133.20325l0 0c-69.55063 0 -125.93259 -59.63713 -125.93259 -133.20325z" fill-rule="evenodd"></path><path fill="#ffffff" d="m397.5055 5.879376l0 0c0 -90.054436 74.79828 -163.05798 167.06665 -163.05798l0 0c44.308838 0 86.80292 17.179276 118.13397 47.758583c31.331055 30.5793 48.93268 72.053734 48.93268 115.2994l0 0c0 90.05443 -74.79828 163.05797 -167.06665 163.05797l0 0c-92.26837 0 -167.06665 -73.00354 -167.06665 -163.05797z" fill-rule="evenodd"></path><path fill="#ffffff" d="m522.59973 159.19618l0 0c0 -80.06723 64.14642 -144.97455 143.27496 -144.97455l0 0c37.99884 0 74.44141 15.27406 101.31067 42.462063c26.869263 27.187996 41.964233 64.06284 41.964233 102.51248l0 0c0 80.06723 -64.14636 144.97453 -143.2749 144.97453l0 0c-79.12854 0 -143.27496 -64.9073 -143.27496 -144.97453z" fill-rule="evenodd"></path><path fill="#ffffff" d="m286.6883 141.11275l0 0c0 -90.05443 103.93564 -163.05797 232.14673 -163.05797l0 0c128.21112 0 232.14679 73.00354 232.14679 163.05797l0 0c0 90.05443 -103.93567 163.05797 -232.14679 163.05797l0 0c-128.21109 0 -232.14673 -73.00354 -232.14673 -163.05797z" fill-rule="evenodd"></path><path fill="#ffffff" d="m248.91263 211.36517l415.53745 0l0 92.80554l-415.53745 0z" fill-rule="evenodd"></path></g></svg>

