<?xml version="1.0" standalone="yes"?>

<svg version="1.1" viewBox="0.0 0.0 360.18372703412075 448.96062992125985" fill="none" stroke="none" stroke-linecap="square" stroke-miterlimit="10" xmlns="http://www.w3.org/2000/svg" xmlns:xlink="http://www.w3.org/1999/xlink"><clipPath id="p.0"><path d="m0 0l360.18372 0l0 448.96063l-360.18372 0l0 -448.96063z" clip-rule="nonzero"></path></clipPath><g clip-path="url(#p.0)"><path fill="#000000" fill-opacity="0.0" d="m0 0l360.18372 0l0 448.96063l-360.18372 0z" fill-rule="evenodd"></path><path fill="#ffffff" d="m43.041996 318.81628l0 0c0 -6.230255 5.050602 -11.280853 11.280838 -11.280853l45.123363 0l0 0c2.9918594 0 5.861191 1.1885071 7.976753 3.3040771c2.11557 2.11557 3.3040848 4.984894 3.3040848 7.976776l0 114.32019c0 6.230255 -5.050606 11.280853 -11.280838 11.280853l-45.123363 0c-6.230236 0 -11.280838 -5.050598 -11.280838 -11.280853z" fill-rule="evenodd"></path><path fill="#ffffff" d="m289.3727 115.74016l0 0c0 -6.23024 5.050598 -11.280838 11.280823 -11.280838l45.123383 0l0 0c2.9918518 0 5.8611755 1.1885147 7.9767456 3.3040771c2.11557 2.11557 3.3040771 4.984894 3.3040771 7.976761l0 317.4068c0 6.230255 -5.050598 11.280853 -11.280823 11.280853l-45.123383 0c-6.2302246 0 -11.280823 -5.050598 -11.280823 -11.280853z" fill-rule="evenodd"></path><path fill="#ffffff" d="m125.15223 254.64043l0 0c0 -6.23024 5.050606 -11.280853 11.280846 -11.280853l45.123352 0l0 0c2.991867 0 5.861191 1.1885223 7.976761 3.3040924c2.11557 2.11557 3.3040771 4.984894 3.3040771 7.976761l0 178.50917c0 6.230255 -5.050598 11.280853 -11.280838 11.280853l-45.123352 0c-6.23024 0 -11.280846 -5.050598 -11.280846 -11.280853z" fill-rule="evenodd"></path><path fill="#ffffff" d="m207.26247 186.95013l0 0c0 -6.23024 5.050598 -11.280838 11.280838 -11.280838l45.123352 0l0 0c2.9918823 0 5.861206 1.1885071 7.976776 3.3040771c2.11557 2.11557 3.3040771 4.984894 3.3040771 7.976761l0 246.19421c0 6.230255 -5.050598 11.280853 -11.280853 11.280853l-45.123352 0c-6.23024 0 -11.280838 -5.050598 -11.280838 -11.280853z" fill-rule="evenodd"></path><path fill="#ffffff" d="m122.73816 93.32223l38.790024 38.499397l-111.040726 110.36133l-38.79003 -38.499405z" fill-rule="evenodd"></path><path fill="#ffffff" d="m214.4227 49.20065l38.790024 38.4994l-111.040726 110.36132l-38.790024 -38.499405z" fill-rule="evenodd"></path><path fill="#ffffff" d="m164.35327 87.43405l33.27411 -33.08565l-25.087646 -24.899672l114.15689 -13.819916l-13.806335 113.41861l-25.087646 -24.899681l-33.274094 33.085655z" fill-rule="evenodd"></path><path fill="#ffffff" d="m122.739235 93.322586l-43.017784 42.754578l62.45172 61.98381l43.017776 -42.754562z" fill-rule="evenodd"></path><path fill="#529fdb" d="m170.72878 22.390762l35.113785 34.850697l-43.017776 42.754574l-35.113785 -34.8507z" fill-rule="evenodd"></path><path fill="#529fdb" d="m244.87767 95.98411l12.900314 12.80365l-43.01779 42.75457l-12.900299 -12.80365z" fill-rule="evenodd"></path><path fill="#529fdb" d="m232.04979 110.90111l14.306305 -14.2187805l34.913254 34.651672l-14.306305 14.2187805z" fill-rule="evenodd"></path></g></svg>

